<svg xmlns="http://www.w3.org/2000/svg" width="1024" height="1024" viewBox="0 0 1024 1024"><circle cx="512" cy="512" r="512" fill="#fff"/><path d="M558.69,270.06c-2.22.21-10.36.88-18.1,1.56-13.35,1.09-33.41,3.59-36.66,4.68-.85.27-4.43.94-8,1.55-26.18,4.27-58.6,15.25-76.83,25.95a81.85,81.85,0,0,1-8,4.33c-4.17,1.7-31.51,21.55-41.67,30.22C294.6,402.16,254.88,501.8,271.55,584.11c2,10,2.27,10.16,9.11,4.88a314.88,314.88,0,0,1,34-22.9c7.88-4.67,41.87-21.88,43.23-21.88.2,0,2.8-1.15,5.73-2.51,29.76-14.22,116.42-45.11,159.92-57,1.62-.48,9.11-2.58,16.53-4.68,41.29-11.72,48.19-13.28,48.19-11.24,0,.4-2.35,1.69-5.28,2.71-14.19,5.14-52.87,21.33-54.43,22.76a3.82,3.82,0,0,1-2.21.88c-.65,0-4.17,1.42-7.75,3.11a63.06,63.06,0,0,1-7.16,3.12,75.81,75.81,0,0,0-8.14,3.66c-4.11,2-7.69,3.66-7.95,3.66s-4.29,1.89-9.05,4.2-8.85,4.2-9.11,4.2c-4.23,0-101,52.63-131.53,71.53-7,4.34-12.82,7.86-13,7.86s-9.77,6.16-40.11,26.15c-33.79,22.21-90.24,63.81-125,92.19-4.17,3.39-9.12,7.38-11,8.94-30.14,24.39-34,28.86-16.86,19.51,38.48-20.93,81.39-41.86,112.25-54.6,18.88-7.85,38.81-13.68,52.29-15.37l5.6-.68,14,14.56c36.53,38,75.86,57.31,133.74,65.64,13.81,2,58,1.7,68.5-.4,3.06-.61,9.83-1.9,15-2.78s10.88-2.1,12.57-2.57,5.92-1.7,9.5-2.65c66.68-18,123.72-61,174.24-131.35,1.11-1.55,5.6-7.65,10-13.61s9-12.26,10.09-14,4-6,6.32-9.41c26.3-38.61,63.55-102.15,87.57-149.37,2.61-5.15,6.84-13.41,9.38-18.29s10.68-21.81,18.23-37.6,14.06-29.53,14.58-30.55c2.15-4.13,1.31-5.08-8.59-9.21-1.11-.47-8.53-3-16.54-5.76s-17.06-5.76-20-6.84c-13.16-4.61-35-11.18-61.73-18.56-23.11-6.37-29.43-8.06-38.15-10-4.43-1-9.18-2.23-10.55-2.71a79.14,79.14,0,0,0-8.53-2c-9.31-1.83-13.41-2.71-22.07-4.67-32.3-7.25-60.3-9.89-108-10.37-20.18-.27-38.48-.2-40.69,0" fill="#3aac59" fill-rule="evenodd"/></svg>