<svg id="图层_1" data-name="图层 1" xmlns="http://www.w3.org/2000/svg" viewBox="0 0 706.21 298.4"><defs><style>.cls-1{fill:#013893;}</style></defs><title>婵娟</title><path class="cls-1" d="M675.42,298.4,647.65,275,666.22,253a15.6,15.6,0,0,0,3.68-10.08V118.74h36.31V242.87A52,52,0,0,1,694,276.33Z"/><rect class="cls-1" x="172.7" y="6.1" width="36.31" height="45.95" transform="translate(13.06 104.3) rotate(-31.6)"/><rect class="cls-1" x="234.87" y="23.92" width="74.1" height="36.3" transform="translate(102.81 259.13) rotate(-60.87)"/><rect class="cls-1" x="214.28" y="72.05" width="36.31" height="223.39"/><rect class="cls-1" x="154.44" y="156.43" width="156.36" height="36.31"/><rect class="cls-1" x="139.57" y="210.07" width="185.73" height="36.31"/><rect class="cls-1" x="151.56" y="105.6" width="161.75" height="30.71"/><rect class="cls-1" x="151.56" y="49.16" width="36.31" height="143.58"/><rect class="cls-1" x="277" y="49.16" width="36.31" height="143.58"/><rect class="cls-1" x="544.15" y="118.74" width="36.31" height="176.7"/><rect class="cls-1" x="154.44" y="49.16" width="156.36" height="36.31"/><path class="cls-1" d="M706.21,98.61H544.15V5.78H706.21ZM580.45,62.3H669.9V42.09H580.45Z"/><rect class="cls-1" x="544.46" y="118.74" width="161.75" height="36.31"/><rect class="cls-1" x="544.46" y="175.17" width="108.06" height="30.71"/><rect class="cls-1" x="583.13" y="187.48" width="30.71" height="108.06" transform="translate(355.31 839.33) rotate(-89.84)"/><rect class="cls-1" y="49.16" width="139.57" height="36.31"/><path class="cls-1" d="M16,297.49S19.1,272.63,51.15,239l2.73-3.31a127.83,127.83,0,0,0,29.25-81.38V6.1h36.31V156.74A126.52,126.52,0,0,1,90.5,237.26L77.19,253.38C33.48,297.09,16,297.49,16,297.49Z"/><path class="cls-1" d="M16,297.49S19.1,272.63,51.15,239l2.73-3.31a127.83,127.83,0,0,0,29.25-81.38V6.1h36.31V156.74A126.52,126.52,0,0,1,90.5,237.26L77.19,253.38C33.48,297.09,16,297.49,16,297.49Z"/><path class="cls-1" d="M123.56,297.49S120.44,272.63,88.39,239l-2.73-3.31a127.83,127.83,0,0,1-29.25-81.38V6.1H20.1V156.74A126.52,126.52,0,0,0,49,237.26l13.31,16.12c43.71,43.71,61.21,44.11,61.21,44.11Z"/><rect class="cls-1" x="392.57" y="49.16" width="139.57" height="36.31"/><path class="cls-1" d="M408.54,297.49s3.13-24.86,35.17-58.47l2.74-3.31a127.89,127.89,0,0,0,29.25-81.38V6.1H512V156.74a126.46,126.46,0,0,1-28.94,80.52l-13.3,16.12c-43.72,43.71-61.22,44.11-61.22,44.11Z"/><path class="cls-1" d="M408.54,297.49s3.13-24.86,35.17-58.47l2.74-3.31a127.89,127.89,0,0,0,29.25-81.38V6.1H512V156.74a126.46,126.46,0,0,1-28.94,80.52l-13.3,16.12c-43.72,43.71-61.22,44.11-61.22,44.11Z"/><path class="cls-1" d="M516.13,297.49S513,272.63,481,239l-2.73-3.31A127.83,127.83,0,0,1,449,154.33V6.1H412.67V156.74a126.46,126.46,0,0,0,28.94,80.52l13.3,16.12c43.72,43.71,61.22,44.11,61.22,44.11Z"/></svg>