<svg id="图层_1" data-name="图层 1" xmlns="http://www.w3.org/2000/svg" viewBox="0 0 348 348"><defs><style>.cls-1{fill:#013893;}.cls-2{fill:#fff;}</style></defs><title>婵娟</title><circle class="cls-1" cx="174" cy="174" r="174"/><path class="cls-2" d="M281.13,248.66c-5.95-57.13-58.38-60.32-66.91-45.22-6.46,11.44-1.49,23.16,11.84,27.06a15.26,15.26,0,0,1,10.7,12.16c1.58,9.54-3.24,21.35-4.41,24.78-22.52,65.58-64.72,42.62-61.78-3.69,1.19-18.72,4.3-34.51,9.08-47.63,12.4-34,33.52-57.69,54.84-76.5,16.29-14.37,33.4-22.5,35.44-34.48,3.41-20.13-32.74-37-65.38-29.8a262.87,262.87,0,0,0-61.17,22.19c-84.55,41.72-117.44,85-117.44,85,66,14.63,87.41-23,116-42.31s30.93-16.32,30.93-16.32c-92,93.47-88.54,174-86.6,200.38A174,174,0,0,0,283.83,309C284.46,293,283.74,273.67,281.13,248.66Zm-56-151.25c4.82-.91,9.16.63,9.69,3.43s-3,5.82-7.77,6.73-9.16-.63-9.69-3.43S220.35,98.32,225.17,97.41Z"/></svg>