<svg id="图层_1" data-name="图层 1" xmlns="http://www.w3.org/2000/svg" viewBox="0 0 1024 1024"><defs><style>.cls-1{fill:#013893;}.cls-2{fill:#fff;}</style></defs><title>婵娟</title><circle class="cls-1" cx="512" cy="512" r="512"/><path class="cls-2" d="M827.23,731.68C809.72,563.6,655.44,554.2,630.35,598.61c-19,33.67-4.4,68.16,34.83,79.65A44.84,44.84,0,0,1,696.66,714c4.65,28.07-9.51,62.84-13,72.91-66.27,193-190.44,125.43-181.77-10.86,3.5-55.06,12.63-101.54,26.7-140.13C565.12,535.84,627.25,466.18,690,410.83c47.92-42.27,98.27-66.19,104.25-101.45,10.06-59.25-96.33-108.79-192.37-87.68-91.68,20.15-161.64,56.21-180,65.28C173.11,409.75,76.32,537.17,76.32,537.17c194.15,43,257.21-67.69,341.44-124.52,84.62-57.1,91-48,91-48C238,639.69,248.24,876.67,254,954.27a512.12,512.12,0,0,0,581.24-45.18C837,862.25,834.9,805.3,827.23,731.68Zm-164.66-445c14.19-2.68,26.95,1.84,28.51,10.09s-8.68,17.11-22.87,19.79-27-1.84-28.52-10.09S648.38,289.32,662.57,286.64Z"/></svg>