<svg id="图层_1" data-name="图层 1" xmlns="http://www.w3.org/2000/svg" viewBox="0 0 48 48"><defs><style>.cls-1{fill:#013893;}.cls-2{fill:#fff;}</style></defs><title>婵娟</title><circle class="cls-1" cx="23.73" cy="24.23" r="24"/><path class="cls-2" d="M38.51,34.53c-.82-7.88-8-8.32-9.23-6.24A2.45,2.45,0,0,0,30.91,32a2.1,2.1,0,0,1,1.48,1.67,7.58,7.58,0,0,1-.61,3.42c-3.11,9.05-8.93,5.88-8.52-.51A23.47,23.47,0,0,1,24.51,30a25.59,25.59,0,0,1,7.57-10.55c2.24-2,4.6-3.1,4.88-4.75.47-2.78-4.51-5.1-9-4.11a35.77,35.77,0,0,0-8.44,3.06C7.85,19.44,3.31,25.41,3.31,25.41c9.1,2,12.06-3.17,16-5.83s4.27-2.25,4.27-2.25C10.89,30.22,11.37,41.33,11.64,45a24,24,0,0,0,27.24-2.11A58,58,0,0,0,38.51,34.53ZM30.79,13.67c.66-.13,1.26.09,1.34.47s-.41.8-1.08.93-1.26-.09-1.33-.47S30.12,13.8,30.79,13.67Z"/></svg>