<svg width="752pt" height="752pt" viewBox="0 0 310 369" xmlns="http://www.w3.org/2000/svg"><path d="m124.33 15.624 53.594 89.328-57.203 76.285c-.219.278-.101.653-.258.95-.238.492-.433.886-.492 1.418-.019.218-.238.355-.238.574 0 .137.137.215.137.355.043.453.277.789.414 1.203.121.336-.039.672.16.985l57.48 95.824-52.902 70.543-112.83-178.62Zm62.336 262.28-53.297-88.793h106.89l53.297 88.793Zm53.594-266.39 53.297 88.797h-106.89L133.37 11.514Zm66.793 270.98c-.039-.453-.254-.789-.414-1.203-.117-.336.039-.668-.156-.984l-57.48-95.82 57.203-76.289c.219-.274.117-.649.258-.945.234-.493.433-.887.492-1.422.019-.215.238-.356.238-.59 0-.121-.141-.199-.141-.336-.039-.453-.253-.789-.414-1.203-.117-.336.039-.672-.156-.988L247.284 4.05c-.097-.196-.355-.196-.492-.356-.395-.531-.887-.789-1.481-1.102-.55-.316-1.027-.613-1.675-.691-.2-.039-.336-.258-.575-.258h-118.39c-.156 0-.238.156-.394.18-.453.039-.789.234-1.223.394-.316.118-.633-.043-.91.137-.195.117-.215.375-.375.512-.293.219-.531.375-.75.652-.098.117-.293.098-.375.219L2.254 171.467c-.195.293-.078.648-.215.945a4.634 4.634 0 0 0-.394 1.797c-.02.649.058 1.164.293 1.754.121.336-.02.691.179.988l118.39 187.46c.137.219.375.297.532.496.16.196.297.336.476.512.117.078.098.238.195.317.098.058.219.039.317.097.789.512 1.695.867 2.644.867h118.39c1.52 0 2.743-.75 3.653-1.812.078-.102.215-.063.293-.16l59.199-78.93c.218-.278.117-.653.257-.946.235-.496.434-.89.493-1.421.019-.219.238-.356.238-.594 0-.117-.141-.195-.141-.336Z" fill-rule="evenodd"/></svg>