<svg width="24" height="24" viewBox="0 0 24 24" fill="none" xmlns="http://www.w3.org/2000/svg">
<path d="M23.9578 17.2078C23.9578 19.2788 21.9431 20.9578 19.5 20.9578C17.0569 20.9578 15.0422 19.2787 15.0422 17.25C15.0422 15.1791 17.0569 13.5422 19.5 13.5422C20.0287 13.5422 20.5289 13.6322 21.0005 13.7718V6.94219L9 10.5L8.99989 20.2547C8.95781 22.3219 6.98438 24 4.45781 24C1.93125 24 0 22.3219 0 20.25C0 18.1791 2.01469 16.5422 4.45781 16.5422C4.98656 16.5422 5.48672 16.6322 5.95781 16.7718V5.92969C5.95781 5.32172 6.42937 4.68141 7.00828 4.49906L21.9661 0.0698438C22.1297 0.0310078 22.3734 0 22.5 0C23.3278 0 23.9986 0.672188 24 1.49953L23.9578 17.2078Z" fill="#757575"/>
</svg>
