<svg viewBox="0 0 377 479" xmlns="http://www.w3.org/2000/svg"><defs><clipPath id="a"><path d="M189 139.21h374v473.58H189z"/></clipPath></defs><g clip-path="url(#a)" transform="translate(-187.969 -137.315)"><path d="M557.09 262.56 438.7 144.17a16.913 16.913 0 0 0-11.957-4.957h-186.05a50.736 50.736 0 0 0-50.738 50.742v372.1a50.741 50.741 0 0 0 50.738 50.742h270.62a50.745 50.745 0 0 0 50.742-50.742v-287.53c0-4.484-1.785-8.785-4.957-11.957zm-113.44-65.609 60.652 60.652h-43.738a16.911 16.911 0 0 1-16.914-16.914zm67.652 382.01h-270.62c-4.484 0-8.785-1.781-11.957-4.953s-4.957-7.477-4.957-11.961v-372.1a16.916 16.916 0 0 1 16.914-16.914h169.14v67.652a50.745 50.745 0 0 0 50.742 50.742h67.656l-.004 270.62c0 4.484-1.781 8.789-4.953 11.96s-7.473 4.954-11.961 4.954z"/></g></svg>