<?xml version="1.0" encoding="utf-8"?>
<svg width="752pt" height="752pt" version="1.1" viewBox="0 0 373 452" xmlns="http://www.w3.org/2000/svg">
  <g transform="matrix(1, 0, 0, 1, -189.449646, -150.126358)">
    <path d="m557.41 204.65-51.051-49.895c-2.9102-2.8477-6.832-4.4492-10.906-4.4492h-289.95c-8.6211 0-15.605 6.9883-15.605 15.609v420.17c0 8.6211 6.9844 15.605 15.605 15.605h340.99c8.6211 0 15.605-6.9844 15.605-15.605l0.003907-370.27c0-4.1953-1.6953-8.2227-4.6992-11.16zm-26.516 365.83h-309.78v-388.96h258.74v34.297c0 8.6211 6.9844 15.605 15.605 15.605h35.445v339.05z"/>
    <path d="m407.71 443.33v-138.2l20.676 20.676c6.7695 6.7695 17.891 7.457 24.863 0.89453 7.2148-6.793 7.3398-18.152 0.38672-25.105l-51.051-51.051c-5.9648-5.9648-15.523-6.9414-22.703-1.7539-4.6328 3.3438-7.1562 8.9102-7.1562 14.621v136.44c-9.1602-4.2539-19.66-6.1211-30.707-4.7344-25.418 3.1875-45.699 23.828-48.445 49.305-3.625 33.691 22.672 62.172 55.633 62.172 22.309 0 41.562-13.055 50.555-31.938 5.2188-9.6211 7.9492-20.387 7.9492-31.324z"/>
  </g>
</svg>