<?xml version="1.0" encoding="utf-8"?>
<svg width="752pt" height="752pt" version="1.1" viewBox="0 0 389 294" xmlns="http://www.w3.org/2000/svg">
  <path d="M 80.747 -0.156 C 36.392 -0.156 0.239 35.996 0.239 80.352 L 0.239 212.952 C 0.239 257.307 36.391 293.46 80.747 293.46 L 308.067 293.46 C 352.422 293.46 388.575 257.308 388.575 212.952 L 388.575 80.352 C 388.575 35.997 352.423 -0.156 308.067 -0.156 L 80.747 -0.156 Z M 80.747 28.258 L 308.067 28.258 C 337.172 28.258 360.161 51.246 360.161 80.352 L 360.161 212.952 C 360.161 242.057 337.173 265.046 308.067 265.046 L 80.747 265.046 C 51.642 265.046 28.653 242.058 28.653 212.952 L 28.653 80.352 C 28.653 51.247 51.641 28.258 80.747 28.258 L 80.747 28.258 Z M 151.786 89.824 L 151.786 203.484 L 255.976 146.656 L 151.786 89.828 L 151.786 89.824 Z"/>
</svg>