<svg width="21" height="22" viewBox="0 0 21 22" fill="none" xmlns="http://www.w3.org/2000/svg">
<path d="M2.93011 4.58974C2.93011 4.58974 2.93008 10.2308 6.51095 11.2564C4.46474 6.1282 8.5572 1 13.1611 1C9.5803 8.69231 19.8113 6.5 19.8113 14.3333C19.8113 17.0002 18.135 21 11.3123 21C1.08122 21 -1.16233 12.2821 2.93011 4.58974Z" stroke="currentColor" fill="transparent" stroke-width="2" stroke-linejoin="round"/>
<path d="M11.8123 21C14.0214 21 15.8123 19.2091 15.8123 17C15.8123 14.7909 14.0214 13 11.8123 13C9.60316 13 7.8123 14.7909 7.8123 17C7.8123 19.2091 9.60316 21 11.8123 21Z" stroke="currentColor" fill="transparent" stroke-width="2" stroke-linejoin="round"/>
</svg>
