<svg width="6" height="6" viewBox="0 0 6 6" fill="none" xmlns="http://www.w3.org/2000/svg">
<path fill-rule="evenodd" clip-rule="evenodd" d="M5.47488 1.23278C5.67014 1.03752 5.67014 0.720935 5.47488 0.525673C5.27961 0.33041 4.96303 0.33041 4.76777 0.525673L3.00002 2.29342L1.23224 0.525632C1.03697 0.33037 0.720392 0.33037 0.52513 0.525632C0.329868 0.720894 0.329867 1.03748 0.52513 1.23274L2.29292 3.00053L0.525128 4.76831C0.329866 4.96358 0.329866 5.28016 0.525128 5.47542C0.720391 5.67068 1.03697 5.67068 1.23224 5.47542L3.00002 3.70763L4.76777 5.47538C4.96303 5.67064 5.27961 5.67064 5.47488 5.47538C5.67014 5.28012 5.67014 4.96354 5.47488 4.76827L3.70713 3.00053L5.47488 1.23278Z" fill="#D32F2F"/>
<path d="M3.00002 2.29342L2.82325 2.4702L3.00002 2.64697L3.1768 2.4702L3.00002 2.29342ZM1.23224 0.525632L1.40901 0.348855L1.40901 0.348855L1.23224 0.525632ZM0.52513 0.525632L0.701907 0.702409L0.52513 0.525632ZM0.52513 1.23274L0.701906 1.05596L0.701906 1.05596L0.52513 1.23274ZM2.29292 3.00053L2.46969 3.1773L2.64647 3.00053L2.46969 2.82375L2.29292 3.00053ZM3.00002 3.70763L3.1768 3.53086L3.00002 3.35408L2.82325 3.53086L3.00002 3.70763ZM4.76777 5.47538L4.59099 5.65216L4.76777 5.47538ZM5.47488 4.76827L5.2981 4.94505L5.47488 4.76827ZM3.70713 3.00053L3.53035 2.82375L3.35358 3.00053L3.53035 3.1773L3.70713 3.00053ZM5.2981 0.702449C5.39573 0.80008 5.39573 0.958372 5.2981 1.056L5.65165 1.40956C5.94455 1.11666 5.94455 0.641789 5.65165 0.348896L5.2981 0.702449ZM4.94455 0.702449C5.04218 0.604818 5.20047 0.604818 5.2981 0.702449L5.65165 0.348896C5.35876 0.0560027 4.88389 0.0560026 4.59099 0.348896L4.94455 0.702449ZM3.1768 2.4702L4.94455 0.702449L4.59099 0.348896L2.82325 2.11664L3.1768 2.4702ZM1.05546 0.702409L2.82325 2.4702L3.1768 2.11664L1.40901 0.348855L1.05546 0.702409ZM0.701907 0.702409C0.799538 0.604777 0.957829 0.604777 1.05546 0.702409L1.40901 0.348855C1.11612 0.0559618 0.641247 0.0559617 0.348353 0.348855L0.701907 0.702409ZM0.701906 1.05596C0.604275 0.958331 0.604275 0.80004 0.701907 0.702409L0.348353 0.348855C0.05546 0.641748 0.0554595 1.11662 0.348353 1.40952L0.701906 1.05596ZM2.46969 2.82375L0.701906 1.05596L0.348353 1.40952L2.11614 3.1773L2.46969 2.82375ZM0.701905 4.94509L2.46969 3.1773L2.11614 2.82375L0.348352 4.59154L0.701905 4.94509ZM0.701905 5.29864C0.604274 5.20101 0.604274 5.04272 0.701905 4.94509L0.348352 4.59154C0.0554585 4.88443 0.0554587 5.3593 0.348352 5.6522L0.701905 5.29864ZM1.05546 5.29864C0.957828 5.39627 0.799536 5.39627 0.701905 5.29864L0.348352 5.6522C0.641245 5.94509 1.11612 5.94509 1.40901 5.6522L1.05546 5.29864ZM2.82325 3.53086L1.05546 5.29864L1.40901 5.6522L3.1768 3.88441L2.82325 3.53086ZM4.94455 5.2986L3.1768 3.53086L2.82325 3.88441L4.59099 5.65216L4.94455 5.2986ZM5.2981 5.2986C5.20047 5.39623 5.04218 5.39623 4.94455 5.2986L4.59099 5.65216C4.88389 5.94505 5.35876 5.94505 5.65165 5.65216L5.2981 5.2986ZM5.2981 4.94505C5.39573 5.04268 5.39573 5.20097 5.2981 5.2986L5.65165 5.65216C5.94455 5.35926 5.94455 4.88439 5.65165 4.5915L5.2981 4.94505ZM3.53035 3.1773L5.2981 4.94505L5.65165 4.5915L3.88391 2.82375L3.53035 3.1773ZM5.2981 1.056L3.53035 2.82375L3.88391 3.1773L5.65165 1.40956L5.2981 1.056Z" fill="#D32F2F"/>
</svg>
