<svg width="16" height="16" viewBox="0 0 16 16" fill="none" xmlns="http://www.w3.org/2000/svg">
<g clip-path="url(#clip0_2009_67233)">
<circle cx="8" cy="8" r="7" fill="#D32F2F" fill-opacity="0.2" stroke="#D32F2F" stroke-width="1.5"/>
<path fill-rule="evenodd" clip-rule="evenodd" d="M10.4749 6.23278C10.6701 6.03752 10.6701 5.72093 10.4749 5.52567C10.2796 5.33041 9.96303 5.33041 9.76777 5.52567L8.00002 7.29342L6.23224 5.52563C6.03697 5.33037 5.72039 5.33037 5.52513 5.52563C5.32987 5.72089 5.32987 6.03748 5.52513 6.23274L7.29292 8.00053L5.52513 9.76831C5.32987 9.96358 5.32987 10.2802 5.52513 10.4754C5.72039 10.6707 6.03697 10.6707 6.23224 10.4754L8.00002 8.70763L9.76777 10.4754C9.96303 10.6706 10.2796 10.6706 10.4749 10.4754C10.6701 10.2801 10.6701 9.96354 10.4749 9.76827L8.70713 8.00053L10.4749 6.23278Z" fill="#D32F2F"/>
<path d="M8.00002 7.29342L7.82325 7.4702L8.00002 7.64697L8.1768 7.4702L8.00002 7.29342ZM6.23224 5.52563L6.40901 5.34886L6.40901 5.34886L6.23224 5.52563ZM5.52513 5.52563L5.70191 5.70241L5.52513 5.52563ZM5.52513 6.23274L5.70191 6.05596L5.70191 6.05596L5.52513 6.23274ZM7.29292 8.00053L7.46969 8.1773L7.64647 8.00053L7.46969 7.82375L7.29292 8.00053ZM8.00002 8.70763L8.1768 8.53086L8.00002 8.35408L7.82325 8.53086L8.00002 8.70763ZM9.76777 10.4754L9.59099 10.6522L9.76777 10.4754ZM10.4749 9.76827L10.2981 9.94505L10.4749 9.76827ZM8.70713 8.00053L8.53035 7.82375L8.35358 8.00053L8.53035 8.1773L8.70713 8.00053ZM10.2981 5.70245C10.3957 5.80008 10.3957 5.95837 10.2981 6.056L10.6517 6.40956C10.9445 6.11666 10.9445 5.64179 10.6517 5.3489L10.2981 5.70245ZM9.94455 5.70245C10.0422 5.60482 10.2005 5.60482 10.2981 5.70245L10.6517 5.3489C10.3588 5.056 9.88389 5.056 9.59099 5.3489L9.94455 5.70245ZM8.1768 7.4702L9.94455 5.70245L9.59099 5.3489L7.82325 7.11664L8.1768 7.4702ZM6.05546 5.70241L7.82325 7.4702L8.1768 7.11664L6.40901 5.34886L6.05546 5.70241ZM5.70191 5.70241C5.79954 5.60478 5.95783 5.60478 6.05546 5.70241L6.40901 5.34886C6.11612 5.05596 5.64125 5.05596 5.34835 5.34886L5.70191 5.70241ZM5.70191 6.05596C5.60428 5.95833 5.60428 5.80004 5.70191 5.70241L5.34835 5.34886C5.05546 5.64175 5.05546 6.11662 5.34835 6.40952L5.70191 6.05596ZM7.46969 7.82375L5.70191 6.05596L5.34835 6.40952L7.11614 8.1773L7.46969 7.82375ZM5.70191 9.94509L7.46969 8.1773L7.11614 7.82375L5.34835 9.59154L5.70191 9.94509ZM5.70191 10.2986C5.60427 10.201 5.60427 10.0427 5.70191 9.94509L5.34835 9.59154C5.05546 9.88443 5.05546 10.3593 5.34835 10.6522L5.70191 10.2986ZM6.05546 10.2986C5.95783 10.3963 5.79954 10.3963 5.70191 10.2986L5.34835 10.6522C5.64124 10.9451 6.11612 10.9451 6.40901 10.6522L6.05546 10.2986ZM7.82325 8.53086L6.05546 10.2986L6.40901 10.6522L8.1768 8.88441L7.82325 8.53086ZM9.94455 10.2986L8.1768 8.53086L7.82325 8.88441L9.59099 10.6522L9.94455 10.2986ZM10.2981 10.2986C10.2005 10.3962 10.0422 10.3962 9.94455 10.2986L9.59099 10.6522C9.88389 10.945 10.3588 10.945 10.6517 10.6522L10.2981 10.2986ZM10.2981 9.94505C10.3957 10.0427 10.3957 10.201 10.2981 10.2986L10.6517 10.6522C10.9445 10.3593 10.9445 9.88439 10.6517 9.5915L10.2981 9.94505ZM8.53035 8.1773L10.2981 9.94505L10.6517 9.5915L8.88391 7.82375L8.53035 8.1773ZM10.2981 6.056L8.53035 7.82375L8.88391 8.1773L10.6517 6.40956L10.2981 6.056Z" fill="#D32F2F"/>
</g>
<defs>
<clipPath id="clip0_2009_67233">
<rect width="16" height="16" fill="white"/>
</clipPath>
</defs>
</svg>
