<svg fill="none" xmlns="http://www.w3.org/2000/svg">
<path d="M60.0964 12.4468H68.789V37.8559H60.0964V12.4468Z" />
<path d="M48.1615 10.5345C44.8194 10.5345 41.402 11.3346 40.5511 12.8237C40.5396 12.8426 40.5284 12.86 40.5175 12.8794V2.21875L31.5923 2.21875V19.1312V19.1602C32.4801 19.5668 33.3906 20.0314 34.3118 20.5566C34.6234 20.7353 34.887 20.8913 35.0814 21.0082C35.2036 21.0816 35.3255 21.1552 35.4473 21.2311C35.4599 21.2389 30.3458 29.2025 23.3812 30.8747C19.2664 31.8633 14.4055 30.6664 13.4208 26.5386C13.3796 26.3675 13.3569 26.1958 13.3303 26.0244C13.9864 25.6337 14.6574 25.2751 15.332 24.9427C17.0366 24.1999 18.3374 23.6432 18.8296 23.4543C18.8728 23.4383 18.9165 23.4217 18.9593 23.406C18.9602 23.406 18.9613 23.4057 18.9619 23.4057C18.9624 23.4057 18.9624 23.4051 18.9633 23.4046C23.0271 21.9308 26.4381 21.4222 26.4381 21.4222C23.3403 21.1544 20.6804 21.3702 18.4545 21.8111C18.4536 21.81 18.4514 21.8094 18.4514 21.8094C18.4514 21.8094 18.4346 21.8134 18.4046 21.8212C16.3891 22.2248 14.7311 22.8119 13.4437 23.3976C14.1609 20.4226 16.7497 17.8379 19.8133 17.1016C20.0825 17.037 20.3554 16.9869 20.6291 16.9442C20.7078 16.9321 20.7863 16.9215 20.8653 16.9111C21.0779 16.8821 21.2917 16.8596 21.5069 16.8422C21.5755 16.8369 21.6447 16.8296 21.7136 16.8259C21.9888 16.8085 22.2647 16.7998 22.5418 16.8009C22.5962 16.8012 22.6505 16.8043 22.7049 16.8046C22.9346 16.8079 23.1643 16.8169 23.3944 16.8315C23.4756 16.8366 23.5566 16.8419 23.6373 16.8484C23.7179 16.8549 23.7986 16.8624 23.879 16.87C25.1981 17.0063 26.8185 17.3604 28.6149 17.9708V12.1243C27.7481 11.8562 26.8283 11.5965 25.8735 11.3615C23.3565 10.691 19.0344 9.97718 14.3075 11.1286C6.70463 12.9814 4.54848 18.6062 4.54848 25.4797C4.54848 26.3554 4.61796 27.1749 4.74488 27.9458C3.09442 29.039 1.47339 30.2943 0 31.727C0 31.727 2.19285 30.7491 5.0892 29.4622C7.02262 36.0636 13.7668 38.2843 18.8453 38.2843C24.1416 38.2843 27.5416 36.7724 31.5923 34.2451V37.4463H40.5175V21.5666C40.5284 21.5458 40.5396 21.5253 40.5511 21.504V21.2342C41.4003 18.9646 42.8445 18.3789 44.4496 18.3789C46.571 18.3789 47.8965 19.8855 47.8965 22.2796V37.4463H56.8217V19.709C56.8217 14.1246 53.3308 10.5345 48.1615 10.5345Z" />
<path d="M64.3011 0C61.6062 0 59.7058 1.90567 59.7058 4.60919C59.7058 7.31272 61.6062 9.21811 64.3011 9.21811C66.996 9.21811 68.8966 7.31272 68.8966 4.60919C68.8966 1.90567 66.996 0 64.3011 0Z" />
<path d="M98.471 23.0574H98.4819L98.4724 11.7389H89.5365L89.4878 13.3478C80.8685 7.7946 75.3661 13.5054 75.3661 13.5054C72.7345 15.9156 71.2073 19.7207 71.2073 24.4985C71.2073 32.9691 76.2836 38.008 82.8826 38.008C85.3559 38.008 87.6345 37.4476 89.6021 34.7197C89.8301 35.3556 90.3378 36.9128 90.7015 37.4476H100C98.4063 34.8231 98.4192 25.7224 98.471 23.0574ZM84.9662 30.6697C82.0721 30.6697 80.0314 28.1505 80.0314 24.5764C80.0314 21.0022 82.0721 18.4825 84.9662 18.4825C86.9957 18.4825 88.6044 19.7227 89.385 21.6958V27.4564C88.6047 29.4295 86.9957 30.6697 84.9662 30.6697Z" />
</svg>
