<svg width="30" height="32" viewBox="0 0 30 32" fill="none" xmlns="http://www.w3.org/2000/svg">
<path fill-rule="evenodd" clip-rule="evenodd" d="M4 5C4 2.23858 6.23858 0 9 0H25C27.7614 0 30 2.23858 30 5V27C30 29.7614 27.7614 32 25 32H9C6.23858 32 4 29.7614 4 27V26H3C1.34315 26 0 24.6569 0 23C0 21.3431 1.34315 20 3 20H4V12H3C1.34315 12 0 10.6569 0 9C0 7.34315 1.34315 6 3 6H4V5ZM6 20.1707C7.16519 20.5825 8 21.6938 8 23C8 24.3062 7.16519 25.4175 6 25.8293V27C6 28.6569 7.34315 30 9 30H25C26.6569 30 28 28.6569 28 27V5C28 3.34315 26.6569 2 25 2H9C7.34315 2 6 3.34315 6 5V6.17071C7.16519 6.58254 8 7.69378 8 9C8 10.3062 7.16519 11.4175 6 11.8293V20.1707ZM3 8C2.44772 8 2 8.44772 2 9C2 9.55228 2.44772 10 3 10H5C5.55228 10 6 9.55228 6 9C6 8.44771 5.55228 8 5 8H3ZM2 23C2 22.4477 2.44772 22 3 22H5C5.55228 22 6 22.4477 6 23C6 23.5523 5.55228 24 5 24H3C2.44772 24 2 23.5523 2 23ZM17 10C15.3431 10 14 11.3431 14 13C14 14.6569 15.3431 16 17 16C18.6569 16 20 14.6569 20 13C20 11.3431 18.6569 10 17 10ZM12 13C12 10.2386 14.2386 8 17 8C19.7614 8 22 10.2386 22 13C22 15.7614 19.7614 18 17 18C14.2386 18 12 15.7614 12 13ZM11.6752 24.2376L11.6739 24.2388C11.2661 24.6108 10.6338 24.582 10.2615 24.1743C9.88914 23.7665 9.91787 23.1339 10.3257 22.7615L10.9998 23.4998C10.3257 22.7615 10.3265 22.7609 10.3267 22.7606L10.3279 22.7595L10.3312 22.7566L10.3407 22.748L10.3717 22.7206C10.3976 22.6978 10.4339 22.6664 10.4802 22.6274C10.5726 22.5497 10.7049 22.4418 10.8728 22.3139C11.2077 22.0588 11.6885 21.7206 12.28 21.3821C13.4484 20.7135 15.1248 20 17 20C18.8752 20 20.5516 20.7135 21.72 21.3821C22.3115 21.7206 22.7923 22.0588 23.1273 22.3139C23.2951 22.4418 23.4274 22.5497 23.5199 22.6274C23.5661 22.6664 23.6024 22.6978 23.6283 22.7206L23.6593 22.748L23.6688 22.7566L23.6721 22.7595L23.6733 22.7606L23.6743 22.7615L23 23.5C23.6743 22.7615 23.6745 22.7618 23.6743 22.7615C24.0821 23.1339 24.1109 23.7665 23.7385 24.1743C23.3665 24.5817 22.7348 24.6106 22.3269 24.2396L22.3257 24.2385L22.3248 24.2376L22.3086 24.2233C22.2928 24.2094 22.2671 24.1872 22.2321 24.1577C22.1621 24.0988 22.055 24.0113 21.9152 23.9048C21.6349 23.6912 21.2273 23.4044 20.7267 23.1179C19.7105 22.5365 18.387 22 17 22C15.613 22 14.2895 22.5365 13.2734 23.1179C12.7727 23.4044 12.3652 23.6912 12.0848 23.9048C11.945 24.0113 11.8379 24.0988 11.7679 24.1577C11.7329 24.1872 11.7072 24.2094 11.6914 24.2233L11.6752 24.2376Z" fill="current" stroke="transparent"/>
</svg>
