<svg width="40" height="40" viewBox="0 0 40 40" fill="none" xmlns="http://www.w3.org/2000/svg">
<path fill-rule="evenodd" clip-rule="evenodd" d="M8 9C8 6.23858 10.2386 4 13 4H29C31.7614 4 34 6.23858 34 9V31C34 33.7614 31.7614 36 29 36H13C10.2386 36 8 33.7614 8 31V30H7C5.34315 30 4 28.6569 4 27C4 25.3431 5.34315 24 7 24H8V16H7C5.34315 16 4 14.6569 4 13C4 11.3431 5.34315 10 7 10H8V9ZM10 24.1707C11.1652 24.5825 12 25.6938 12 27C12 28.3062 11.1652 29.4175 10 29.8293V31C10 32.6569 11.3431 34 13 34H29C30.6569 34 32 32.6569 32 31V9C32 7.34315 30.6569 6 29 6H13C11.3431 6 10 7.34315 10 9V10.1707C11.1652 10.5825 12 11.6938 12 13C12 14.3062 11.1652 15.4175 10 15.8293V24.1707ZM7 12C6.44772 12 6 12.4477 6 13C6 13.5523 6.44772 14 7 14H9C9.55228 14 10 13.5523 10 13C10 12.4477 9.55228 12 9 12H7ZM6 27C6 26.4477 6.44772 26 7 26H9C9.55228 26 10 26.4477 10 27C10 27.5523 9.55228 28 9 28H7C6.44772 28 6 27.5523 6 27ZM21 14C19.3431 14 18 15.3431 18 17C18 18.6569 19.3431 20 21 20C22.6569 20 24 18.6569 24 17C24 15.3431 22.6569 14 21 14ZM16 17C16 14.2386 18.2386 12 21 12C23.7614 12 26 14.2386 26 17C26 19.7614 23.7614 22 21 22C18.2386 22 16 19.7614 16 17ZM15.6752 28.2376L15.6739 28.2388C15.2661 28.6108 14.6338 28.582 14.2615 28.1743C13.8891 27.7665 13.9179 27.1339 14.3257 26.7615L14.9998 27.4998C14.3257 26.7615 14.3265 26.7609 14.3267 26.7606L14.3279 26.7595L14.3312 26.7566L14.3407 26.748L14.3717 26.7206C14.3976 26.6978 14.4339 26.6664 14.4802 26.6274C14.5726 26.5497 14.7049 26.4418 14.8728 26.3139C15.2077 26.0588 15.6885 25.7206 16.28 25.3821C17.4484 24.7135 19.1248 24 21 24C22.8752 24 24.5516 24.7135 25.72 25.3821C26.3115 25.7206 26.7923 26.0588 27.1273 26.3139C27.2951 26.4418 27.4274 26.5497 27.5199 26.6274C27.5661 26.6664 27.6024 26.6978 27.6283 26.7206L27.6593 26.748L27.6688 26.7566L27.6721 26.7595L27.6733 26.7606L27.6743 26.7615L27 27.5C27.6743 26.7615 27.6745 26.7618 27.6743 26.7615C28.0821 27.1339 28.1109 27.7665 27.7385 28.1743C27.3665 28.5817 26.7348 28.6106 26.3269 28.2396L26.3257 28.2385L26.3248 28.2376L26.3086 28.2233C26.2928 28.2094 26.2671 28.1872 26.2321 28.1577C26.1621 28.0988 26.055 28.0113 25.9152 27.9048C25.6349 27.6912 25.2273 27.4044 24.7267 27.1179C23.7105 26.5365 22.387 26 21 26C19.613 26 18.2895 26.5365 17.2734 27.1179C16.7727 27.4044 16.3652 27.6912 16.0848 27.9048C15.945 28.0113 15.8379 28.0988 15.7679 28.1577C15.7329 28.1872 15.7072 28.2094 15.6914 28.2233L15.6752 28.2376Z" fill="current" stroke="transparent"/>
</svg>