<svg width="24" height="24" viewBox="0 0 24 24" fill="none" xmlns="http://www.w3.org/2000/svg">
<path d="M17 11V8C17 5.23858 14.7614 3 12 3C9.23858 3 7 5.23858 7 8V11M8.8 21H15.2C16.8802 21 17.7202 21 18.362 20.673C18.9265 20.3854 19.3854 19.9265 19.673 19.362C20 18.7202 20 17.8802 20 16.2V15.8C20 14.1198 20 13.2798 19.673 12.638C19.3854 12.0735 18.9265 11.6146 18.362 11.327C17.7202 11 16.8802 11 15.2 11H8.8C7.11984 11 6.27976 11 5.63803 11.327C5.07354 11.6146 4.6146 12.0735 4.32698 12.638C4 13.2798 4 14.1198 4 15.8V16.2C4 17.8802 4 18.7202 4.32698 19.362C4.6146 19.9265 5.07354 20.3854 5.63803 20.673C6.27976 21 7.11984 21 8.8 21Z" stroke="currentColor" stroke-width="2" stroke-linecap="round" stroke-linejoin="round"/>
</svg>
