<svg width="32" height="32" viewBox="0 0 32 32" fill="none" xmlns="http://www.w3.org/2000/svg">
<path fill-rule="evenodd" clip-rule="evenodd" d="M13.8525 1.17245C15.1628 0.350417 16.8372 0.350415 18.1475 1.17245L26.3898 6.34349C27.3196 6.92679 28.0278 7.79658 28.4044 8.81764L31.9398 18.4026C32.0513 18.7048 32.0062 19.0417 31.8191 19.3051C31.6319 19.5685 31.3262 19.7254 31 19.7254H29V30.57C29 31.1145 28.5523 31.5559 28 31.5559H26C25.4477 31.5559 25 31.1145 25 30.57C25 30.0256 25.4477 29.5842 26 29.5842H27V18.7395C27 18.195 27.4477 17.7536 28 17.7536H29.5723L26.5248 9.49148C26.2989 8.87884 25.8739 8.35697 25.3161 8.00699L17.0738 2.83594C16.4186 2.42492 15.5814 2.42492 14.9263 2.83594L6.68392 8.00699C6.12607 8.35697 5.70114 8.87884 5.47517 9.49147L2.42771 17.7536H4.00001C4.55229 17.7536 5.00001 18.195 5.00001 18.7395V29.5842H6.00001C6.55229 29.5842 7.00001 30.0256 7.00001 30.57C7.00001 31.1145 6.55229 31.5559 6.00001 31.5559H4.00001C3.44772 31.5559 3.00001 31.1145 3.00001 30.57V19.7254H1.00001C0.673794 19.7254 0.368086 19.5685 0.180939 19.3051C-0.00620843 19.0417 -0.0512681 18.7048 0.0602128 18.4026L3.59558 8.81764C3.97219 7.79658 4.68042 6.92679 5.61017 6.34349L13.8525 1.17245Z" fill="current" stroke="transparent" />
<path fill-rule="evenodd" clip-rule="evenodd" d="M10 17.7536C10 17.2092 10.4477 16.7678 11 16.7678H21C21.5523 16.7678 22 17.2092 22 17.7536V30.57C22 31.1145 21.5523 31.5559 21 31.5559C20.4477 31.5559 20 31.1145 20 30.57V18.7395H12V30.57C12 31.1145 11.5523 31.5559 11 31.5559C10.4477 31.5559 10 31.1145 10 30.57V17.7536Z" fill="current" stroke="transparent" />
<path fill-rule="evenodd" clip-rule="evenodd" d="M9 11.8384C9 10.2049 10.3431 8.88075 12 8.88075H20C21.6569 8.88075 23 10.2049 23 11.8384C23 13.4718 21.6569 14.796 20 14.796H12C10.3431 14.796 9 13.4718 9 11.8384ZM12 10.8525C11.4477 10.8525 11 11.2939 11 11.8384C11 12.3829 11.4477 12.8243 12 12.8243H20C20.5523 12.8243 21 12.3829 21 11.8384C21 11.2939 20.5523 10.8525 20 10.8525H12Z" fill="current" stroke="transparent" />
</svg>
