<svg width="40" height="40" viewBox="0 0 40 40" fill="none" xmlns="http://www.w3.org/2000/svg">
<path fill-rule="evenodd" clip-rule="evenodd" d="M17.1833 4.21014C18.8824 3.05166 21.1176 3.05166 22.8167 4.21014L30.4981 9.44748C31.3639 10.0378 32.0223 10.8851 32.3804 11.8699L35.9398 21.6583C36.0513 21.9648 36.0062 22.3065 35.8191 22.5737C35.6319 22.8409 35.3262 23 35 23H33V35C33 35.5523 32.5523 36 32 36H30C29.4477 36 29 35.5523 29 35C29 34.4477 29.4477 34 30 34H31V22C31 21.4477 31.4477 21 32 21H33.5723L30.5008 12.5534C30.286 11.9625 29.8909 11.4541 29.3714 11.0999L21.69 5.8626C20.6705 5.16751 19.3295 5.16751 18.31 5.8626L10.6286 11.0999C10.1091 11.4541 9.71406 11.9625 9.4992 12.5534L6.42771 21H8.00001C8.55229 21 9.00001 21.4477 9.00001 22V34H10C10.5523 34 11 34.4477 11 35C11 35.5523 10.5523 36 10 36H8.00001C7.44772 36 7.00001 35.5523 7.00001 35V23H5.00001C4.67379 23 4.36809 22.8409 4.18094 22.5737C3.99379 22.3065 3.94873 21.9648 4.06021 21.6583L7.61962 11.8699C7.97771 10.8851 8.63614 10.0378 9.5019 9.44748L17.1833 4.21014Z" fill="#65838A"/>
<path fill-rule="evenodd" clip-rule="evenodd" d="M13 21C13 20.4477 13.4477 20 14 20H26C26.5523 20 27 20.4477 27 21V34C27 34.5523 26.5523 35 26 35C25.4477 35 25 34.5523 25 34V22H15V34C15 34.5523 14.5523 35 14 35C13.4477 35 13 34.5523 13 34V21Z" fill="#65838A"/>
<path fill-rule="evenodd" clip-rule="evenodd" d="M13 15C13 13.3431 14.3431 12 16 12H24C25.6569 12 27 13.3431 27 15C27 16.6569 25.6569 18 24 18H16C14.3431 18 13 16.6569 13 15ZM16 14C15.4477 14 15 14.4477 15 15C15 15.5523 15.4477 16 16 16H24C24.5523 16 25 15.5523 25 15C25 14.4477 24.5523 14 24 14H16Z" fill="#65838A"/>
</svg>
