<svg width="40" height="40" viewBox="0 0 40 40" fill="none" xmlns="http://www.w3.org/2000/svg">
<path fill-rule="evenodd" clip-rule="evenodd" d="M30 26C27.7909 26 26 27.7909 26 30C26 32.2091 27.7909 34 30 34C32.2091 34 34 32.2091 34 30C34 27.7909 32.2091 26 30 26ZM24 30C24 26.6863 26.6863 24 30 24C33.3137 24 36 26.6863 36 30C36 33.3137 33.3137 36 30 36C26.6863 36 24 33.3137 24 30Z" fill="current"/>
<path fill-rule="evenodd" clip-rule="evenodd" d="M10 6C7.79086 6 6 7.79086 6 10C6 12.2091 7.79086 14 10 14C12.2091 14 14 12.2091 14 10C14 7.79086 12.2091 6 10 6ZM4 10C4 6.68629 6.68629 4 10 4C13.3137 4 16 6.68629 16 10C16 13.3137 13.3137 16 10 16C6.68629 16 4 13.3137 4 10Z" fill="current"/>
<path fill-rule="evenodd" clip-rule="evenodd" d="M26.3886 4H33.0358C35.4879 4 36.9043 6.78204 35.4618 8.7649L16.846 34.3532C16.0932 35.3879 14.8909 36 13.6114 36H6.96415C4.51207 36 3.09567 33.218 4.53822 31.2351L23.154 5.6468C23.9068 4.61212 25.1091 4 26.3886 4ZM26.3886 6C25.7489 6 25.1477 6.30606 24.7713 6.8234L6.15551 32.4117C5.67466 33.0727 6.14679 34 6.96415 34H13.6114C14.2511 34 14.8523 33.6939 15.2287 33.1766L33.8445 7.5883C34.3253 6.92735 33.8532 6 33.0358 6H26.3886Z" fill="current"/>
</svg>
