<svg width="29" height="32" viewBox="0 0 29 32" fill="none" xmlns="http://www.w3.org/2000/svg">
<path fill-rule="evenodd" clip-rule="evenodd" d="M12.0718 1.20814C13.5819 0.365067 15.4181 0.365067 16.9282 1.20814L26.4282 6.51187C28.0155 7.39806 29 9.07938 29 10.9041V21.2475C29 23.0723 28.0155 24.7536 26.4282 25.6398L16.9282 30.9435C15.4181 31.7866 13.5819 31.7866 12.0718 30.9435L2.57178 25.6398C0.984457 24.7536 0 23.0723 0 21.2475V10.9041C0 9.07938 0.98446 7.39805 2.57179 6.51187L12.0718 1.20814ZM15.9569 2.96505C15.0509 2.45921 13.9491 2.45921 13.0431 2.96505L3.54307 8.26878C2.59068 8.80049 2 9.80929 2 10.9041V21.2475C2 22.3424 2.59067 23.3512 3.54307 23.8829L13.0431 29.1866C13.9491 29.6925 15.0509 29.6925 15.9569 29.1866L25.4569 23.8829C26.4093 23.3512 27 22.3424 27 21.2475V10.9041C27 9.80929 26.4093 8.80049 25.4569 8.26878L15.9569 2.96505Z" fill="current" stroke="transparent"/>
<path fill-rule="evenodd" clip-rule="evenodd" d="M23.3944 11.1043C23.6414 11.6007 23.4412 12.2043 22.9472 12.4525L15.5 16.1945V25.6226C15.5 26.1776 15.0523 26.6275 14.5 26.6275C13.9477 26.6275 13.5 26.1776 13.5 25.6226V16.1945L7.05276 12.955C6.55878 12.7068 6.35856 12.1032 6.60555 11.6068C6.85254 11.1104 7.45321 10.9092 7.94719 11.1574L14.5 14.4499L22.0528 10.6549C22.5467 10.4067 23.1474 10.6079 23.3944 11.1043Z" fill="current" stroke="transparent"/>
</svg>
