<svg width="16" height="17" viewBox="0 0 16 17" fill="none" xmlns="http://www.w3.org/2000/svg">
<path fill-rule="evenodd" clip-rule="evenodd" d="M4.38377 1.13867C4.3891 1.13867 4.39445 1.13867 4.39981 1.13867L11.6158 1.13867C11.7888 1.13866 11.9444 1.13865 12.0739 1.14923C12.2125 1.16056 12.3598 1.1862 12.5042 1.25978C12.7133 1.3663 12.8833 1.53628 12.9898 1.74535C13.0634 1.88975 13.089 2.03707 13.1004 2.17573C13.1109 2.30521 13.1109 2.46083 13.1109 2.63376V4.0328C13.1109 4.04809 13.1109 4.06318 13.1109 4.07808C13.1111 4.3603 13.1112 4.57354 13.0618 4.77918C13.0183 4.96058 12.9464 5.13399 12.8489 5.29305C12.7384 5.47337 12.5876 5.62408 12.3879 5.82354C12.3774 5.83408 12.3667 5.84474 12.3559 5.85556L10.4017 7.80981C10.2645 7.947 10.1807 8.03124 10.123 8.09921C10.0961 8.13088 10.0814 8.15159 10.0732 8.16488C10.0693 8.1712 10.0672 8.17536 10.0661 8.17767C10.065 8.17989 10.0647 8.18092 10.0646 8.18111C10.0501 8.22575 10.0501 8.27382 10.0646 8.31845C10.0647 8.31864 10.065 8.31968 10.0661 8.3219C10.0672 8.32421 10.0693 8.32836 10.0732 8.33468C10.0814 8.34797 10.0961 8.36869 10.123 8.40036C10.1807 8.46833 10.2645 8.55257 10.4017 8.68976L12.3559 10.644C12.3667 10.6548 12.3774 10.6655 12.3879 10.676C12.5876 10.8755 12.7384 11.0262 12.8489 11.2065C12.9464 11.3656 13.0183 11.539 13.0618 11.7204C13.1112 11.926 13.1111 12.1393 13.1109 12.4215C13.1109 12.4364 13.1109 12.4515 13.1109 12.4668V13.8658C13.1109 14.0387 13.1109 14.1944 13.1004 14.3238C13.089 14.4625 13.0634 14.6098 12.9898 14.7542C12.8833 14.9633 12.7133 15.1333 12.5042 15.2398C12.3598 15.3134 12.2125 15.339 12.0739 15.3503C11.9444 15.3609 11.7888 15.3609 11.6159 15.3609H4.38375C4.21083 15.3609 4.05522 15.3609 3.92575 15.3503C3.7871 15.339 3.63978 15.3134 3.49538 15.2398C3.28631 15.1333 3.11633 14.9633 3.0098 14.7542C2.93623 14.6098 2.91059 14.4625 2.89926 14.3238C2.88868 14.1944 2.88869 14.0388 2.8887 13.8658L2.8887 12.4668C2.8887 12.4515 2.88869 12.4364 2.88869 12.4215C2.88855 12.1393 2.88845 11.926 2.93782 11.7204C2.98137 11.539 3.0532 11.3656 3.15067 11.2065C3.26117 11.0262 3.41203 10.8755 3.61168 10.676C3.62222 10.6655 3.6329 10.6548 3.64371 10.644L5.59796 8.68976C5.73515 8.55257 5.8189 8.46833 5.87661 8.40036C5.90349 8.36869 5.9182 8.34797 5.92642 8.33469C5.93033 8.32836 5.93247 8.32421 5.93356 8.3219C5.93462 8.31968 5.93495 8.31865 5.93501 8.31845C5.94952 8.27382 5.94952 8.22575 5.93501 8.18111C5.93495 8.18092 5.93462 8.17989 5.93357 8.17767C5.93247 8.17536 5.93033 8.17121 5.92642 8.16488C5.9182 8.15159 5.90349 8.13088 5.87661 8.09921C5.8189 8.03123 5.73515 7.947 5.59796 7.80981L3.64371 5.85556C3.6329 5.84474 3.62222 5.83408 3.61168 5.82355C3.41203 5.62408 3.26117 5.47337 3.15067 5.29305C3.0532 5.13399 2.98137 4.96058 2.93782 4.77918C2.88845 4.57354 2.88855 4.3603 2.88869 4.07808C2.88869 4.06318 2.8887 4.04809 2.8887 4.03279V2.64978C2.8887 2.64442 2.8887 2.63908 2.8887 2.63375C2.88869 2.46082 2.88868 2.3052 2.89926 2.17573C2.91059 2.03707 2.93623 1.88975 3.0098 1.74535C3.11633 1.53628 3.28631 1.3663 3.49538 1.25978C3.63978 1.1862 3.7871 1.16056 3.92575 1.14923C4.05523 1.13865 4.21084 1.13866 4.38377 1.13867ZM3.90238 2.05037C3.90007 2.0512 3.8991 2.05169 3.89892 2.05178C3.85711 2.07309 3.82311 2.10708 3.80181 2.1489C3.80172 2.14908 3.80123 2.15005 3.8004 2.15236C3.79954 2.15476 3.79811 2.15921 3.79641 2.16645C3.79283 2.18166 3.78858 2.20671 3.7852 2.24811C3.77793 2.33698 3.77759 2.45577 3.77759 2.64978V4.03279C3.77759 4.38007 3.78045 4.48127 3.80215 4.57167C3.82392 4.66237 3.85984 4.74908 3.90858 4.82861C3.95715 4.90788 4.02669 4.98146 4.27225 5.22702L6.23783 7.1926C6.36012 7.31487 6.47017 7.42491 6.55424 7.52394C6.64427 7.62999 6.73032 7.7523 6.7804 7.90643C6.85291 8.12959 6.85291 8.36998 6.7804 8.59314C6.73032 8.74727 6.64428 8.86957 6.55424 8.97563C6.47017 9.07466 6.36013 9.18469 6.23785 9.30696L4.27225 11.2725C4.02669 11.5181 3.95715 11.5917 3.90858 11.671C3.85984 11.7505 3.82392 11.8372 3.80215 11.9279C3.78045 12.0183 3.77759 12.1195 3.77759 12.4668V13.8498C3.77759 14.0438 3.77793 14.1626 3.7852 14.2515C3.78858 14.2929 3.79283 14.3179 3.79641 14.3331C3.79811 14.3404 3.79954 14.3448 3.8004 14.3472C3.80123 14.3495 3.80172 14.3505 3.80181 14.3507C3.82311 14.3925 3.85711 14.4265 3.89892 14.4478C3.8991 14.4479 3.90007 14.4484 3.90238 14.4492C3.90479 14.4501 3.90924 14.4515 3.91648 14.4532C3.93169 14.4568 3.95674 14.461 3.99814 14.4644C4.08701 14.4717 4.20579 14.472 4.39981 14.472H11.5998C11.7938 14.472 11.9126 14.4717 12.0015 14.4644C12.0429 14.461 12.0679 14.4568 12.0831 14.4532C12.0904 14.4515 12.0948 14.4501 12.0972 14.4492C12.0995 14.4484 12.1005 14.4479 12.1007 14.4478C12.1425 14.4265 12.1765 14.3925 12.1978 14.3507C12.1979 14.3505 12.1984 14.3495 12.1992 14.3472C12.2001 14.3448 12.2015 14.3404 12.2032 14.3331C12.2068 14.3179 12.211 14.2929 12.2144 14.2515C12.2217 14.1626 12.222 14.0438 12.222 13.8498V12.4668C12.222 12.1195 12.2192 12.0183 12.1975 11.9279C12.1757 11.8372 12.1398 11.7505 12.091 11.671C12.0425 11.5917 11.9729 11.5181 11.7274 11.2725L9.76178 9.30696C9.63949 9.18469 9.52945 9.07466 9.44538 8.97563C9.35535 8.86957 9.2693 8.74727 9.21922 8.59314C9.14671 8.36998 9.14671 8.12959 9.21922 7.90643C9.2693 7.7523 9.35535 7.62999 9.44538 7.52394C9.52946 7.4249 9.63951 7.31487 9.7618 7.19259L11.7274 5.22702C11.9729 4.98146 12.0425 4.90788 12.091 4.82861C12.1398 4.74908 12.1757 4.66237 12.1975 4.57167C12.2192 4.48127 12.222 4.38007 12.222 4.0328V2.64978C12.222 2.45577 12.2217 2.33698 12.2144 2.24811C12.211 2.20671 12.2068 2.18166 12.2032 2.16645C12.2015 2.15921 12.2001 2.15476 12.1992 2.15236C12.1984 2.15005 12.1979 2.14908 12.1978 2.1489C12.1765 2.10708 12.1425 2.07309 12.1007 2.05178C12.1005 2.05169 12.0995 2.0512 12.0972 2.05037C12.0948 2.04951 12.0904 2.04809 12.0831 2.04638C12.0679 2.0428 12.0429 2.03855 12.0015 2.03517C11.9126 2.02791 11.7938 2.02756 11.5998 2.02756H4.39981C4.20579 2.02756 4.08701 2.02791 3.99814 2.03517C3.95674 2.03855 3.93169 2.0428 3.91648 2.04638C3.90924 2.04809 3.90479 2.04951 3.90238 2.05037ZM5.55537 12.5831C5.55537 12.3377 5.75435 12.1387 5.99981 12.1387H9.99981C10.2453 12.1387 10.4443 12.3377 10.4443 12.5831C10.4443 12.8286 10.2453 13.0276 9.99981 13.0276H5.99981C5.75435 13.0276 5.55537 12.8286 5.55537 12.5831Z" fill="#current"/>
</svg>
