<svg width="22" height="18" viewBox="0 0 22 18" fill="none" xmlns="http://www.w3.org/2000/svg">
<path d="M1 9H4.88197C5.56717 9 6.19357 9.38713 6.5 10C6.80643 10.6129 7.43283 11 8.11803 11H13.882C14.5672 11 15.1936 10.6129 15.5 10C15.8064 9.38713 16.4328 9 17.118 9H21M1 9V5.8C1 4.11984 1 3.27976 1.32698 2.63803C1.6146 2.07354 2.07354 1.6146 2.63803 1.32698C3.27976 1 4.11984 1 5.8 1H16.2C17.8802 1 18.7202 1 19.362 1.32698C19.9265 1.6146 20.3854 2.07354 20.673 2.63803C21 3.27976 21 4.11984 21 5.8V9M1 9V12.2C1 13.8802 1 14.7202 1.32698 15.362C1.6146 15.9265 2.07354 16.3854 2.63803 16.673C3.27976 17 4.11984 17 5.8 17H16.2C17.8802 17 18.7202 17 19.362 16.673C19.9265 16.3854 20.3854 15.9265 20.673 15.362C21 14.7202 21 13.8802 21 12.2V9" stroke="#65838A" stroke-width="2" stroke-linecap="round" stroke-linejoin="round"/>
</svg>
