<svg width="32" height="32" viewBox="0 0 32 32" fill="none" xmlns="http://www.w3.org/2000/svg">
<path fill-rule="evenodd" clip-rule="evenodd" d="M16 10C14.3431 10 13 11.3431 13 13C13 14.6569 14.3431 16 16 16C17.6569 16 19 14.6569 19 13C19 11.3431 17.6569 10 16 10ZM11 13C11 10.2386 13.2386 8 16 8C18.7614 8 21 10.2386 21 13C21 15.7614 18.7614 18 16 18C13.2386 18 11 15.7614 11 13Z" fill="current" stroke="transparent"/>
<path fill-rule="evenodd" clip-rule="evenodd" d="M10.6739 24.2388C10.6738 24.2389 10.674 24.2387 10.6739 24.2388L10.6752 24.2376L10.6914 24.2233C10.7072 24.2094 10.7329 24.1872 10.7679 24.1577C10.8379 24.0988 10.945 24.0113 11.0848 23.9048C11.3652 23.6912 11.7727 23.4044 12.2734 23.1179C13.2895 22.5365 14.613 22 16 22C17.387 22 18.7105 22.5365 19.7266 23.1179C20.2273 23.4044 20.6349 23.6912 20.9152 23.9048C21.055 24.0113 21.1621 24.0988 21.2321 24.1577C21.2671 24.1872 21.2928 24.2094 21.3086 24.2233L21.3248 24.2376L21.3257 24.2385C21.3256 24.2383 21.3258 24.2386 21.3257 24.2385L21.3269 24.2396C21.3269 24.2395 21.327 24.2396 21.3269 24.2396C21.7348 24.6106 22.3665 24.5817 22.7385 24.1743C23.1109 23.7665 23.0821 23.1339 22.6743 22.7615L22 23.5C22.6743 22.7615 22.6745 22.7618 22.6743 22.7615L22.6733 22.7606L22.6721 22.7595L22.6688 22.7566L22.6593 22.748L22.6283 22.7206C22.6024 22.6978 22.5661 22.6664 22.5199 22.6274C22.4274 22.5497 22.2951 22.4418 22.1273 22.3139C21.7923 22.0588 21.3115 21.7206 20.72 21.3821C19.5516 20.7135 17.8752 20 16 20C14.1248 20 12.4484 20.7135 11.28 21.3821C10.6885 21.7206 10.2077 22.0588 9.87276 22.3139C9.7049 22.4418 9.57258 22.5497 9.48015 22.6274C9.43391 22.6664 9.39757 22.6978 9.37167 22.7206L9.34068 22.748L9.33117 22.7566L9.32793 22.7595L9.32669 22.7606C9.32645 22.7609 9.32571 22.7615 9.99983 23.4998L9.32571 22.7615C8.91787 23.1339 8.88914 23.7665 9.26155 24.1743C9.63383 24.582 10.2661 24.6108 10.6739 24.2388Z" fill="current" stroke="transparent"/>
<path fill-rule="evenodd" clip-rule="evenodd" d="M24 2H8C4.68629 2 2 4.68629 2 8V24C2 27.3137 4.68629 30 8 30H24C27.3137 30 30 27.3137 30 24V8C30 4.68629 27.3137 2 24 2ZM8 0C3.58172 0 0 3.58172 0 8V24C0 28.4183 3.58172 32 8 32H24C28.4183 32 32 28.4183 32 24V8C32 3.58172 28.4183 0 24 0H8Z" fill="current" stroke="transparent"/>
</svg>
