<svg width="16" height="16" viewBox="0 0 16 16" fill="none" xmlns="http://www.w3.org/2000/svg">
<g clip-path="url(#clip0_2009_67239)">
<circle cx="8" cy="8" r="7" fill="#FF9800" fill-opacity="0.2" stroke="#FF9800" stroke-width="1.5"/>
<path fill-rule="evenodd" clip-rule="evenodd" d="M5.87959 10.7848C5.04015 10.1446 4.5 9.13546 4.5 8C4.5 6.1387 5.95292 4.61674 7.78649 4.50641L7.64645 4.64645C7.45118 4.84171 7.45118 5.15829 7.64645 5.35355C7.84171 5.54882 8.15829 5.54882 8.35355 5.35355L9.35355 4.35355C9.54882 4.15829 9.54882 3.84171 9.35355 3.64645L8.35355 2.64645C8.15829 2.45119 7.84171 2.45119 7.64645 2.64645C7.45118 2.84171 7.45118 3.15829 7.64645 3.35355L7.79737 3.50448C5.40613 3.61045 3.5 5.58262 3.5 8C3.5 9.46056 4.19637 10.7587 5.27313 11.58C5.4927 11.7474 5.80645 11.7052 5.97392 11.4856C6.14139 11.2661 6.09916 10.9523 5.87959 10.7848ZM8.20263 12.4955L8.35355 12.6464C8.54882 12.8417 8.54882 13.1583 8.35355 13.3536C8.15829 13.5488 7.84171 13.5488 7.64645 13.3536L6.64645 12.3536C6.45118 12.1583 6.45118 11.8417 6.64645 11.6464L7.64645 10.6464C7.84171 10.4512 8.15829 10.4512 8.35355 10.6464C8.54882 10.8417 8.54882 11.1583 8.35355 11.3536L8.21351 11.4936C10.0471 11.3833 11.5 9.8613 11.5 8C11.5 6.89493 10.9884 5.90968 10.1873 5.26744C9.97181 5.09472 9.93716 4.78004 10.1099 4.56458C10.2826 4.34912 10.5973 4.31447 10.8127 4.48719C11.8405 5.31107 12.5 6.57868 12.5 8C12.5 10.4174 10.5939 12.3896 8.20263 12.4955Z" fill="#FF9800"/>
<path d="M5.87959 10.7848L6.03121 10.5861L6.03121 10.5861L5.87959 10.7848ZM7.78649 4.50641L7.96326 4.68318L8.42917 4.21728L7.77147 4.25686L7.78649 4.50641ZM7.64645 4.64645L7.82322 4.82322L7.82322 4.82322L7.64645 4.64645ZM7.64645 5.35355L7.82322 5.17678L7.82322 5.17678L7.64645 5.35355ZM8.35355 5.35355L8.17678 5.17678L8.35355 5.35355ZM9.35355 4.35355L9.17678 4.17678L9.17678 4.17678L9.35355 4.35355ZM9.35355 3.64645L9.17678 3.82322L9.17678 3.82322L9.35355 3.64645ZM7.64645 2.64645L7.82322 2.82322L7.82322 2.82322L7.64645 2.64645ZM7.79737 3.50448L7.80844 3.75424L8.37555 3.72911L7.97415 3.3277L7.79737 3.50448ZM5.27313 11.58L5.12152 11.7787L5.12152 11.7787L5.27313 11.58ZM5.97392 11.4856L6.1727 11.6373L5.97392 11.4856ZM8.35355 12.6464L8.53033 12.4697L8.53033 12.4697L8.35355 12.6464ZM8.20263 12.4955L8.19156 12.2458L7.62445 12.2709L8.02585 12.6723L8.20263 12.4955ZM8.35355 13.3536L8.53033 13.5303L8.53033 13.5303L8.35355 13.3536ZM7.64645 13.3536L7.82322 13.1768L7.82322 13.1768L7.64645 13.3536ZM6.64645 12.3536L6.82322 12.1768L6.64645 12.3536ZM6.64645 11.6464L6.46967 11.4697L6.64645 11.6464ZM7.64645 10.6464L7.82322 10.8232L7.64645 10.6464ZM8.35355 10.6464L8.17678 10.8232L8.35355 10.6464ZM8.35355 11.3536L8.53033 11.5303L8.53033 11.5303L8.35355 11.3536ZM8.21351 11.4936L8.03673 11.3168L7.57083 11.7827L8.22853 11.7431L8.21351 11.4936ZM10.1873 5.26744L10.3436 5.07238L10.3436 5.07238L10.1873 5.26744ZM10.1099 4.56458L9.91481 4.40821L9.91481 4.40821L10.1099 4.56458ZM10.8127 4.48719L10.6564 4.68225L10.6564 4.68225L10.8127 4.48719ZM4.25 8C4.25 9.2167 4.82917 10.2981 5.72798 10.9836L6.03121 10.5861C5.25113 9.99107 4.75 9.05422 4.75 8L4.25 8ZM7.77147 4.25686C5.8067 4.37509 4.25 6.00566 4.25 8L4.75 8C4.75 6.27174 6.09913 4.8584 7.8015 4.75596L7.77147 4.25686ZM7.60971 4.32963L7.46967 4.46967L7.82322 4.82322L7.96326 4.68318L7.60971 4.32963ZM7.46967 4.46967C7.17678 4.76256 7.17678 5.23744 7.46967 5.53033L7.82322 5.17678C7.72559 5.07915 7.72559 4.92086 7.82322 4.82322L7.46967 4.46967ZM7.46967 5.53033C7.76256 5.82322 8.23744 5.82322 8.53033 5.53033L8.17678 5.17678C8.07915 5.27441 7.92085 5.27441 7.82322 5.17678L7.46967 5.53033ZM8.53033 5.53033L9.53033 4.53033L9.17678 4.17678L8.17678 5.17678L8.53033 5.53033ZM9.53033 4.53033C9.82322 4.23744 9.82322 3.76256 9.53033 3.46967L9.17678 3.82322C9.27441 3.92086 9.27441 4.07915 9.17678 4.17678L9.53033 4.53033ZM9.53033 3.46967L8.53033 2.46967L8.17678 2.82322L9.17678 3.82322L9.53033 3.46967ZM8.53033 2.46967C8.23744 2.17678 7.76256 2.17678 7.46967 2.46967L7.82322 2.82322C7.92085 2.72559 8.07915 2.72559 8.17678 2.82322L8.53033 2.46967ZM7.46967 2.46967C7.17678 2.76256 7.17678 3.23744 7.46967 3.53033L7.82322 3.17678C7.72559 3.07915 7.72559 2.92086 7.82322 2.82322L7.46967 2.46967ZM7.46967 3.53033L7.6206 3.68126L7.97415 3.3277L7.82322 3.17678L7.46967 3.53033ZM3.75 8C3.75 5.71699 5.55023 3.85431 7.80844 3.75424L7.78631 3.25473C5.26202 3.36659 3.25 5.44826 3.25 8L3.75 8ZM5.42475 11.3812C4.40729 10.6051 3.75 9.37926 3.75 8L3.25 8C3.25 9.54187 3.98545 10.9122 5.12152 11.7787L5.42475 11.3812ZM5.77514 11.334C5.69141 11.4438 5.53453 11.4649 5.42475 11.3812L5.12152 11.7787C5.45086 12.0299 5.92149 11.9666 6.1727 11.6373L5.77514 11.334ZM5.72798 10.9836C5.83776 11.0674 5.85888 11.2242 5.77514 11.334L6.1727 11.6373C6.4239 11.3079 6.36056 10.8373 6.03121 10.5861L5.72798 10.9836ZM8.53033 12.4697L8.3794 12.3187L8.02585 12.6723L8.17678 12.8232L8.53033 12.4697ZM8.53033 13.5303C8.82322 13.2374 8.82322 12.7626 8.53033 12.4697L8.17678 12.8232C8.27441 12.9209 8.27441 13.0791 8.17678 13.1768L8.53033 13.5303ZM7.46967 13.5303C7.76256 13.8232 8.23744 13.8232 8.53033 13.5303L8.17678 13.1768C8.07915 13.2744 7.92085 13.2744 7.82322 13.1768L7.46967 13.5303ZM6.46967 12.5303L7.46967 13.5303L7.82322 13.1768L6.82322 12.1768L6.46967 12.5303ZM6.46967 11.4697C6.17678 11.7626 6.17678 12.2374 6.46967 12.5303L6.82322 12.1768C6.72559 12.0791 6.72559 11.9209 6.82322 11.8232L6.46967 11.4697ZM7.46967 10.4697L6.46967 11.4697L6.82322 11.8232L7.82322 10.8232L7.46967 10.4697ZM8.53033 10.4697C8.23744 10.1768 7.76256 10.1768 7.46967 10.4697L7.82322 10.8232C7.92085 10.7256 8.07915 10.7256 8.17678 10.8232L8.53033 10.4697ZM8.53033 11.5303C8.82322 11.2374 8.82322 10.7626 8.53033 10.4697L8.17678 10.8232C8.27441 10.9209 8.27441 11.0791 8.17678 11.1768L8.53033 11.5303ZM8.39029 11.6704L8.53033 11.5303L8.17678 11.1768L8.03673 11.3168L8.39029 11.6704ZM8.22853 11.7431C10.1933 11.6249 11.75 9.99434 11.75 8L11.25 8C11.25 9.72826 9.90086 11.1416 8.19849 11.244L8.22853 11.7431ZM11.75 8C11.75 6.81591 11.2015 5.76005 10.3436 5.07238L10.0309 5.4625C10.7754 6.05932 11.25 6.97396 11.25 8L11.75 8ZM10.3436 5.07238C10.2359 4.98602 10.2186 4.82868 10.3049 4.72095L9.91481 4.40821C9.65574 4.7314 9.70771 5.20342 10.0309 5.4625L10.3436 5.07238ZM10.3049 4.72095C10.3913 4.61322 10.5486 4.59589 10.6564 4.68225L10.9691 4.29213C10.6459 4.03305 10.1739 4.08502 9.91481 4.40821L10.3049 4.72095ZM10.6564 4.68225C11.6275 5.46074 12.25 6.65777 12.25 8L12.75 8C12.75 6.49959 12.0535 5.16139 10.9691 4.29213L10.6564 4.68225ZM12.25 8C12.25 10.283 10.4498 12.1457 8.19156 12.2458L8.21369 12.7453C10.738 12.6334 12.75 10.5517 12.75 8L12.25 8Z" fill="#FF9800"/>
</g>
<defs>
<clipPath id="clip0_2009_67239">
<rect width="16" height="16" fill="white"/>
</clipPath>
</defs>
</svg>
