<svg width="10" height="12" viewBox="0 0 10 12" fill="none" xmlns="http://www.w3.org/2000/svg">
<path fill-rule="evenodd" clip-rule="evenodd" d="M2.87959 8.78485C2.04015 8.14457 1.5 7.13546 1.5 6C1.5 4.1387 2.95292 2.61674 4.78649 2.50641L4.64645 2.64645C4.45118 2.84171 4.45118 3.15829 4.64645 3.35355C4.84171 3.54882 5.15829 3.54882 5.35355 3.35355L6.35355 2.35355C6.54882 2.15829 6.54882 1.84171 6.35355 1.64645L5.35355 0.646448C5.15829 0.451186 4.84171 0.451186 4.64645 0.646448C4.45118 0.84171 4.45118 1.15829 4.64645 1.35355L4.79737 1.50448C2.40613 1.61045 0.5 3.58262 0.5 6C0.5 7.46056 1.19637 8.75867 2.27313 9.57996C2.4927 9.74743 2.80645 9.7052 2.97392 9.48563C3.14139 9.26607 3.09916 8.95232 2.87959 8.78485ZM5.20263 10.4955L5.35355 10.6464C5.54882 10.8417 5.54882 11.1583 5.35355 11.3536C5.15829 11.5488 4.84171 11.5488 4.64645 11.3536L3.64645 10.3536C3.45118 10.1583 3.45118 9.84171 3.64645 9.64645L4.64645 8.64645C4.84171 8.45118 5.15829 8.45118 5.35355 8.64645C5.54882 8.84171 5.54882 9.15829 5.35355 9.35355L5.21351 9.49359C7.04708 9.38326 8.5 7.8613 8.5 6C8.5 4.89493 7.98844 3.90968 7.18726 3.26744C6.97181 3.09472 6.93716 2.78004 7.10988 2.56458C7.28259 2.34912 7.59728 2.31447 7.81273 2.48719C8.84048 3.31107 9.5 4.57868 9.5 6C9.5 8.41738 7.59387 10.3896 5.20263 10.4955Z" fill="#FF9800"/>
<path d="M2.87959 8.78485L3.03121 8.58607L3.03121 8.58607L2.87959 8.78485ZM4.78649 2.50641L4.96326 2.68318L5.42917 2.21728L4.77147 2.25686L4.78649 2.50641ZM4.64645 2.64645L4.82322 2.82322L4.82322 2.82322L4.64645 2.64645ZM4.64645 3.35355L4.82322 3.17678L4.82322 3.17678L4.64645 3.35355ZM5.35355 3.35355L5.17678 3.17678L5.35355 3.35355ZM6.35355 2.35355L6.17678 2.17678L6.17678 2.17678L6.35355 2.35355ZM6.35355 1.64645L6.17678 1.82322L6.17678 1.82322L6.35355 1.64645ZM4.64645 0.646448L4.82322 0.823225L4.82322 0.823225L4.64645 0.646448ZM4.79737 1.50448L4.80844 1.75424L5.37555 1.72911L4.97415 1.3277L4.79737 1.50448ZM2.27313 9.57996L2.12152 9.77874L2.12152 9.77874L2.27313 9.57996ZM2.97392 9.48563L3.1727 9.63725L2.97392 9.48563ZM5.35355 10.6464L5.53033 10.4697L5.53033 10.4697L5.35355 10.6464ZM5.20263 10.4955L5.19156 10.2458L4.62445 10.2709L5.02585 10.6723L5.20263 10.4955ZM5.35355 11.3536L5.53033 11.5303L5.53033 11.5303L5.35355 11.3536ZM4.64645 11.3536L4.82322 11.1768L4.82322 11.1768L4.64645 11.3536ZM3.64645 10.3536L3.82322 10.1768L3.64645 10.3536ZM3.64645 9.64645L3.46967 9.46967L3.64645 9.64645ZM4.64645 8.64645L4.82322 8.82322L4.64645 8.64645ZM5.35355 8.64645L5.17678 8.82322L5.35355 8.64645ZM5.35355 9.35355L5.53033 9.53033L5.53033 9.53033L5.35355 9.35355ZM5.21351 9.49359L5.03673 9.31682L4.57083 9.78272L5.22853 9.74314L5.21351 9.49359ZM7.18726 3.26744L7.34363 3.07238L7.34363 3.07238L7.18726 3.26744ZM7.10988 2.56458L6.91481 2.40821L6.91481 2.40821L7.10988 2.56458ZM7.81273 2.48719L7.65637 2.68225L7.65637 2.68225L7.81273 2.48719ZM1.25 6C1.25 7.2167 1.82917 8.29807 2.72798 8.98362L3.03121 8.58607C2.25113 7.99107 1.75 7.05422 1.75 6L1.25 6ZM4.77147 2.25686C2.8067 2.37509 1.25 4.00566 1.25 6L1.75 6C1.75 4.27174 3.09913 2.8584 4.8015 2.75596L4.77147 2.25686ZM4.60971 2.32963L4.46967 2.46967L4.82322 2.82322L4.96326 2.68318L4.60971 2.32963ZM4.46967 2.46967C4.17678 2.76256 4.17678 3.23744 4.46967 3.53033L4.82322 3.17678C4.72559 3.07915 4.72559 2.92086 4.82322 2.82322L4.46967 2.46967ZM4.46967 3.53033C4.76256 3.82322 5.23744 3.82322 5.53033 3.53033L5.17678 3.17678C5.07915 3.27441 4.92085 3.27441 4.82322 3.17678L4.46967 3.53033ZM5.53033 3.53033L6.53033 2.53033L6.17678 2.17678L5.17678 3.17678L5.53033 3.53033ZM6.53033 2.53033C6.82322 2.23744 6.82322 1.76256 6.53033 1.46967L6.17678 1.82322C6.27441 1.92086 6.27441 2.07915 6.17678 2.17678L6.53033 2.53033ZM6.53033 1.46967L5.53033 0.469671L5.17678 0.823225L6.17678 1.82322L6.53033 1.46967ZM5.53033 0.469671C5.23744 0.176779 4.76256 0.176779 4.46967 0.469671L4.82322 0.823225C4.92085 0.725593 5.07915 0.725593 5.17678 0.823225L5.53033 0.469671ZM4.46967 0.469671C4.17678 0.762564 4.17678 1.23744 4.46967 1.53033L4.82322 1.17678C4.72559 1.07915 4.72559 0.920855 4.82322 0.823225L4.46967 0.469671ZM4.46967 1.53033L4.6206 1.68126L4.97415 1.3277L4.82322 1.17678L4.46967 1.53033ZM0.75 6C0.75 3.71699 2.55023 1.85431 4.80844 1.75424L4.78631 1.25473C2.26202 1.36659 0.25 3.44826 0.25 6L0.75 6ZM2.42475 9.38118C1.40729 8.60513 0.75 7.37926 0.75 6L0.25 6C0.25 7.54187 0.985453 8.91221 2.12152 9.77874L2.42475 9.38118ZM2.77514 9.33402C2.69141 9.4438 2.53453 9.46492 2.42475 9.38118L2.12152 9.77874C2.45086 10.0299 2.92149 9.9666 3.1727 9.63725L2.77514 9.33402ZM2.72798 8.98362C2.83776 9.06736 2.85888 9.22424 2.77514 9.33402L3.1727 9.63725C3.4239 9.3079 3.36056 8.83727 3.03121 8.58607L2.72798 8.98362ZM5.53033 10.4697L5.3794 10.3187L5.02585 10.6723L5.17678 10.8232L5.53033 10.4697ZM5.53033 11.5303C5.82322 11.2374 5.82322 10.7626 5.53033 10.4697L5.17678 10.8232C5.27441 10.9209 5.27441 11.0791 5.17678 11.1768L5.53033 11.5303ZM4.46967 11.5303C4.76256 11.8232 5.23744 11.8232 5.53033 11.5303L5.17678 11.1768C5.07915 11.2744 4.92085 11.2744 4.82322 11.1768L4.46967 11.5303ZM3.46967 10.5303L4.46967 11.5303L4.82322 11.1768L3.82322 10.1768L3.46967 10.5303ZM3.46967 9.46967C3.17678 9.76256 3.17678 10.2374 3.46967 10.5303L3.82322 10.1768C3.72559 10.0791 3.72559 9.92085 3.82322 9.82322L3.46967 9.46967ZM4.46967 8.46967L3.46967 9.46967L3.82322 9.82322L4.82322 8.82322L4.46967 8.46967ZM5.53033 8.46967C5.23744 8.17678 4.76256 8.17678 4.46967 8.46967L4.82322 8.82322C4.92085 8.72559 5.07915 8.72559 5.17678 8.82322L5.53033 8.46967ZM5.53033 9.53033C5.82322 9.23744 5.82322 8.76256 5.53033 8.46967L5.17678 8.82322C5.27441 8.92085 5.27441 9.07915 5.17678 9.17678L5.53033 9.53033ZM5.39029 9.67037L5.53033 9.53033L5.17678 9.17678L5.03673 9.31682L5.39029 9.67037ZM5.22853 9.74314C7.1933 9.62491 8.75 7.99434 8.75 6L8.25 6C8.25 7.72826 6.90086 9.1416 5.19849 9.24405L5.22853 9.74314ZM8.75 6C8.75 4.81591 8.20148 3.76005 7.34363 3.07238L7.0309 3.4625C7.7754 4.05932 8.25 4.97396 8.25 6L8.75 6ZM7.34363 3.07238C7.2359 2.98602 7.21858 2.82868 7.30494 2.72095L6.91481 2.40821C6.65574 2.7314 6.70771 3.20342 7.0309 3.4625L7.34363 3.07238ZM7.30494 2.72095C7.3913 2.61322 7.54864 2.59589 7.65637 2.68225L7.9691 2.29213C7.64591 2.03305 7.17389 2.08502 6.91481 2.40821L7.30494 2.72095ZM7.65637 2.68225C8.6275 3.46074 9.25 4.65777 9.25 6L9.75 6C9.75 4.49959 9.05347 3.16139 7.9691 2.29213L7.65637 2.68225ZM9.25 6C9.25 8.28301 7.44977 10.1457 5.19156 10.2458L5.21369 10.7453C7.73798 10.6334 9.75 8.55174 9.75 6L9.25 6Z" fill="#FF9800"/>
</svg>
