<svg viewBox="0 0 302 418" xmlns="http://www.w3.org/2000/svg"><path d="M160.983 316.622a15.561 15.561 0 0 1 4.293 10.508c0 5.285-2.82 10.172-7.398 12.816a14.82 14.82 0 0 1-14.801 0 14.805 14.805 0 0 1-7.399-12.816 14.799 14.799 0 0 1 25.305-10.508Zm.102-180.96a59.238 59.238 0 0 0-48.531 12.809 59.237 59.237 0 0 0-21.273 45.465 14.8 14.8 0 0 0 29.598 0 29.64 29.64 0 0 1 35.09-29.11 29.611 29.611 0 0 1 5.796 56.481 43.186 43.186 0 0 0-19.191 16.238 43.19 43.19 0 0 0-6.894 24.172v21.016c0 5.285 2.82 10.172 7.398 12.816a14.815 14.815 0 0 0 14.801 0 14.803 14.803 0 0 0 7.399-12.816v-21.016a13.912 13.912 0 0 1 7.804-13.066 59.08 59.08 0 0 0 29.41-26.34 59.046 59.046 0 0 0 6.254-38.984 59.702 59.702 0 0 0-47.66-47.664Zm137.39-30.523v266.39a44.447 44.447 0 0 1-44.399 44.399H46.886a44.447 44.447 0 0 1-44.399-44.399V45.939a44.435 44.435 0 0 1 13.02-31.379A44.442 44.442 0 0 1 46.886 1.54h147.99a14.9 14.9 0 0 1 10.484 4.355l88.758 88.758a14.883 14.883 0 0 1 4.355 10.484Zm-88.797-14.801h38.27l-38.27-38.27Zm59.199 29.598h-74a14.809 14.809 0 0 1-10.465-4.332 14.808 14.808 0 0 1-4.332-10.465V31.143H46.88a14.806 14.806 0 0 0-14.801 14.796v325.59A14.812 14.812 0 0 0 46.88 386.33h207.19c3.926 0 7.687-1.562 10.461-4.336a14.816 14.816 0 0 0 4.34-10.465Z"/></svg>