<?xml version="1.0" encoding="utf-8"?>
<svg width="41" height="40" viewBox="0 0 41 40" fill="none" xmlns="http://www.w3.org/2000/svg">
  <path fill-rule="evenodd" clip-rule="evenodd" d="M 0.027 9.914 C 0.027 7.152 2.266 4.914 5.027 4.914 L 27.027 4.914 C 29.789 4.914 32.027 7.152 32.027 9.914 L 32.027 23.914 C 32.027 26.675 29.789 28.914 27.027 28.914 L 5.027 28.914 C 2.266 28.914 0.027 26.675 0.027 23.914 L 0.027 9.914 Z M 5.027 6.914 C 3.371 6.914 2.027 8.257 2.027 9.914 L 2.027 23.914 C 2.027 25.571 3.371 26.914 5.027 26.914 L 27.027 26.914 C 28.684 26.914 30.027 25.571 30.027 23.914 L 30.027 9.914 C 30.027 8.257 28.684 6.914 27.027 6.914 L 5.027 6.914 Z" fill="currentColor"/>
  <path fill-rule="evenodd" clip-rule="evenodd" d="M 10.027 12.914 C 7.818 12.914 6.027 14.705 6.027 16.914 C 6.027 19.123 7.818 20.914 10.027 20.914 C 12.237 20.914 14.027 19.123 14.027 16.914 C 14.027 14.705 12.237 12.914 10.027 12.914 Z M 4.027 16.914 C 4.027 13.6 6.714 10.914 10.027 10.914 C 13.341 10.914 16.027 13.6 16.027 16.914 C 16.027 20.227 13.341 22.914 10.027 22.914 C 6.714 22.914 4.027 20.227 4.027 16.914 Z" fill="currentColor"/>
  <path fill-rule="evenodd" clip-rule="evenodd" d="M 18.027 12.914 C 18.027 12.361 18.475 11.914 19.027 11.914 L 27.027 11.914 C 27.58 11.914 28.027 12.361 28.027 12.914 C 28.027 13.466 27.58 13.914 27.027 13.914 L 19.027 13.914 C 18.475 13.914 18.027 13.466 18.027 12.914 Z" fill="currentColor"/>
  <path fill-rule="evenodd" clip-rule="evenodd" d="M 18.027 16.914 C 18.027 16.361 18.475 15.914 19.027 15.914 L 27.027 15.914 C 27.58 15.914 28.027 16.361 28.027 16.914 C 28.027 17.466 27.58 17.914 27.027 17.914 L 19.027 17.914 C 18.475 17.914 18.027 17.466 18.027 16.914 Z" fill="currentColor"/>
  <path fill-rule="evenodd" clip-rule="evenodd" d="M 18.027 20.914 C 18.027 20.361 18.475 19.914 19.027 19.914 L 22.027 19.914 C 22.58 19.914 23.027 20.361 23.027 20.914 C 23.027 21.466 22.58 21.914 22.027 21.914 L 19.027 21.914 C 18.475 21.914 18.027 21.466 18.027 20.914 Z" fill="currentColor"/>
</svg>