<svg width="1364" height="707" viewBox="0 0 1364 707" fill="none" xmlns="http://www.w3.org/2000/svg">
<path d="M726.448 617.608C742.02 619.506 798.41 607.054 788.003 596L798.437 587.754C818.226 575.98 816.165 591.004 822.626 594.108C829.086 597.213 836.852 591.015 839.927 587.528C847.871 578.52 854.396 593.419 876.441 585.035C890.855 579.552 907.544 560.665 916.769 563.239C925.994 565.814 933.575 580.488 945.103 576.104C954.326 572.596 968.54 567.915 964.601 560.627C969.019 553.443 978.254 557.721 975.437 550.313C963.491 518.904 991.799 550.81 999.999 536.394C995.331 560.343 1012.13 534.582 1024.5 547.633C1032.14 555.702 1083.82 510.819 1087.57 512C1099.94 515.898 1113.07 496.754 1120 488.456C1138.76 465.989 1137.82 478.426 1158 470.751C1178.18 463.075 1194.18 448.357 1202.53 435.62C1210.89 422.883 1187.34 420.107 1149.61 423.995C1133.32 425.674 1115.27 433.553 1087.57 447.47C1069.88 458.638 1048.67 447.066 1031.77 462.088C1018.77 473.642 1023.69 438.048 989.958 440.45C972.554 439.345 1008.32 455.289 968.812 451.196C939.402 456.298 928.162 449.716 918.469 461.996C911.299 473.51 886.164 465.816 873.19 470.751C860.217 475.685 854.568 481.878 837.27 488.456C819.973 495.035 813.921 485.371 766.35 499.118C718.779 512.866 745.343 530.448 722.854 536.394C700.366 542.34 708.154 545.461 688.266 562.584C673.276 570.892 662.501 564.669 663.085 579.22C663.669 593.772 650.316 573.775 634.176 587.735C621.264 598.903 660.543 596.038 642.193 605.769C619.461 614.521 598.508 606.328 611.508 629.367C595.503 623.949 566.319 656.535 622.969 648.025C636.032 646.062 635.489 628.301 645.295 632.393C655.101 636.485 676.474 623.211 687.144 625.235C697.814 627.26 696.462 621.191 726.448 617.608Z" fill="#E2EDF0"/>
<path d="M474.697 486.296C506.028 487.362 548.158 438.762 587.708 426.723L617.93 408.188C650.033 389.104 661.249 418.307 675.507 422.087C689.766 425.868 701.506 416.106 705.594 410.753C716.155 396.924 736.95 417.689 775.286 403.247C800.353 393.804 829.112 405.69 848.461 408.411C867.81 411.131 883.562 395.188 903.61 387.635C919.648 381.594 987.931 370.328 976.306 360.25C980.996 349.427 1021.08 334.39 1007.72 325.698C994.35 317.006 948.144 337.97 956.264 316.323L982.311 282.201C993.343 267.75 1011.98 266.737 1019.91 268.036C1031.61 263.63 1052.08 251.628 1040.39 238.874C1025.77 222.932 1080.64 216.562 1115.73 203.341L1115.73 203.341C1150.83 190.121 1153.33 189.177 1162.67 169.931C1172 150.686 1154.04 153.163 1123.13 156.23C1092.21 159.296 1089.13 119.149 1042.78 142.169C1014.44 160.154 1031.01 127.277 1006.29 150.731C987.272 168.771 979.73 146.568 915.394 153.645C880.93 153.917 909.595 136.577 830.5 134.915C776.05 145.418 743.007 178.22 730.823 196.95C723.129 214.307 650.086 241.207 600.606 225.035C583.734 219.521 568.06 216.618 537.979 227.95C507.898 239.282 490.249 207.363 431.062 255.418C344.5 325.698 362.025 252.939 321.5 263.915C280.975 274.891 194.5 316.323 194.5 344.915C184.5 375.915 300.248 347.535 309.294 368.435C318.34 389.336 149.317 400.246 125.5 422.087C106.446 439.561 141.663 461.444 153.5 458.415C154.241 474.945 290.838 446.884 250.505 473.517C191.317 497.244 261.641 489.341 272.919 497.962C284.196 506.583 294.781 499.736 316.085 504.579C337.389 509.423 346.301 511.786 368.163 513.559C390.024 515.332 418.298 494.672 474.697 486.296Z" fill="#F1F7F9"/>
<path d="M995.857 250.57C959.106 243.119 910.55 315.048 861.902 323.457L823.155 342.306C782.099 361.525 773.8 320.499 757.631 312.722C741.461 304.946 725.977 315.677 720.256 322.015C705.478 338.387 684.465 306.747 636.844 318.587C605.706 326.329 569.846 367.733 547.497 360.387C525.148 353.041 595.227 320.877 570.323 327.069C550.4 332.022 463.373 320.279 475.378 335.931C468.025 349.432 412.365 350.201 421.826 365.834C461.937 432.116 371.597 389.382 358.378 416.63C352.659 422.967 349.399 396.369 333.96 413.479C318.521 430.588 281.958 450.185 272.822 446.927C242.671 436.176 169.923 436.726 181.557 455.951C196.1 479.983 164.43 479.201 120.835 490.04L120.835 490.04C77.24 500.879 74.1265 501.653 59.8803 525.47C45.6341 549.287 67.2263 549.449 104.183 551.319C141.139 553.19 178.237 568.861 236.745 547.146C273.182 528.666 287.725 552.698 320.82 526.242C346.275 505.894 350.579 528.059 427.606 531.026C468.275 537.299 379.26 496.762 472.21 514.202C538.161 510.707 566.764 526.624 584.282 504.041C596.276 482.422 651.868 487.237 679.893 480.269L798.222 450.849C835.589 441.559 818.285 436.645 922.778 419.881C1027.27 403.117 957.236 405.784 1006.85 398.977C1056.47 392.171 1037.23 384.053 1076.39 354.042C1107.73 340.719 1124.3 348.592 1117.16 319.033C1110.02 289.474 1184.2 330.923 1215.95 306.439C1241.36 286.852 1218.78 285.46 1204.32 287.213C1185.01 280.955 1228.22 286.596 1280.25 258.914C1354.02 238.73 1308.14 212.567 1180.58 216.635C1151.16 217.573 1168.3 232.463 1144 221.915C1119.7 211.367 1128.47 239.484 1103 232.915C1077.53 226.346 1063.75 250.279 995.857 250.57Z" fill="#E2EDF0"/>
</svg>
