<svg width="228" height="142" viewBox="0 0 228 142" fill="none" xmlns="http://www.w3.org/2000/svg">
<rect x="1.5" y="1" width="225" height="140" rx="10.2857" stroke="currentColor" stroke-width="2"/>
<rect x="25.5" y="86.1992" width="91.9286" height="15.4128" rx="7.70642" stroke="currentColor" stroke-width="2"/>
<rect width="21.2143" height="0.642857" rx="0.321429" transform="matrix(1 0 0 -1 28.7129 116.381)" stroke="currentColor" stroke-width="2"/>
<rect width="21.2143" height="0.642857" rx="0.321429" transform="matrix(1 0 0 -1 60.2129 116.381)" stroke="currentColor" stroke-width="2"/>
<rect width="21.2143" height="0.642857" rx="0.321429" transform="matrix(1 0 0 -1 91.7129 116.381)" stroke="currentColor" stroke-width="2"/>
<path d="M39.0753 33.7468C39.4152 32.9209 40.5848 32.9209 40.9247 33.7468L44.1008 41.4635C44.2445 41.8128 44.5728 42.0513 44.9493 42.08L53.2698 42.716C54.1603 42.7841 54.5218 43.8965 53.8414 44.475L47.4837 49.8802C47.196 50.1248 47.0707 50.5107 47.1596 50.8777L49.1259 58.9875C49.3364 59.8555 48.3901 60.543 47.6297 60.0746L40.5244 55.6985C40.2029 55.5004 39.7971 55.5004 39.4756 55.6985L32.3703 60.0746C31.6099 60.543 30.6636 59.8555 30.8741 58.9875L32.8404 50.8777C32.9293 50.5107 32.804 50.1248 32.5163 49.8802L26.1586 44.475C25.4782 43.8965 25.8397 42.7841 26.7302 42.716L35.0507 42.08C35.4272 42.0513 35.7555 41.8128 35.8992 41.4635L39.0753 33.7468Z" stroke="currentColor" stroke-width="2"/>
<path d="M76.0753 31.7468C76.4152 30.9209 77.5848 30.9209 77.9247 31.7468L81.1008 39.4635C81.2445 39.8128 81.5728 40.0513 81.9493 40.08L90.2698 40.716C91.1603 40.7841 91.5218 41.8965 90.8414 42.475L84.4837 47.8802C84.196 48.1248 84.0707 48.5107 84.1596 48.8777L86.1259 56.9875C86.3364 57.8555 85.3901 58.543 84.6297 58.0746L77.5244 53.6985C77.2029 53.5004 76.7971 53.5004 76.4756 53.6985L69.3703 58.0746C68.6099 58.543 67.6636 57.8555 67.8741 56.9875L69.8404 48.8777C69.9293 48.5107 69.804 48.1248 69.5163 47.8802L63.1586 42.475C62.4782 41.8965 62.8397 40.7841 63.7302 40.716L72.0507 40.08C72.4272 40.0513 72.7555 39.8128 72.8992 39.4635L76.0753 31.7468Z" stroke="currentColor" stroke-width="2"/>
<path d="M113.075 31.7468C113.415 30.9209 114.585 30.9209 114.925 31.7468L118.101 39.4635C118.245 39.8128 118.573 40.0513 118.949 40.08L127.27 40.716C128.16 40.7841 128.522 41.8965 127.841 42.475L121.484 47.8802C121.196 48.1248 121.071 48.5107 121.16 48.8777L123.126 56.9875C123.336 57.8555 122.39 58.543 121.63 58.0746L114.524 53.6985C114.203 53.5004 113.797 53.5004 113.476 53.6985L106.37 58.0746C105.61 58.543 104.664 57.8555 104.874 56.9875L106.84 48.8777C106.929 48.5107 106.804 48.1248 106.516 47.8802L100.159 42.475C99.4782 41.8965 99.8397 40.7841 100.73 40.716L109.051 40.08C109.427 40.0513 109.755 39.8128 109.899 39.4635L113.075 31.7468Z" stroke="currentColor" stroke-width="2"/>
<path d="M150.075 31.7468C150.415 30.9209 151.585 30.9209 151.925 31.7468L155.101 39.4635C155.245 39.8128 155.573 40.0513 155.949 40.08L164.27 40.716C165.16 40.7841 165.522 41.8965 164.841 42.475L158.484 47.8802C158.196 48.1248 158.071 48.5107 158.16 48.8777L160.126 56.9875C160.336 57.8555 159.39 58.543 158.63 58.0746L151.524 53.6985C151.203 53.5004 150.797 53.5004 150.476 53.6985L143.37 58.0746C142.61 58.543 141.664 57.8555 141.874 56.9875L143.84 48.8777C143.929 48.5107 143.804 48.1248 143.516 47.8802L137.159 42.475C136.478 41.8965 136.84 40.7841 137.73 40.716L146.051 40.08C146.427 40.0513 146.755 39.8128 146.899 39.4635L150.075 31.7468Z" stroke="currentColor" stroke-width="2"/>
<path d="M187.075 31.7468C187.415 30.9209 188.585 30.9209 188.925 31.7468L192.101 39.4635C192.245 39.8128 192.573 40.0513 192.949 40.08L201.27 40.716C202.16 40.7841 202.522 41.8965 201.841 42.475L195.484 47.8802C195.196 48.1248 195.071 48.5107 195.16 48.8777L197.126 56.9875C197.336 57.8555 196.39 58.543 195.63 58.0746L188.524 53.6985C188.203 53.5004 187.797 53.5004 187.476 53.6985L180.37 58.0746C179.61 58.543 178.664 57.8555 178.874 56.9875L180.84 48.8777C180.929 48.5107 180.804 48.1248 180.516 47.8802L174.159 42.475C173.478 41.8965 173.84 40.7841 174.73 40.716L183.051 40.08C183.427 40.0513 183.755 39.8128 183.899 39.4635L187.075 31.7468Z" stroke="currentColor" stroke-width="2"/>
</svg>
