<svg width="24" height="24" viewBox="0 0 24 24" fill="none" xmlns="http://www.w3.org/2000/svg">
<path d="M17.669 8.09997C14.5379 5.03439 9.4615 5.03439 6.33039 8.09997L5.95359 8.4689C5.79704 8.6222 5.79704 8.8707 5.95359 9.02399L7.24263 10.2861C7.32093 10.3627 7.44783 10.3627 7.52612 10.2861L8.04467 9.77839C10.229 7.63974 13.7705 7.63974 15.9548 9.77839L16.5101 10.3221C16.5884 10.3987 16.7153 10.3987 16.7936 10.3221L18.0826 9.05999C18.2392 8.9067 18.2392 8.6582 18.0826 8.5049L17.669 8.09997ZM3.66452 10.7101L2.51723 11.8334C2.36069 11.9867 2.36069 12.2352 2.51723 12.3885L7.69032 17.4534C7.84687 17.6067 8.10072 17.6067 8.25727 17.4534L11.9288 13.8587C11.968 13.8203 12.0314 13.8203 12.0706 13.8587L15.742 17.4534C15.8986 17.6067 16.1524 17.6067 16.309 17.4534L21.4822 12.3884C21.6387 12.2351 21.6387 11.9866 21.4822 11.8333L20.3349 10.71C20.1784 10.5568 19.9245 10.5568 19.768 10.71L16.0964 14.3048C16.0573 14.3432 15.9938 14.3432 15.9547 14.3048L12.2833 10.71C12.1267 10.5568 11.8729 10.5568 11.7163 10.71L8.04472 14.3048C8.00557 14.3432 7.94212 14.3432 7.90297 14.3048L4.23146 10.7101C4.07487 10.5568 3.82107 10.5568 3.66452 10.7101Z" fill="#616161"/>
</svg>
