<svg width="931" height="435" viewBox="0 0 931 435" fill="none" xmlns="http://www.w3.org/2000/svg">
<g clip-path="url(#clip0_836_48377)">
<rect width="142.28" height="205.29" rx="10.8404" transform="matrix(0.959997 -0.28001 0.977271 0.211994 104.352 239.689)" fill="#486268" stroke="#0F252A" stroke-width="4"/>
<rect width="120.599" height="137.537" rx="5.4202" transform="matrix(0.959997 -0.28001 0.977271 0.211994 125.352 238.952)" fill="#486268" stroke="#0F252A" stroke-width="2"/>
<rect width="73.1726" height="9.48534" transform="matrix(0.959997 -0.28001 0.977271 0.211994 265.723 269.402)" fill="#0F252A"/>
<rect width="47.4267" height="9.48534" transform="matrix(0.959997 -0.28001 0.977271 0.211994 278.965 272.275)" fill="#0F252A"/>
<rect width="27.7785" height="2.7101" transform="matrix(0.959997 -0.28001 0.977271 0.211994 293.532 275.434)" fill="#0F252A"/>
<rect width="27.7785" height="2.7101" transform="matrix(0.959997 -0.28001 0.977271 0.211994 300.153 276.871)" fill="#0F252A"/>
<path fill-rule="evenodd" clip-rule="evenodd" d="M269.114 247.707C269.21 247.921 269.236 248.431 267.603 248.907C266.099 249.346 264.242 249.476 263.039 249.505C261.884 249.533 260.857 249.485 260.121 249.436C258.622 249.338 257.016 249.148 255.528 248.947C252.641 248.559 249.146 247.985 245.826 247.44C245.654 247.412 245.483 247.383 245.312 247.355C243.998 247.14 242.715 246.93 241.488 246.734C241.867 246.896 242.222 247.057 242.517 247.209C242.93 247.422 243.413 247.71 243.599 248.029C243.779 248.337 243.816 248.942 241.924 249.494C239.767 250.123 236.821 250.246 235.409 250.286C233.693 250.334 231.882 250.309 230.469 250.283C229.874 250.272 229.359 250.261 228.898 250.252C228.095 250.235 227.459 250.221 226.859 250.217C226.839 250.217 226.819 250.217 226.8 250.217C225.125 250.393 223.247 250.35 221.915 250.061C219.943 249.633 219.914 248.828 221.852 248.263C223.462 247.793 225.515 247.705 226.064 247.683C226.919 247.647 227.763 247.646 228.399 247.651C229.269 247.656 230.368 247.679 231.343 247.7C231.348 247.7 231.354 247.7 231.359 247.7C231.169 247.625 230.969 247.546 230.762 247.463C229.706 247.041 228.403 246.506 227.645 245.986C227.263 245.723 226.893 245.384 226.913 245.005C226.933 244.601 227.414 244.097 228.957 243.647C230.369 243.235 232.107 243.085 233.361 243.041C234.546 243 235.607 243.039 236.383 243.084C237.95 243.173 239.605 243.359 241.123 243.556C241.537 243.61 241.963 243.667 242.398 243.728C241.192 243.415 239.957 243.095 238.706 242.771C237.024 242.336 235.311 241.893 233.595 241.446C226.619 239.632 219.587 237.771 214.605 236.265C212.136 235.519 210.024 234.817 208.679 234.226C208.025 233.939 207.389 233.61 207.077 233.269C206.825 232.994 206.399 232.286 208.596 231.646C210.376 231.126 212.649 231.012 213.86 230.983C215.204 230.951 216.563 230.991 217.765 231.048C220.211 231.165 223.146 231.412 226.242 231.716C232.488 232.329 240.297 233.266 247.892 234.188C248.708 234.288 249.522 234.387 250.332 234.485C256.684 235.258 262.778 235.999 267.784 236.543C266.92 236.292 265.998 236.031 265.043 235.765C264.615 235.645 264.179 235.524 263.741 235.402C261.474 234.772 259.153 234.127 257.464 233.581C256.477 233.262 255.49 232.91 254.872 232.568C254.57 232.402 254.202 232.156 254.128 231.863C254.051 231.551 254.301 231.053 255.903 230.61C257.734 230.105 259.955 230.056 260.917 230.058C261.999 230.06 262.988 230.125 263.728 230.185C265.258 230.31 267 230.525 268.722 230.762C271.785 231.184 275.523 231.777 279.21 232.363C279.728 232.445 280.245 232.527 280.759 232.608C282.907 232.949 285.006 233.278 286.971 233.573C284.285 232.534 280.851 231.316 277.275 230.077C275.538 229.475 273.76 228.866 272.031 228.273C269.447 227.387 266.974 226.54 264.911 225.811C263.183 225.2 261.674 224.65 260.575 224.208C260.029 223.989 259.538 223.778 259.164 223.589C258.9 223.457 258.317 223.16 258.226 222.821C258.039 222.125 260.124 221.45 262.883 221.312C265.423 221.184 267.648 221.557 268.132 222.159C268.153 222.171 268.18 222.185 268.213 222.201C268.409 222.3 268.737 222.445 269.22 222.639C270.178 223.024 271.567 223.533 273.275 224.136C275.315 224.857 277.714 225.679 280.259 226.551C281.992 227.145 283.793 227.762 285.594 228.386C289.983 229.907 294.337 231.457 297.372 232.702C298.873 233.319 300.162 233.905 300.957 234.4C301.344 234.641 301.721 234.925 301.861 235.217C301.968 235.441 302.142 236.062 300.227 236.621C298.719 237.061 296.854 237.202 295.608 237.239C294.398 237.276 293.288 237.234 292.442 237.185C290.728 237.087 288.85 236.884 287.053 236.66C284.219 236.305 280.913 235.809 277.611 235.293C278.629 235.607 279.569 235.916 280.355 236.209C281.311 236.565 282.255 236.974 282.752 237.393C283.182 237.755 283.765 238.561 281.267 239.29C279.254 239.877 276.625 239.906 275.74 239.908C274.515 239.91 273.262 239.85 272.152 239.78C269.875 239.635 267.07 239.37 264.057 239.05C258.642 238.476 251.91 237.657 245.148 236.834C244.33 236.735 243.512 236.635 242.695 236.536C235.037 235.605 227.534 234.707 221.656 234.13C221.577 234.122 221.498 234.115 221.42 234.107C221.788 234.222 222.176 234.341 222.583 234.464C227.336 235.901 234.158 237.709 241.157 239.529C242.832 239.964 244.517 240.4 246.183 240.832C251.419 242.187 256.463 243.493 260.376 244.566C262.945 245.27 265.141 245.905 266.615 246.407C267.33 246.649 268.026 246.911 268.486 247.163C268.705 247.283 269.009 247.474 269.114 247.707ZM264.02 231.23C264.021 231.23 264.025 231.232 264.031 231.237C264.023 231.232 264.02 231.23 264.02 231.23ZM268.065 222.119C268.066 222.119 268.072 222.123 268.082 222.13C268.069 222.123 268.064 222.119 268.065 222.119ZM273.166 238.45C273.165 238.449 273.159 238.444 273.152 238.434C273.164 238.445 273.167 238.45 273.166 238.45ZM263.86 246.95C263.86 246.95 263.852 246.95 263.836 246.949C263.852 246.95 263.86 246.95 263.86 246.95ZM259.313 248.486C259.329 248.494 259.325 248.494 259.311 248.485C259.312 248.485 259.312 248.485 259.313 248.486ZM236.068 247.712C236.071 247.713 236.039 247.716 235.966 247.72C236.029 247.714 236.066 247.712 236.068 247.712ZM232.94 245.589C232.94 245.589 232.947 245.589 232.963 245.59C232.948 245.589 232.94 245.589 232.94 245.589Z" fill="#0F252A"/>
</g>
<g clip-path="url(#clip1_836_48377)">
<rect width="142.28" height="205.29" rx="10.8404" transform="matrix(0.959997 -0.28001 0.977271 0.211994 464.352 78.6895)" fill="#486268" stroke="#0F252A" stroke-width="4"/>
<rect width="120.599" height="137.537" rx="5.4202" transform="matrix(0.959997 -0.28001 0.977271 0.211994 485.352 77.9523)" fill="#486268" stroke="#0F252A" stroke-width="2"/>
<rect width="73.1726" height="9.48534" transform="matrix(0.959997 -0.28001 0.977271 0.211994 625.723 108.402)" fill="#0F252A"/>
<rect width="47.4267" height="9.48534" transform="matrix(0.959997 -0.28001 0.977271 0.211994 638.965 111.275)" fill="#0F252A"/>
<rect width="27.7785" height="2.7101" transform="matrix(0.959997 -0.28001 0.977271 0.211994 653.532 114.434)" fill="#0F252A"/>
<rect width="27.7785" height="2.7101" transform="matrix(0.959997 -0.28001 0.977271 0.211994 660.153 115.871)" fill="#0F252A"/>
<path fill-rule="evenodd" clip-rule="evenodd" d="M629.114 86.7065C629.21 86.9211 629.236 87.4308 627.603 87.9071C626.099 88.3457 624.242 88.4762 623.039 88.5054C621.884 88.5334 620.857 88.4848 620.121 88.4364C618.622 88.3378 617.016 88.1475 615.528 87.9473C612.641 87.5587 609.145 86.9848 605.826 86.4397C605.654 86.4115 605.483 86.3834 605.312 86.3554C603.998 86.1397 602.715 85.9299 601.488 85.7339C601.867 85.8957 602.222 86.0566 602.516 86.2088C602.93 86.4223 603.412 86.7099 603.599 87.029C603.779 87.3368 603.816 87.9415 601.923 88.4936C599.767 89.1226 596.821 89.2462 595.409 89.2857C593.693 89.3336 591.882 89.3095 590.469 89.2834C589.874 89.2724 589.359 89.2614 588.898 89.2516C588.095 89.2346 587.459 89.2211 586.859 89.217C586.839 89.2169 586.819 89.2168 586.8 89.2167C585.125 89.3931 583.247 89.3499 581.915 89.061C579.942 88.6331 579.914 87.8279 581.852 87.2627C583.462 86.7931 585.515 86.7054 586.064 86.6826C586.919 86.6471 587.763 86.6462 588.399 86.6505C589.269 86.6564 590.368 86.6794 591.343 86.6999C591.348 86.7001 591.354 86.7002 591.359 86.7003C591.168 86.6247 590.969 86.5457 590.762 86.4629C589.706 86.0409 588.403 85.5065 587.645 84.9856C587.263 84.7234 586.893 84.384 586.912 84.0051C586.933 83.601 587.414 83.097 588.957 82.647C590.368 82.2352 592.107 82.0848 593.361 82.0412C594.546 82.0001 595.607 82.0395 596.383 82.0837C597.95 82.1732 599.605 82.3593 601.123 82.5561C601.537 82.6099 601.963 82.6674 602.398 82.728C601.192 82.4149 599.957 82.0953 598.706 81.7714C597.024 81.3359 595.311 80.8925 593.595 80.4462C586.619 78.6323 579.587 76.7712 574.605 75.2653C572.136 74.5188 570.024 73.8165 568.679 73.2264C568.025 72.9392 567.389 72.6095 567.077 72.2691C566.825 71.9944 566.399 71.2863 568.596 70.6456C570.376 70.1264 572.649 70.0123 573.86 69.9834C575.204 69.9513 576.563 69.9912 577.765 70.0485C580.211 70.1651 583.146 70.4121 586.242 70.7158C592.488 71.3288 600.297 72.2658 607.892 73.1884C608.708 73.2876 609.522 73.3867 610.332 73.4852C616.684 74.2579 622.778 74.9993 627.784 75.5427C626.92 75.2918 625.998 75.0315 625.043 74.765C624.615 74.6453 624.179 74.5242 623.741 74.4024C621.474 73.7725 619.153 73.1271 617.464 72.5813C616.476 72.2619 615.49 71.9096 614.871 71.568C614.57 71.4015 614.202 71.1562 614.128 70.863C614.051 70.5514 614.301 70.0534 615.903 69.6105C617.733 69.1045 619.955 69.056 620.917 69.0579C621.999 69.0601 622.988 69.1247 623.728 69.1849C625.258 69.3096 627 69.5252 628.722 69.7622C631.785 70.1836 635.523 70.7771 639.21 71.3627C639.728 71.4449 640.245 71.527 640.759 71.6084C642.907 71.9489 645.006 72.2784 646.971 72.5729C644.285 71.5337 640.851 70.3163 637.275 69.0772C635.538 68.4751 633.759 67.8656 632.031 67.273C629.447 66.3875 626.974 65.5397 624.911 64.8111C623.183 64.2004 621.674 63.6497 620.575 63.2081C620.029 62.9887 619.538 62.7779 619.164 62.5892C618.9 62.4566 618.317 62.1596 618.226 61.8208C618.039 61.1254 620.124 60.4497 622.883 60.3115C625.423 60.1844 627.648 60.5569 628.132 61.1591C628.153 61.1706 628.18 61.1846 628.213 61.2013C628.409 61.3002 628.737 61.4447 629.22 61.6388C630.178 62.0241 631.567 62.5326 633.275 63.1359C635.315 63.8567 637.714 64.6788 640.258 65.551C641.992 66.145 643.793 66.7622 645.594 67.3863C649.983 68.907 654.337 70.4566 657.372 71.7024C658.873 72.3187 660.162 72.9054 660.957 73.4C661.344 73.641 661.721 73.9246 661.861 74.2174C661.968 74.4409 662.142 75.0622 660.227 75.6209C658.718 76.0608 656.854 76.2016 655.608 76.2392C654.398 76.2756 653.288 76.2337 652.442 76.1852C650.727 76.0868 648.85 75.8842 647.053 75.6596C644.219 75.3054 640.913 74.809 637.611 74.2934C638.629 74.6072 639.569 74.9162 640.355 75.2092C641.311 75.5652 642.255 75.9737 642.752 76.3926C643.182 76.7546 643.765 77.5612 641.267 78.2897C639.254 78.8768 636.625 78.9065 635.74 78.908C634.515 78.91 633.262 78.8504 632.152 78.7798C629.875 78.6353 627.07 78.3697 624.057 78.0501C618.642 77.4759 611.91 76.6568 605.148 75.834C604.33 75.7345 603.512 75.6349 602.695 75.5357C595.037 74.6053 587.534 73.7069 581.656 73.13C581.577 73.1222 581.498 73.1146 581.42 73.1069C581.788 73.222 582.176 73.3411 582.583 73.4642C587.336 74.9011 594.158 76.7089 601.157 78.5286C602.832 78.9641 604.517 79.4004 606.183 79.8317C611.419 81.1872 616.462 82.4927 620.376 83.566C622.945 84.2704 625.141 84.9054 626.615 85.4065C627.329 85.6494 628.026 85.9109 628.486 86.1629C628.705 86.283 629.009 86.4736 629.114 86.7065ZM624.02 70.2296C624.021 70.2297 624.025 70.2321 624.031 70.237C624.023 70.232 624.02 70.2296 624.02 70.2296ZM628.065 61.119C628.066 61.1191 628.072 61.123 628.082 61.1303C628.069 61.1226 628.064 61.1189 628.065 61.119ZM633.166 77.4497C633.165 77.4495 633.159 77.4439 633.152 77.4336C633.164 77.4448 633.167 77.4499 633.166 77.4497ZM623.86 85.9502C623.86 85.9502 623.852 85.95 623.836 85.9492C623.852 85.9497 623.86 85.9501 623.86 85.9502ZM619.313 87.4856C619.329 87.4943 619.325 87.4937 619.311 87.4846C619.312 87.485 619.312 87.4853 619.313 87.4856ZM596.068 86.7122C596.071 86.7127 596.039 86.7156 595.966 86.7196C596.029 86.7137 596.066 86.7117 596.068 86.7122ZM592.94 84.589C592.94 84.5889 592.947 84.5891 592.963 84.5898C592.948 84.5894 592.94 84.5891 592.94 84.589Z" fill="#0F252A"/>
</g>
<path fill-rule="evenodd" clip-rule="evenodd" d="M276.424 174.575C277.372 174.937 278.372 175.132 279.387 175.132H292C296.418 175.132 300 178.713 300 183.132V197.334C300 197.419 299.931 197.488 299.846 197.488C299.774 197.488 299.711 197.537 299.695 197.608C295.803 214.398 251.306 227.64 196.986 227.64C142.653 227.64 98.1472 214.392 94.2737 197.596C94.2591 197.532 94.2033 197.488 94.1383 197.488C94.0619 197.488 94 197.426 94 197.35V195.213V183.132C94 178.713 97.5817 175.132 102 175.132H114.585C115.599 175.132 116.6 174.937 117.548 174.575C136.437 167.375 165.01 162.787 196.986 162.787C228.962 162.787 257.534 167.375 276.424 174.575Z" fill="#486268"/>
<path d="M299.695 197.608L300.669 197.834L299.695 197.608ZM94.2737 197.596L93.2993 197.82L94.2737 197.596ZM276.424 174.575L276.068 175.51L276.424 174.575ZM279.387 176.132H292V174.132H279.387V176.132ZM299 183.132V197.334H301V183.132H299ZM298.721 197.382C297.835 201.206 294.584 204.996 289.1 208.544C283.642 212.076 276.116 215.272 266.969 217.961C248.68 223.337 224.074 226.64 196.986 226.64V228.64C224.217 228.64 249.02 225.322 267.533 219.879C276.786 217.159 284.51 213.897 290.187 210.223C295.839 206.566 299.61 202.405 300.669 197.834L298.721 197.382ZM196.986 226.64C169.891 226.64 145.28 223.335 126.99 217.957C117.841 215.266 110.316 212.069 104.86 208.536C99.3778 204.987 96.1301 201.195 95.2481 197.371L93.2993 197.82C94.354 202.394 98.1221 206.557 103.773 210.215C109.448 213.89 117.172 217.154 126.425 219.875C144.94 225.32 169.748 228.64 196.986 228.64V226.64ZM95 197.35V195.213H93V197.35H95ZM95 195.213V183.132H93V195.213H95ZM102 176.132H114.585V174.132H102V176.132ZM117.904 175.51C136.643 168.367 165.085 163.787 196.986 163.787V161.787C164.934 161.787 136.231 166.384 117.192 173.641L117.904 175.51ZM196.986 163.787C228.887 163.787 257.329 168.367 276.068 175.51L276.78 173.641C257.74 166.384 229.037 161.787 196.986 161.787V163.787ZM114.585 176.132C115.728 176.132 116.849 175.912 117.904 175.51L117.192 173.641C116.351 173.962 115.471 174.132 114.585 174.132V176.132ZM95 183.132C95 179.266 98.134 176.132 102 176.132V174.132C97.0294 174.132 93 178.161 93 183.132H95ZM94.1383 196.488C94.6142 196.488 95 196.874 95 197.35H93C93 197.979 93.5096 198.488 94.1383 198.488V196.488ZM299.846 196.488C299.312 196.488 298.843 196.854 298.721 197.382L300.669 197.834C300.58 198.22 300.235 198.488 299.846 198.488V196.488ZM299 197.334C299 196.867 299.379 196.488 299.846 196.488V198.488C300.483 198.488 301 197.972 301 197.334H299ZM292 176.132C295.866 176.132 299 179.266 299 183.132H301C301 178.161 296.971 174.132 292 174.132V176.132ZM95.2481 197.371C95.1278 196.849 94.6642 196.488 94.1383 196.488V198.488C93.7424 198.488 93.3904 198.215 93.2993 197.82L95.2481 197.371ZM279.387 174.132C278.501 174.132 277.621 173.962 276.78 173.641L276.068 175.51C277.123 175.912 278.243 176.132 279.387 176.132V174.132Z" fill="#0F252A"/>
<ellipse cx="197.014" cy="172.426" rx="102.986" ry="32.4263" fill="#486268" stroke="#0F252A" stroke-width="2"/>
<ellipse cx="197.014" cy="170.831" rx="84.3083" ry="21.0122" fill="#486268" stroke="#0F252A" stroke-width="2"/>
<g clip-path="url(#clip2_836_48377)">
<rect width="142.28" height="205.29" rx="10.8404" transform="matrix(0.959997 -0.28001 0.977271 0.211994 377.352 178.689)" fill="#C2F0C9" stroke="#35B24B" stroke-width="4"/>
<rect width="120.599" height="137.537" rx="5.4202" transform="matrix(0.959997 -0.28001 0.977271 0.211994 398.352 177.952)" fill="#C2F0C9" stroke="#35B24B" stroke-width="2"/>
<rect width="73.1726" height="9.48534" transform="matrix(0.959997 -0.28001 0.977271 0.211994 538.723 208.402)" fill="#35B24B"/>
<rect width="47.4267" height="9.48534" transform="matrix(0.959997 -0.28001 0.977271 0.211994 551.965 211.275)" fill="#35B24B"/>
<rect width="27.7785" height="2.7101" transform="matrix(0.959997 -0.28001 0.977271 0.211994 566.532 214.434)" fill="#35B24B"/>
<rect width="27.7785" height="2.7101" transform="matrix(0.959997 -0.28001 0.977271 0.211994 573.153 215.871)" fill="#35B24B"/>
<path fill-rule="evenodd" clip-rule="evenodd" d="M542.114 186.707C542.21 186.921 542.236 187.431 540.603 187.907C539.099 188.346 537.242 188.476 536.039 188.505C534.884 188.533 533.857 188.485 533.121 188.436C531.622 188.338 530.016 188.148 528.528 187.947C525.641 187.559 522.146 186.985 518.826 186.44C518.654 186.412 518.483 186.383 518.312 186.355C516.998 186.14 515.715 185.93 514.488 185.734C514.867 185.896 515.222 186.057 515.517 186.209C515.93 186.422 516.413 186.71 516.599 187.029C516.779 187.337 516.816 187.942 514.924 188.494C512.767 189.123 509.821 189.246 508.409 189.286C506.693 189.334 504.882 189.309 503.469 189.283C502.874 189.272 502.359 189.261 501.898 189.252C501.095 189.235 500.459 189.221 499.859 189.217C499.839 189.217 499.819 189.217 499.8 189.217C498.125 189.393 496.247 189.35 494.915 189.061C492.943 188.633 492.914 187.828 494.852 187.263C496.462 186.793 498.515 186.705 499.064 186.683C499.919 186.647 500.763 186.646 501.399 186.651C502.269 186.656 503.368 186.679 504.343 186.7C504.348 186.7 504.354 186.7 504.359 186.7C504.169 186.625 503.969 186.546 503.762 186.463C502.706 186.041 501.403 185.506 500.645 184.986C500.263 184.723 499.893 184.384 499.913 184.005C499.933 183.601 500.414 183.097 501.957 182.647C503.369 182.235 505.107 182.085 506.361 182.041C507.546 182 508.607 182.039 509.383 182.084C510.95 182.173 512.605 182.359 514.123 182.556C514.537 182.61 514.963 182.667 515.398 182.728C514.192 182.415 512.957 182.095 511.706 181.771C510.024 181.336 508.311 180.893 506.595 180.446C499.619 178.632 492.587 176.771 487.605 175.265C485.136 174.519 483.024 173.817 481.679 173.226C481.025 172.939 480.389 172.61 480.077 172.269C479.825 171.994 479.399 171.286 481.596 170.646C483.376 170.126 485.649 170.012 486.86 169.983C488.204 169.951 489.563 169.991 490.765 170.048C493.211 170.165 496.146 170.412 499.242 170.716C505.488 171.329 513.297 172.266 520.892 173.188C521.708 173.288 522.522 173.387 523.332 173.485C529.684 174.258 535.778 174.999 540.784 175.543C539.92 175.292 538.998 175.031 538.043 174.765C537.615 174.645 537.179 174.524 536.741 174.402C534.474 173.772 532.153 173.127 530.464 172.581C529.477 172.262 528.49 171.91 527.872 171.568C527.57 171.402 527.202 171.156 527.128 170.863C527.051 170.551 527.301 170.053 528.903 169.61C530.734 169.105 532.955 169.056 533.917 169.058C534.999 169.06 535.988 169.125 536.728 169.185C538.258 169.31 540 169.525 541.722 169.762C544.785 170.184 548.523 170.777 552.21 171.363C552.728 171.445 553.245 171.527 553.759 171.608C555.907 171.949 558.006 172.278 559.971 172.573C557.285 171.534 553.851 170.316 550.275 169.077C548.538 168.475 546.76 167.866 545.031 167.273C542.447 166.387 539.974 165.54 537.911 164.811C536.183 164.2 534.674 163.65 533.575 163.208C533.029 162.989 532.538 162.778 532.164 162.589C531.9 162.457 531.317 162.16 531.226 161.821C531.039 161.125 533.124 160.45 535.883 160.312C538.423 160.184 540.648 160.557 541.132 161.159C541.153 161.171 541.18 161.185 541.213 161.201C541.409 161.3 541.737 161.445 542.22 161.639C543.178 162.024 544.567 162.533 546.275 163.136C548.315 163.857 550.714 164.679 553.259 165.551C554.992 166.145 556.793 166.762 558.594 167.386C562.983 168.907 567.337 170.457 570.372 171.702C571.873 172.319 573.162 172.905 573.957 173.4C574.344 173.641 574.721 173.925 574.861 174.217C574.968 174.441 575.142 175.062 573.227 175.621C571.719 176.061 569.854 176.202 568.608 176.239C567.398 176.276 566.288 176.234 565.442 176.185C563.728 176.087 561.85 175.884 560.053 175.66C557.219 175.305 553.913 174.809 550.611 174.293C551.629 174.607 552.569 174.916 553.355 175.209C554.311 175.565 555.255 175.974 555.752 176.393C556.182 176.755 556.765 177.561 554.267 178.29C552.254 178.877 549.625 178.906 548.74 178.908C547.515 178.91 546.262 178.85 545.152 178.78C542.875 178.635 540.07 178.37 537.057 178.05C531.642 177.476 524.91 176.657 518.148 175.834C517.33 175.735 516.512 175.635 515.695 175.536C508.037 174.605 500.534 173.707 494.656 173.13C494.577 173.122 494.498 173.115 494.42 173.107C494.788 173.222 495.176 173.341 495.583 173.464C500.336 174.901 507.158 176.709 514.157 178.529C515.832 178.964 517.517 179.4 519.183 179.832C524.419 181.187 529.463 182.493 533.376 183.566C535.945 184.27 538.141 184.905 539.615 185.407C540.33 185.649 541.026 185.911 541.486 186.163C541.705 186.283 542.009 186.474 542.114 186.707ZM537.02 170.23C537.021 170.23 537.025 170.232 537.031 170.237C537.023 170.232 537.02 170.23 537.02 170.23ZM541.065 161.119C541.066 161.119 541.072 161.123 541.082 161.13C541.069 161.123 541.064 161.119 541.065 161.119ZM546.166 177.45C546.165 177.449 546.159 177.444 546.152 177.434C546.164 177.445 546.167 177.45 546.166 177.45ZM536.86 185.95C536.86 185.95 536.852 185.95 536.836 185.949C536.852 185.95 536.86 185.95 536.86 185.95ZM532.313 187.486C532.329 187.494 532.325 187.494 532.311 187.485C532.312 187.485 532.312 187.485 532.313 187.486ZM509.068 186.712C509.071 186.713 509.039 186.716 508.966 186.72C509.029 186.714 509.066 186.712 509.068 186.712ZM505.94 184.589C505.94 184.589 505.947 184.589 505.963 184.59C505.948 184.589 505.94 184.589 505.94 184.589Z" fill="#35B24B"/>
</g>
<path fill-rule="evenodd" clip-rule="evenodd" d="M766.699 22.4497C767.65 22.8028 768.65 23 769.665 23H775C778.866 23 782 26.134 782 30V36.9035C782 36.9568 781.957 37 781.904 37C781.858 37 781.819 37.0306 781.809 37.0747C779.372 47.5893 751.507 55.8814 717.491 55.8814C683.467 55.8814 655.596 47.5853 653.171 37.0671C653.162 37.0275 653.127 37 653.087 37C653.039 37 653 36.9612 653 36.9134V35.5757V31C653 26.5817 656.582 23 661 23H665.317C666.332 23 667.333 22.8028 668.284 22.4497C680.113 18.0575 697.768 15.2699 717.491 15.2699C737.214 15.2699 754.869 18.0575 766.699 22.4497Z" fill="#486268"/>
<path d="M781.809 37.0747L780.835 36.849L781.809 37.0747ZM653.171 37.0671L652.197 37.2918L653.171 37.0671ZM766.699 22.4497L766.35 23.3871L766.699 22.4497ZM769.665 24H775V22H769.665V24ZM781 30V36.9035H783V30H781ZM780.835 36.849C780.312 39.1036 778.374 41.4081 774.972 43.6096C771.595 45.7947 766.919 47.7835 761.21 49.4616C749.8 52.816 734.428 54.8814 717.491 54.8814V56.8814C734.57 56.8814 750.139 54.8008 761.774 51.3805C767.589 49.6713 772.462 47.6155 776.058 45.2887C779.629 42.9782 782.087 40.3031 782.783 37.3005L780.835 36.849ZM717.491 54.8814C700.55 54.8814 685.175 52.815 673.764 49.4592C668.054 47.7803 663.379 45.7908 660.003 43.6048C656.602 41.4026 654.666 39.0975 654.146 36.8424L652.197 37.2918C652.889 40.2958 655.346 42.9721 658.916 45.2836C662.511 47.6114 667.385 49.6681 673.199 51.378C684.835 54.7998 700.408 56.8814 717.491 56.8814V54.8814ZM654 36.9134V35.5757H652V36.9134H654ZM654 35.5757V31H652V35.5757H654ZM661 24H665.317V22H661V24ZM668.632 23.3871C680.315 19.0492 697.843 16.2699 717.491 16.2699V14.2699C697.693 14.2699 679.911 17.0658 667.936 21.5122L668.632 23.3871ZM717.491 16.2699C737.139 16.2699 754.667 19.0492 766.35 23.3871L767.047 21.5122C755.071 17.0658 737.289 14.2699 717.491 14.2699V16.2699ZM665.317 24C666.462 24 667.58 23.7775 668.632 23.3871L667.936 21.5122C667.085 21.8281 666.202 22 665.317 22V24ZM654 31C654 27.134 657.134 24 661 24V22C656.029 22 652 26.0294 652 31H654ZM653.087 36C653.591 36 654 36.4089 654 36.9134H652C652 37.5135 652.486 38 653.087 38V36ZM781.904 36C781.397 36 780.951 36.3476 780.835 36.849L782.783 37.3005C782.688 37.7137 782.32 38 781.904 38V36ZM781 36.9035C781 36.4045 781.405 36 781.904 36V38C782.509 38 783 37.5091 783 36.9035H781ZM775 24C778.314 24 781 26.6863 781 30H783C783 25.5817 779.418 22 775 22V24ZM654.146 36.8424C654.031 36.3443 653.588 36 653.087 36V38C652.666 38 652.293 37.7107 652.197 37.2918L654.146 36.8424ZM769.665 22C768.78 22 767.897 21.8281 767.047 21.5122L766.35 23.3871C767.402 23.7775 768.52 24 769.665 24V22Z" fill="#0F252A"/>
<ellipse cx="717.509" cy="21.3058" rx="64.4911" ry="20.3058" fill="#486268" stroke="#0F252A" stroke-width="2"/>
<ellipse cx="717.509" cy="20.3057" rx="52.795" ry="13.1581" fill="#486268" stroke="#0F252A" stroke-width="2"/>
<path fill-rule="evenodd" clip-rule="evenodd" d="M830.699 54.4497C831.65 54.8028 832.65 55 833.665 55H839C842.866 55 846 58.134 846 62V68.9035C846 68.9568 845.957 69 845.904 69C845.858 69 845.819 69.0306 845.809 69.0747C843.372 79.5893 815.507 87.8814 781.491 87.8814C747.467 87.8814 719.596 79.5853 717.171 69.0671C717.162 69.0275 717.127 69 717.087 69C717.039 69 717 68.9612 717 68.9134V67.5757V63C717 58.5817 720.582 55 725 55H729.317C730.332 55 731.333 54.8028 732.284 54.4497C744.113 50.0575 761.768 47.2699 781.491 47.2699C801.214 47.2699 818.869 50.0575 830.699 54.4497Z" fill="#486268"/>
<path d="M845.809 69.0747L844.835 68.849L845.809 69.0747ZM717.171 69.0671L716.197 69.2918L717.171 69.0671ZM830.699 54.4497L830.35 55.3871L830.699 54.4497ZM833.665 56H839V54H833.665V56ZM845 62V68.9035H847V62H845ZM844.835 68.849C844.312 71.1036 842.374 73.4081 838.972 75.6096C835.595 77.7947 830.919 79.7835 825.21 81.4616C813.8 84.816 798.428 86.8814 781.491 86.8814V88.8814C798.57 88.8814 814.139 86.8008 825.774 83.3805C831.589 81.6713 836.462 79.6155 840.058 77.2887C843.629 74.9782 846.087 72.3031 846.783 69.3005L844.835 68.849ZM781.491 86.8814C764.55 86.8814 749.175 84.815 737.764 81.4592C732.054 79.7803 727.379 77.7908 724.003 75.6048C720.602 73.4026 718.666 71.0975 718.146 68.8424L716.197 69.2918C716.889 72.2958 719.346 74.9721 722.916 77.2836C726.511 79.6114 731.385 81.6681 737.199 83.378C748.835 86.7998 764.408 88.8814 781.491 88.8814V86.8814ZM718 68.9134V67.5757H716V68.9134H718ZM718 67.5757V63H716V67.5757H718ZM725 56H729.317V54H725V56ZM732.632 55.3871C744.315 51.0492 761.843 48.2699 781.491 48.2699V46.2699C761.693 46.2699 743.911 49.0658 731.936 53.5122L732.632 55.3871ZM781.491 48.2699C801.139 48.2699 818.667 51.0492 830.35 55.3871L831.047 53.5122C819.071 49.0658 801.289 46.2699 781.491 46.2699V48.2699ZM729.317 56C730.462 56 731.58 55.7775 732.632 55.3871L731.936 53.5122C731.085 53.8281 730.202 54 729.317 54V56ZM718 63C718 59.134 721.134 56 725 56V54C720.029 54 716 58.0294 716 63H718ZM717.087 68C717.591 68 718 68.4089 718 68.9134H716C716 69.5135 716.486 70 717.087 70V68ZM845.904 68C845.397 68 844.951 68.3476 844.835 68.849L846.783 69.3005C846.688 69.7137 846.32 70 845.904 70V68ZM845 68.9035C845 68.4045 845.405 68 845.904 68V70C846.509 70 847 69.5091 847 68.9035H845ZM839 56C842.314 56 845 58.6863 845 62H847C847 57.5817 843.418 54 839 54V56ZM718.146 68.8424C718.031 68.3443 717.588 68 717.087 68V70C716.666 70 716.293 69.7107 716.197 69.2918L718.146 68.8424ZM833.665 54C832.78 54 831.897 53.8281 831.047 53.5122L830.35 55.3871C831.402 55.7775 832.52 56 833.665 56V54Z" fill="#0F252A"/>
<ellipse cx="781.509" cy="53.3058" rx="64.4911" ry="20.3058" fill="#486268" stroke="#0F252A" stroke-width="2"/>
<ellipse cx="781.509" cy="52.3057" rx="52.795" ry="13.1581" fill="#486268" stroke="#0F252A" stroke-width="2"/>
<path fill-rule="evenodd" clip-rule="evenodd" d="M911.815 50.1837C912.689 50.6992 913.639 51.0699 914.637 51.249L919.889 52.1908C923.694 52.8733 926.225 56.5113 925.543 60.3166L924.324 67.1117C924.315 67.1642 924.265 67.199 924.212 67.1896C924.168 67.1816 924.124 67.205 924.106 67.2466C919.852 77.1659 890.96 80.4088 857.478 74.404C823.988 68.3978 798.02 55.312 797.49 44.5309C797.488 44.4903 797.458 44.4571 797.418 44.4499C797.371 44.4414 797.34 44.3964 797.348 44.3494L797.585 43.0327L798.392 38.5288C799.172 34.1799 803.33 31.2867 807.679 32.0667L811.928 32.8288C812.927 33.0079 813.947 32.9905 814.945 32.8108C827.365 30.5759 845.234 30.9486 864.647 34.4302C884.06 37.9119 900.946 43.7723 911.815 50.1837Z" fill="#C2F0C9"/>
<path d="M797.585 43.0327L798.569 43.2092L797.585 43.0327ZM924.106 67.2466L923.187 66.8524L924.106 67.2466ZM797.49 44.5309L796.491 44.58L797.49 44.5309ZM911.815 50.1837L911.307 51.045L911.815 50.1837ZM914.461 52.2333L919.712 53.1751L920.065 51.2065L914.814 50.2648L914.461 52.2333ZM924.559 60.1401L923.34 66.9352L925.309 67.2883L926.527 60.4931L924.559 60.1401ZM923.187 66.8524C922.275 68.9794 919.96 70.9055 916.223 72.4718C912.513 74.0265 907.56 75.1586 901.644 75.8027C889.821 77.0901 874.326 76.4095 857.655 73.4197L857.302 75.3883C874.113 78.4033 889.805 79.1036 901.861 77.7909C907.885 77.135 913.045 75.9718 916.996 74.3163C920.918 72.6724 923.81 70.4734 925.025 67.6408L923.187 66.8524ZM857.655 73.4197C840.98 70.4292 826.211 65.6811 815.571 60.3635C810.248 57.7032 805.997 54.9195 803.06 52.172C800.101 49.4039 798.602 46.7932 798.489 44.4818L796.491 44.58C796.643 47.6592 798.588 50.7271 801.694 53.6325C804.822 56.5584 809.256 59.443 814.677 62.1525C825.526 67.5747 840.487 72.3726 857.302 75.3883L857.655 73.4197ZM798.333 44.5259L798.569 43.2092L796.6 42.8561L796.364 44.1728L798.333 44.5259ZM798.569 43.2092L799.377 38.7053L797.408 38.3523L796.6 42.8561L798.569 43.2092ZM807.502 33.051L811.752 33.8131L812.105 31.8445L807.855 31.0824L807.502 33.051ZM815.122 33.795C827.388 31.5877 845.132 31.9462 864.471 35.4145L864.824 33.4459C845.337 29.9511 827.341 29.5641 814.768 31.8266L815.122 33.795ZM864.471 35.4145C883.81 38.8829 900.572 44.7128 911.307 51.045L912.323 49.3224C901.32 42.8318 884.311 36.9408 864.824 33.4459L864.471 35.4145ZM811.752 33.8131C812.878 34.0151 814.018 33.9936 815.122 33.795L814.768 31.8266C813.875 31.9873 812.976 32.0006 812.105 31.8445L811.752 33.8131ZM799.377 38.7053C800.059 34.9001 803.697 32.3685 807.502 33.051L807.855 31.0824C802.963 30.2049 798.285 33.4598 797.408 38.3523L799.377 38.7053ZM797.595 43.4656C798.091 43.5546 798.422 44.0294 798.333 44.5259L796.364 44.1728C796.258 44.7635 796.651 45.3282 797.242 45.4342L797.595 43.4656ZM924.389 66.2053C923.89 66.1159 923.39 66.3794 923.187 66.8524L925.025 67.6408C924.858 68.0305 924.445 68.2474 924.036 68.1739L924.389 66.2053ZM923.34 66.9352C923.428 66.444 923.898 66.1173 924.389 66.2053L924.036 68.1739C924.632 68.2808 925.202 67.8843 925.309 67.2883L923.34 66.9352ZM919.712 53.1751C922.974 53.7601 925.144 56.8784 924.559 60.1401L926.527 60.4931C927.307 56.1442 924.414 51.9865 920.065 51.2065L919.712 53.1751ZM798.489 44.4818C798.464 43.9712 798.089 43.5541 797.595 43.4656L797.242 45.4342C796.828 45.36 796.512 45.0094 796.491 44.58L798.489 44.4818ZM914.814 50.2648C913.943 50.1086 913.104 49.7835 912.323 49.3224L911.307 51.045C912.273 51.6149 913.334 52.0313 914.461 52.2333L914.814 50.2648Z" fill="#35B24B"/>
<ellipse cx="863.599" cy="40.3744" rx="64.4911" ry="20.3058" transform="rotate(10.1676 863.599 40.3744)" fill="#C2F0C9" stroke="#35B24B" stroke-width="2"/>
<ellipse cx="863.776" cy="39.3902" rx="52.795" ry="13.1581" transform="rotate(10.1676 863.776 39.3902)" fill="#C2F0C9" stroke="#35B24B" stroke-width="2"/>
<path fill-rule="evenodd" clip-rule="evenodd" d="M505.981 236.177C506.931 236.533 507.933 236.73 508.948 236.73H515.132C519.477 236.73 523 240.253 523 244.598V252.358C523 252.418 522.951 252.466 522.891 252.466C522.84 252.466 522.797 252.501 522.785 252.55C520.044 264.368 488.724 273.688 450.49 273.688C412.247 273.688 380.921 264.364 378.193 252.542C378.183 252.497 378.143 252.466 378.097 252.466C378.044 252.466 378 252.423 378 252.369V250.864V244.73C378 240.312 381.582 236.73 386 236.73H392.032C393.047 236.73 394.049 236.533 394.999 236.177C408.297 231.201 428.221 228.04 450.49 228.04C472.759 228.04 492.683 231.201 505.981 236.177Z" fill="#486268"/>
<path d="M378.193 252.542L379.167 252.317L378.193 252.542ZM505.981 236.177L506.331 235.241L505.981 236.177ZM508.948 237.73H515.132V235.73H508.948V237.73ZM522 244.598V252.358H524V244.598H522ZM521.811 252.324C521.212 254.905 519.001 257.518 515.166 259.999C511.356 262.464 506.089 264.704 499.665 266.592C486.826 270.366 469.536 272.688 450.49 272.688V274.688C469.678 274.688 487.165 272.351 500.229 268.511C506.758 266.591 512.224 264.285 516.252 261.679C520.256 259.088 522.987 256.105 523.759 252.776L521.811 252.324ZM450.49 272.688C431.44 272.688 414.146 270.365 401.305 266.589C394.882 264.7 389.614 262.46 385.806 259.994C381.972 257.512 379.763 254.898 379.167 252.317L377.218 252.767C377.987 256.097 380.716 259.082 384.719 261.673C388.746 264.28 394.212 266.588 400.741 268.508C413.806 272.35 431.297 274.688 450.49 274.688V272.688ZM379 252.369V250.864H377V252.369H379ZM379 250.864V244.73H377V250.864H379ZM386 237.73H392.032V235.73H386V237.73ZM395.35 237.114C408.5 232.193 428.296 229.04 450.49 229.04V227.04C428.145 227.04 408.093 230.21 394.649 235.241L395.35 237.114ZM450.49 229.04C472.684 229.04 492.48 232.193 505.63 237.114L506.331 235.241C492.887 230.21 472.835 227.04 450.49 227.04V229.04ZM392.032 237.73C393.177 237.73 394.297 237.508 395.35 237.114L394.649 235.241C393.8 235.558 392.917 235.73 392.032 235.73V237.73ZM379 244.73C379 240.864 382.134 237.73 386 237.73V235.73C381.029 235.73 377 239.759 377 244.73H379ZM378.097 251.466C378.596 251.466 379 251.87 379 252.369H377C377 252.975 377.491 253.466 378.097 253.466V251.466ZM522.891 251.466C522.379 251.466 521.929 251.818 521.811 252.324L523.759 252.776C523.665 253.184 523.302 253.466 522.891 253.466V251.466ZM522 252.358C522 251.865 522.399 251.466 522.891 251.466V253.466C523.504 253.466 524 252.97 524 252.358H522ZM515.132 237.73C518.925 237.73 522 240.805 522 244.598H524C524 239.7 520.03 235.73 515.132 235.73V237.73ZM379.167 252.317C379.051 251.814 378.604 251.466 378.097 251.466V253.466C377.682 253.466 377.314 253.181 377.218 252.767L379.167 252.317ZM508.948 235.73C508.063 235.73 507.18 235.558 506.331 235.241L505.63 237.114C506.683 237.508 507.803 237.73 508.948 237.73V235.73Z" fill="#0F252A"/>
<ellipse cx="450.51" cy="234.824" rx="72.49" ry="22.8243" fill="#486268" stroke="#0F252A" stroke-width="2"/>
<ellipse cx="450.51" cy="233.701" rx="59.3432" ry="14.7902" fill="#486268" stroke="#0F252A" stroke-width="2"/>
<g clip-path="url(#clip3_836_48377)">
<rect width="142.28" height="205.29" rx="10.8404" transform="matrix(0.959997 -0.28001 0.977271 0.211994 89.3518 83.6895)" fill="#C2F0C9" stroke="#35B24B" stroke-width="4"/>
<rect width="120.599" height="137.537" rx="5.4202" transform="matrix(0.959997 -0.28001 0.977271 0.211994 110.352 82.9523)" fill="#C2F0C9" stroke="#35B24B" stroke-width="2"/>
<rect width="73.1726" height="9.48534" transform="matrix(0.959997 -0.28001 0.977271 0.211994 250.723 113.402)" fill="#35B24B"/>
<rect width="47.4267" height="9.48534" transform="matrix(0.959997 -0.28001 0.977271 0.211994 263.965 116.275)" fill="#35B24B"/>
<rect width="27.7785" height="2.7101" transform="matrix(0.959997 -0.28001 0.977271 0.211994 278.532 119.434)" fill="#35B24B"/>
<rect width="27.7785" height="2.7101" transform="matrix(0.959997 -0.28001 0.977271 0.211994 285.153 120.871)" fill="#35B24B"/>
<path fill-rule="evenodd" clip-rule="evenodd" d="M254.114 91.7065C254.21 91.9211 254.236 92.4308 252.603 92.9071C251.099 93.3457 249.242 93.4762 248.039 93.5054C246.884 93.5334 245.857 93.4848 245.121 93.4364C243.622 93.3378 242.016 93.1475 240.528 92.9473C237.641 92.5587 234.146 91.9848 230.826 91.4397C230.654 91.4115 230.483 91.3834 230.312 91.3554C228.998 91.1397 227.715 90.9299 226.488 90.7339C226.867 90.8957 227.222 91.0566 227.517 91.2088C227.93 91.4223 228.413 91.7099 228.599 92.029C228.779 92.3368 228.816 92.9415 226.924 93.4936C224.767 94.1226 221.821 94.2462 220.409 94.2857C218.693 94.3336 216.882 94.3095 215.469 94.2834C214.874 94.2724 214.359 94.2614 213.898 94.2516C213.095 94.2346 212.459 94.2211 211.859 94.217C211.839 94.2169 211.819 94.2168 211.8 94.2167C210.125 94.3931 208.247 94.3499 206.915 94.061C204.943 93.6331 204.914 92.8279 206.852 92.2627C208.462 91.7931 210.515 91.7054 211.064 91.6826C211.919 91.6471 212.763 91.6462 213.399 91.6505C214.269 91.6564 215.368 91.6794 216.343 91.6999C216.348 91.7001 216.354 91.7002 216.359 91.7003C216.169 91.6247 215.969 91.5457 215.762 91.4629C214.706 91.0409 213.403 90.5065 212.645 89.9856C212.263 89.7234 211.893 89.384 211.913 89.0051C211.933 88.601 212.414 88.097 213.957 87.647C215.369 87.2352 217.107 87.0848 218.361 87.0412C219.546 87.0001 220.607 87.0395 221.383 87.0837C222.95 87.1732 224.605 87.3593 226.123 87.5561C226.537 87.6099 226.963 87.6674 227.398 87.728C226.192 87.4149 224.957 87.0953 223.706 86.7714C222.024 86.3359 220.311 85.8925 218.595 85.4462C211.619 83.6323 204.587 81.7712 199.605 80.2653C197.136 79.5188 195.024 78.8165 193.679 78.2264C193.025 77.9392 192.389 77.6095 192.077 77.2691C191.825 76.9944 191.399 76.2863 193.596 75.6456C195.376 75.1264 197.649 75.0123 198.86 74.9834C200.204 74.9513 201.563 74.9912 202.765 75.0485C205.211 75.1651 208.146 75.4121 211.242 75.7158C217.488 76.3288 225.297 77.2658 232.892 78.1884C233.708 78.2876 234.522 78.3867 235.332 78.4852C241.684 79.2579 247.778 79.9993 252.784 80.5427C251.92 80.2918 250.998 80.0315 250.043 79.765C249.615 79.6453 249.179 79.5242 248.741 79.4024C246.474 78.7725 244.153 78.1271 242.464 77.5813C241.477 77.2619 240.49 76.9096 239.872 76.568C239.57 76.4015 239.202 76.1562 239.128 75.863C239.051 75.5514 239.301 75.0534 240.903 74.6105C242.734 74.1045 244.955 74.056 245.917 74.0579C246.999 74.0601 247.988 74.1247 248.728 74.1849C250.258 74.3096 252 74.5252 253.722 74.7622C256.785 75.1836 260.523 75.7771 264.21 76.3627C264.728 76.4449 265.245 76.527 265.759 76.6084C267.907 76.9489 270.006 77.2784 271.971 77.5729C269.285 76.5337 265.851 75.3163 262.275 74.0772C260.538 73.4751 258.76 72.8656 257.031 72.273C254.447 71.3875 251.974 70.5397 249.911 69.8111C248.183 69.2004 246.674 68.6497 245.575 68.2081C245.029 67.9887 244.538 67.7779 244.164 67.5892C243.9 67.4566 243.317 67.1596 243.226 66.8208C243.039 66.1254 245.124 65.4497 247.883 65.3115C250.423 65.1844 252.648 65.5569 253.132 66.1591C253.153 66.1706 253.18 66.1846 253.213 66.2013C253.409 66.3002 253.737 66.4447 254.22 66.6388C255.178 67.0241 256.567 67.5326 258.275 68.1359C260.315 68.8567 262.714 69.6788 265.259 70.551C266.992 71.145 268.793 71.7622 270.594 72.3863C274.983 73.907 279.337 75.4566 282.372 76.7024C283.873 77.3187 285.162 77.9054 285.957 78.4C286.344 78.641 286.721 78.9246 286.861 79.2174C286.968 79.4409 287.142 80.0622 285.227 80.6209C283.719 81.0608 281.854 81.2016 280.608 81.2392C279.398 81.2756 278.288 81.2337 277.442 81.1852C275.728 81.0868 273.85 80.8842 272.053 80.6596C269.219 80.3054 265.913 79.809 262.611 79.2934C263.629 79.6072 264.569 79.9162 265.355 80.2092C266.311 80.5652 267.255 80.9737 267.752 81.3926C268.182 81.7546 268.765 82.5612 266.267 83.2897C264.254 83.8768 261.625 83.9065 260.74 83.908C259.515 83.91 258.262 83.8504 257.152 83.7798C254.875 83.6353 252.07 83.3697 249.057 83.0501C243.642 82.4759 236.91 81.6568 230.148 80.834C229.33 80.7345 228.512 80.6349 227.695 80.5357C220.037 79.6053 212.534 78.7069 206.656 78.13C206.577 78.1222 206.498 78.1146 206.42 78.1069C206.788 78.222 207.176 78.3411 207.583 78.4642C212.336 79.9011 219.158 81.7089 226.157 83.5286C227.832 83.9641 229.517 84.4004 231.183 84.8317C236.419 86.1872 241.463 87.4927 245.376 88.566C247.945 89.2704 250.141 89.9054 251.615 90.4065C252.33 90.6494 253.026 90.9109 253.486 91.1629C253.705 91.283 254.009 91.4736 254.114 91.7065ZM249.02 75.2296C249.021 75.2297 249.025 75.2321 249.031 75.237C249.023 75.232 249.02 75.2296 249.02 75.2296ZM253.065 66.119C253.066 66.1191 253.072 66.123 253.082 66.1303C253.069 66.1226 253.064 66.1189 253.065 66.119ZM258.166 82.4497C258.165 82.4495 258.159 82.4439 258.152 82.4336C258.164 82.4448 258.167 82.4499 258.166 82.4497ZM248.86 90.9502C248.86 90.9502 248.852 90.95 248.836 90.9492C248.852 90.9497 248.86 90.9501 248.86 90.9502ZM244.313 92.4856C244.329 92.4943 244.325 92.4937 244.311 92.4846C244.312 92.485 244.312 92.4853 244.313 92.4856ZM221.068 91.7122C221.071 91.7127 221.039 91.7156 220.966 91.7196C221.029 91.7137 221.066 91.7117 221.068 91.7122ZM217.94 89.589C217.94 89.5889 217.947 89.5891 217.963 89.5898C217.948 89.5894 217.94 89.5891 217.94 89.589Z" fill="#35B24B"/>
</g>
<path fill-rule="evenodd" clip-rule="evenodd" d="M561.621 407.044C562.575 407.392 563.575 407.59 564.589 407.59H568.547C571.638 407.59 574.144 410.096 574.144 413.187V418.707C574.144 418.75 574.11 418.784 574.067 418.784C574.031 418.784 574 418.809 573.992 418.844C572.043 427.251 549.763 433.881 522.565 433.881C495.36 433.881 473.076 427.248 471.137 418.838C471.13 418.806 471.102 418.784 471.069 418.784C471.031 418.784 471 418.753 471 418.715V417.646V415.59C471 411.172 474.582 407.59 479 407.59H480.541C481.555 407.59 482.556 407.392 483.509 407.044C492.965 403.594 506.955 401.41 522.565 401.41C538.175 401.41 552.165 403.594 561.621 407.044Z" fill="#486268"/>
<path d="M483.509 407.044L483.166 406.105L483.509 407.044ZM573.992 418.844L574.966 419.07L573.992 418.844ZM561.621 407.044L561.964 406.105L561.621 407.044ZM564.589 408.59H568.547V406.59H564.589V408.59ZM573.144 413.187V418.707H575.144V413.187H573.144ZM573.018 418.618C572.617 420.346 571.119 422.152 568.416 423.901C565.738 425.634 562.019 427.217 557.465 428.556C548.364 431.232 536.093 432.881 522.565 432.881V434.881C536.235 434.881 548.704 433.216 558.029 430.475C562.688 429.105 566.605 427.455 569.502 425.58C572.374 423.722 574.392 421.546 574.966 419.07L573.018 418.618ZM522.565 432.881C509.034 432.881 496.76 431.231 487.658 428.554C483.104 427.215 479.386 425.631 476.708 423.897C474.006 422.147 472.51 420.341 472.111 418.613L470.163 419.063C470.734 421.54 472.75 423.717 475.621 425.576C478.518 427.451 482.434 429.103 487.094 430.473C496.42 433.216 508.891 434.881 522.565 434.881V432.881ZM472 418.715V417.646H470V418.715H472ZM472 417.646V415.59H470V417.646H472ZM479 408.59H480.541V406.59H479V408.59ZM483.851 407.984C493.164 404.586 507.03 402.41 522.565 402.41V400.41C506.88 400.41 492.765 402.602 483.166 406.105L483.851 407.984ZM522.565 402.41C538.1 402.41 551.966 404.586 561.279 407.984L561.964 406.105C552.365 402.602 538.25 400.41 522.565 400.41V402.41ZM480.541 408.59C481.686 408.59 482.802 408.367 483.851 407.984L483.166 406.105C482.309 406.418 481.425 406.59 480.541 406.59V408.59ZM472 415.59C472 411.725 475.134 408.59 479 408.59V406.59C474.029 406.59 470 410.62 470 415.59H472ZM471.069 417.784C471.583 417.784 472 418.201 472 418.715H470C470 419.306 470.479 419.784 471.069 419.784V417.784ZM574.067 417.784C573.57 417.784 573.132 418.126 573.018 418.618L574.966 419.07C574.868 419.492 574.492 419.784 574.067 419.784V417.784ZM573.144 418.707C573.144 418.198 573.557 417.784 574.067 417.784V419.784C574.662 419.784 575.144 419.302 575.144 418.707H573.144ZM568.547 408.59C571.086 408.59 573.144 410.649 573.144 413.187H575.144C575.144 409.544 572.191 406.59 568.547 406.59V408.59ZM472.111 418.613C471.998 418.123 471.563 417.784 471.069 417.784V419.784C470.641 419.784 470.261 419.49 470.163 419.063L472.111 418.613ZM564.589 406.59C563.705 406.59 562.821 406.418 561.964 406.105L561.279 407.984C562.328 408.367 563.444 408.59 564.589 408.59V406.59Z" fill="#0F252A"/>
<ellipse cx="522.579" cy="406.236" rx="51.565" ry="16.2358" fill="#486268" stroke="#0F252A" stroke-width="2"/>
<ellipse cx="522.579" cy="405.436" rx="42.2132" ry="10.5208" fill="#486268" stroke="#0F252A" stroke-width="2"/>
<path fill-rule="evenodd" clip-rule="evenodd" d="M411.699 84.4497C412.65 84.8028 413.65 85 414.665 85H420C423.866 85 427 88.134 427 92V98.9035C427 98.9568 426.957 99 426.904 99C426.858 99 426.819 99.0306 426.809 99.0747C424.372 109.589 396.507 117.881 362.491 117.881C328.467 117.881 300.596 109.585 298.171 99.0671C298.162 99.0275 298.127 99 298.087 99C298.039 99 298 98.9612 298 98.9134V97.5757V93C298 88.5817 301.582 85 306 85H310.317C311.332 85 312.333 84.8028 313.284 84.4497C325.113 80.0575 342.768 77.2699 362.491 77.2699C382.214 77.2699 399.869 80.0575 411.699 84.4497Z" fill="#486268"/>
<path d="M426.809 99.0747L425.835 98.849L426.809 99.0747ZM298.171 99.0671L297.197 99.2918L298.171 99.0671ZM411.699 84.4497L411.35 85.3871L411.699 84.4497ZM414.665 86H420V84H414.665V86ZM426 92V98.9035H428V92H426ZM425.835 98.849C425.312 101.104 423.374 103.408 419.972 105.61C416.595 107.795 411.919 109.783 406.21 111.462C394.8 114.816 379.428 116.881 362.491 116.881V118.881C379.57 118.881 395.139 116.801 406.774 113.38C412.589 111.671 417.462 109.616 421.058 107.289C424.629 104.978 427.087 102.303 427.783 99.3005L425.835 98.849ZM362.491 116.881C345.55 116.881 330.175 114.815 318.764 111.459C313.054 109.78 308.379 107.791 305.003 105.605C301.602 103.403 299.666 101.097 299.146 98.8424L297.197 99.2918C297.889 102.296 300.346 104.972 303.916 107.284C307.511 109.611 312.385 111.668 318.199 113.378C329.835 116.8 345.408 118.881 362.491 118.881V116.881ZM299 98.9134V97.5757H297V98.9134H299ZM299 97.5757V93H297V97.5757H299ZM306 86H310.317V84H306V86ZM313.632 85.3871C325.315 81.0492 342.843 78.2699 362.491 78.2699V76.2699C342.693 76.2699 324.911 79.0658 312.936 83.5122L313.632 85.3871ZM362.491 78.2699C382.139 78.2699 399.667 81.0492 411.35 85.3871L412.047 83.5122C400.071 79.0658 382.289 76.2699 362.491 76.2699V78.2699ZM310.317 86C311.462 86 312.58 85.7775 313.632 85.3871L312.936 83.5122C312.085 83.8281 311.202 84 310.317 84V86ZM299 93C299 89.134 302.134 86 306 86V84C301.029 84 297 88.0294 297 93H299ZM298.087 98C298.591 98 299 98.4089 299 98.9134H297C297 99.5135 297.486 100 298.087 100V98ZM426.904 98C426.397 98 425.951 98.3476 425.835 98.849L427.783 99.3005C427.688 99.7137 427.32 100 426.904 100V98ZM426 98.9035C426 98.4045 426.405 98 426.904 98V100C427.509 100 428 99.5091 428 98.9035H426ZM420 86C423.314 86 426 88.6863 426 92H428C428 87.5817 424.418 84 420 84V86ZM299.146 98.8424C299.031 98.3443 298.588 98 298.087 98V100C297.666 100 297.293 99.7107 297.197 99.2918L299.146 98.8424ZM414.665 84C413.78 84 412.897 83.8281 412.047 83.5122L411.35 85.3871C412.402 85.7775 413.52 86 414.665 86V84Z" fill="#0F252A"/>
<ellipse cx="362.509" cy="83.3058" rx="64.4911" ry="20.3058" fill="#486268" stroke="#0F252A" stroke-width="2"/>
<ellipse cx="362.509" cy="82.3057" rx="52.795" ry="13.1581" fill="#486268" stroke="#0F252A" stroke-width="2"/>
<path fill-rule="evenodd" clip-rule="evenodd" d="M492.699 124.45C493.65 124.803 494.65 125 495.665 125H501C504.866 125 508 128.134 508 132V138.904C508 138.957 507.957 139 507.904 139C507.858 139 507.819 139.031 507.809 139.075C505.372 149.589 477.507 157.881 443.491 157.881C409.467 157.881 381.596 149.585 379.171 139.067C379.162 139.028 379.127 139 379.087 139C379.039 139 379 138.961 379 138.913V137.576V133C379 128.582 382.582 125 387 125H391.317C392.332 125 393.333 124.803 394.284 124.45C406.113 120.058 423.768 117.27 443.491 117.27C463.214 117.27 480.869 120.058 492.699 124.45Z" fill="#486268"/>
<path d="M507.809 139.075L506.835 138.849L507.809 139.075ZM379.171 139.067L378.197 139.292L379.171 139.067ZM492.699 124.45L492.35 125.387L492.699 124.45ZM495.665 126H501V124H495.665V126ZM507 132V138.904H509V132H507ZM506.835 138.849C506.312 141.104 504.374 143.408 500.972 145.61C497.595 147.795 492.919 149.783 487.21 151.462C475.8 154.816 460.428 156.881 443.491 156.881V158.881C460.57 158.881 476.139 156.801 487.774 153.38C493.589 151.671 498.462 149.616 502.058 147.289C505.629 144.978 508.087 142.303 508.783 139.301L506.835 138.849ZM443.491 156.881C426.55 156.881 411.175 154.815 399.764 151.459C394.054 149.78 389.379 147.791 386.003 145.605C382.602 143.403 380.666 141.097 380.146 138.842L378.197 139.292C378.889 142.296 381.346 144.972 384.916 147.284C388.511 149.611 393.385 151.668 399.199 153.378C410.835 156.8 426.408 158.881 443.491 158.881V156.881ZM380 138.913V137.576H378V138.913H380ZM380 137.576V133H378V137.576H380ZM387 126H391.317V124H387V126ZM394.632 125.387C406.315 121.049 423.843 118.27 443.491 118.27V116.27C423.693 116.27 405.911 119.066 393.936 123.512L394.632 125.387ZM443.491 118.27C463.139 118.27 480.667 121.049 492.35 125.387L493.047 123.512C481.071 119.066 463.289 116.27 443.491 116.27V118.27ZM391.317 126C392.462 126 393.58 125.778 394.632 125.387L393.936 123.512C393.085 123.828 392.202 124 391.317 124V126ZM380 133C380 129.134 383.134 126 387 126V124C382.029 124 378 128.029 378 133H380ZM379.087 138C379.591 138 380 138.409 380 138.913H378C378 139.513 378.486 140 379.087 140V138ZM507.904 138C507.397 138 506.951 138.348 506.835 138.849L508.783 139.301C508.688 139.714 508.32 140 507.904 140V138ZM507 138.904C507 138.405 507.405 138 507.904 138V140C508.509 140 509 139.509 509 138.904H507ZM501 126C504.314 126 507 128.686 507 132H509C509 127.582 505.418 124 501 124V126ZM380.146 138.842C380.031 138.344 379.588 138 379.087 138V140C378.666 140 378.293 139.711 378.197 139.292L380.146 138.842ZM495.665 124C494.78 124 493.897 123.828 493.047 123.512L492.35 125.387C493.402 125.778 494.52 126 495.665 126V124Z" fill="#0F252A"/>
<ellipse cx="443.509" cy="123.306" rx="64.4911" ry="20.3058" fill="#486268" stroke="#0F252A" stroke-width="2"/>
<ellipse cx="443.509" cy="122.306" rx="52.795" ry="13.1581" fill="#486268" stroke="#0F252A" stroke-width="2"/>
<path fill-rule="evenodd" clip-rule="evenodd" d="M423.661 104.207C424.665 104.35 425.685 104.331 426.676 104.115L431.89 102.983C435.668 102.163 439.396 104.561 440.216 108.339L441.681 115.085C441.692 115.137 441.659 115.189 441.607 115.2C441.563 115.209 441.531 115.248 441.531 115.293C441.38 126.085 415.909 140.101 382.668 147.319C349.418 154.538 320.422 152.345 315.82 142.581C315.803 142.544 315.763 142.524 315.723 142.533C315.677 142.543 315.63 142.513 315.62 142.467L315.336 141.159L314.366 136.688C313.428 132.37 316.168 128.11 320.486 127.173L324.705 126.257C325.696 126.041 326.632 125.636 327.487 125.089C338.115 118.287 354.777 111.817 374.05 107.632C393.324 103.447 411.169 102.425 423.661 104.207Z" fill="#C2F0C9"/>
<path d="M441.531 115.293L440.531 115.279L441.531 115.293ZM441.681 115.085L440.704 115.297L441.681 115.085ZM440.216 108.339L441.193 108.127L440.216 108.339ZM315.82 142.581L314.916 143.007L315.82 142.581ZM315.723 142.533L315.935 143.51L315.723 142.533ZM426.889 105.093L432.102 103.961L431.678 102.006L426.464 103.138L426.889 105.093ZM439.239 108.551L440.704 115.297L442.658 114.873L441.193 108.127L439.239 108.551ZM440.531 115.279C440.498 117.593 439.093 120.257 436.235 123.13C433.399 125.982 429.252 128.917 424.029 131.769C413.59 137.468 399.007 142.748 382.455 146.342L382.88 148.296C399.57 144.672 414.343 139.335 424.988 133.524C430.307 130.62 434.633 127.577 437.653 124.54C440.653 121.525 442.488 118.389 442.531 115.307L440.531 115.279ZM382.455 146.342C365.9 149.936 350.437 151.179 338.573 150.321C332.638 149.892 327.647 148.94 323.884 147.52C320.093 146.089 317.711 144.248 316.725 142.154L314.916 143.007C316.23 145.796 319.199 147.89 323.178 149.391C327.185 150.903 332.384 151.879 338.429 152.316C350.526 153.191 366.185 151.921 382.88 148.296L382.455 146.342ZM316.597 142.255L316.314 140.947L314.359 141.372L314.643 142.679L316.597 142.255ZM316.314 140.947L315.343 136.476L313.388 136.9L314.359 141.372L316.314 140.947ZM320.698 128.15L324.917 127.234L324.493 125.279L320.274 126.195L320.698 128.15ZM328.026 125.932C338.523 119.213 355.062 112.778 374.263 108.609L373.838 106.655C354.491 110.856 337.707 117.361 326.948 124.247L328.026 125.932ZM374.263 108.609C393.463 104.44 411.182 103.437 423.52 105.197L423.802 103.217C411.156 101.413 393.185 102.454 373.838 106.655L374.263 108.609ZM324.917 127.234C326.036 126.991 327.081 126.536 328.026 125.932L326.948 124.247C326.183 124.736 325.357 125.092 324.493 125.279L324.917 127.234ZM315.343 136.476C314.522 132.698 316.92 128.97 320.698 128.15L320.274 126.195C315.416 127.25 312.334 132.043 313.388 136.9L315.343 136.476ZM315.511 141.556C316.004 141.449 316.49 141.762 316.597 142.255L314.643 142.679C314.77 143.265 315.349 143.637 315.935 143.51L315.511 141.556ZM441.395 114.223C440.9 114.33 440.538 114.764 440.531 115.279L442.531 115.307C442.525 115.731 442.226 116.089 441.819 116.177L441.395 114.223ZM440.704 115.297C440.598 114.81 440.907 114.329 441.395 114.223L441.819 116.177C442.411 116.049 442.786 115.465 442.658 114.873L440.704 115.297ZM432.102 103.961C435.34 103.258 438.536 105.313 439.239 108.551L441.193 108.127C440.256 103.809 435.996 101.069 431.678 102.006L432.102 103.961ZM316.725 142.154C316.507 141.692 316.001 141.449 315.511 141.556L315.935 143.51C315.525 143.599 315.099 143.396 314.916 143.007L316.725 142.154ZM426.464 103.138C425.6 103.326 424.701 103.345 423.802 103.217L423.52 105.197C424.63 105.356 425.77 105.336 426.889 105.093L426.464 103.138Z" fill="#35B24B"/>
<ellipse cx="375.348" cy="113.527" rx="64.4911" ry="20.3058" transform="rotate(-12.2505 375.348 113.527)" fill="#C2F0C9" stroke="#35B24B" stroke-width="2"/>
<ellipse cx="375.136" cy="112.55" rx="52.795" ry="13.1581" transform="rotate(-12.2505 375.136 112.55)" fill="#C2F0C9" stroke="#35B24B" stroke-width="2"/>
<path fill-rule="evenodd" clip-rule="evenodd" d="M197.422 47.5745C198.37 47.9358 199.37 48.1307 200.384 48.1307H213C217.418 48.1307 221 51.7125 221 56.1307V70.3334C221 70.4184 220.931 70.4873 220.846 70.4873C220.774 70.4873 220.712 70.5363 220.695 70.6067C216.805 87.3976 172.307 100.64 117.986 100.64C63.6519 100.64 19.1454 87.3912 15.2735 70.5945C15.2589 70.5313 15.2031 70.4873 15.1382 70.4873C15.0619 70.4873 15 70.4254 15 70.3491V68.2132V56.1307C15 51.7125 18.5817 48.1307 23 48.1307H35.5872C36.6018 48.1307 37.6021 47.9358 38.5501 47.5745C57.4395 40.3751 86.0109 35.787 117.986 35.787C149.961 35.787 178.532 40.3751 197.422 47.5745Z" fill="#486268"/>
<path d="M220.695 70.6067L219.721 70.381L220.695 70.6067ZM15.2735 70.5945L16.2479 70.3699L15.2735 70.5945ZM197.422 47.5745L197.778 46.6401L197.422 47.5745ZM200.384 49.1307H213V47.1307H200.384V49.1307ZM220 56.1307V70.3334H222V56.1307H220ZM219.721 70.381C218.835 74.2047 215.584 77.9953 210.101 81.5434C204.643 85.0752 197.118 88.2711 187.97 90.9603C169.681 96.3366 145.075 99.6395 117.986 99.6395V101.64C145.217 101.64 170.021 98.3214 188.534 92.8791C197.787 90.1589 205.511 86.896 211.188 83.2226C216.84 79.5654 220.61 75.4042 221.67 70.8324L219.721 70.381ZM117.986 99.6395C90.8901 99.6395 66.2786 96.335 47.9885 90.9564C38.8401 88.2661 31.315 85.0689 25.8586 81.5358C20.377 77.9863 17.1296 74.1945 16.2479 70.3699L14.299 70.8191C15.3534 75.3928 19.1212 79.5558 24.7715 83.2145C30.447 86.8895 38.1704 90.1538 47.4243 92.8751C65.9389 98.3198 90.7476 101.64 117.986 101.64V99.6395ZM16 70.3491L16 68.2132H14V70.3491H16ZM16 68.2132V56.1307H14V68.2132H16ZM23 49.1307H35.5872V47.1307H23V49.1307ZM38.9063 48.5089C57.6453 41.3668 86.0862 36.787 117.986 36.787V34.787C85.9357 34.787 57.2337 39.3834 38.194 46.6401L38.9063 48.5089ZM117.986 36.787C149.885 36.787 178.326 41.3668 197.065 48.5089L197.778 46.6401C178.738 39.3834 150.036 34.787 117.986 34.787V36.787ZM35.5872 49.1307C36.7305 49.1307 37.8512 48.911 38.9063 48.5089L38.194 46.6401C37.3529 46.9606 36.4731 47.1307 35.5872 47.1307V49.1307ZM16 56.1307C16 52.2647 19.134 49.1307 23 49.1307V47.1307C18.0294 47.1307 14 51.1602 14 56.1307H16ZM15.1382 69.4873C15.6142 69.4873 16 69.8732 16 70.3491H14C14 70.9777 14.5096 71.4873 15.1382 71.4873V69.4873ZM220.846 69.4873C220.313 69.4873 219.843 69.8533 219.721 70.381L221.67 70.8324C221.58 71.2193 221.235 71.4873 220.846 71.4873V69.4873ZM220 70.3334C220 69.8661 220.379 69.4873 220.846 69.4873V71.4873C221.483 71.4873 222 70.9707 222 70.3334H220ZM213 49.1307C216.866 49.1307 220 52.2647 220 56.1307H222C222 51.1602 217.971 47.1307 213 47.1307V49.1307ZM16.2479 70.3699C16.1276 69.8481 15.664 69.4873 15.1382 69.4873V71.4873C14.7422 71.4873 14.3902 71.2145 14.299 70.8191L16.2479 70.3699ZM200.384 47.1307C199.499 47.1307 198.619 46.9606 197.778 46.6401L197.065 48.5089C198.12 48.911 199.241 49.1307 200.384 49.1307V47.1307Z" fill="#0F252A"/>
<ellipse cx="118.014" cy="45.4263" rx="102.986" ry="32.4263" fill="#486268" stroke="#0F252A" stroke-width="2"/>
<ellipse cx="118.014" cy="43.8307" rx="84.3083" ry="21.0122" fill="#486268" stroke="#0F252A" stroke-width="2"/>
<path fill-rule="evenodd" clip-rule="evenodd" d="M129.614 27.4168C130.588 27.7915 131.618 28 132.661 28H138.5C142.642 28 146 31.3579 146 35.5V42.9417C146 42.9739 145.974 43 145.942 43C145.913 43 145.889 43.0206 145.884 43.0489C143.925 55.1034 112.262 64.6877 73.49 64.6877C34.7081 64.6877 3.03936 55.0987 1.09465 43.0399C1.09091 43.0168 1.07103 43 1.04758 43C1.0213 43 1 42.9787 1 42.9524V41.8634L1 36C1 31.5817 4.58172 28 9 28H14.3186C15.3623 28 16.3917 27.7915 17.3658 27.4168C30.6594 22.3029 50.8642 19.0391 73.49 19.0391C96.1159 19.0391 116.321 22.3029 129.614 27.4168Z" fill="#486268"/>
<path d="M17.3658 27.4168L17.7248 28.3501L17.3658 27.4168ZM145.884 43.0489L146.871 43.2094L145.884 43.0489ZM1.09465 43.0399L0.107404 43.1991L1.09465 43.0399ZM129.614 27.4168L129.255 28.3501L129.614 27.4168ZM132.661 29H138.5V27H132.661V29ZM145 35.5V42.9417H147V35.5H145ZM144.897 42.8885C144.473 45.499 142.4 48.1527 138.639 50.6862C134.904 53.2031 129.655 55.4955 123.205 57.4309C110.312 61.2993 92.8043 63.6877 73.49 63.6877V65.6877C92.9479 65.6877 110.657 63.2839 123.779 59.3466C130.336 57.3791 135.793 55.0153 139.757 52.3448C143.696 49.6909 146.316 46.6261 146.871 43.2094L144.897 42.8885ZM73.49 63.6877C54.1709 63.6877 36.659 61.2981 23.7659 57.428C17.3153 55.4918 12.0665 53.1984 8.33219 50.6805C4.57324 48.1461 2.50297 45.4917 2.08189 42.8807L0.107404 43.1991C0.658682 46.6175 3.27628 49.6838 7.21411 52.3388C11.1765 55.0104 16.6335 57.3753 23.1909 59.3436C36.3138 63.2827 54.0273 65.6877 73.49 65.6877V63.6877ZM2 42.9524V41.8634H0L0 42.9524H2ZM2 41.8634L2 36H0L0 41.8634H2ZM9 29H14.3186V27H9V29ZM17.7248 28.3501C30.8666 23.2946 50.9394 20.0391 73.49 20.0391V18.0391C50.789 18.0391 30.4522 21.3111 17.0067 26.4835L17.7248 28.3501ZM73.49 20.0391C96.0407 20.0391 116.113 23.2946 129.255 28.3501L129.973 26.4835C116.528 21.3111 96.1911 18.0391 73.49 18.0391V20.0391ZM14.3186 29C15.4959 29 16.6467 28.7648 17.7248 28.3501L17.0067 26.4835C16.1366 26.8182 15.2286 27 14.3186 27V29ZM2 36C2 32.134 5.13401 29 9 29V27C4.02944 27 0 31.0294 0 36H2ZM1.04758 42C1.57359 42 2 42.4264 2 42.9524H0C0 43.531 0.469016 44 1.04758 44V42ZM145.942 42C145.427 42 144.981 42.3721 144.897 42.8885L146.871 43.2094C146.796 43.6691 146.399 44 145.942 44V42ZM145 42.9417C145 42.4216 145.422 42 145.942 42V44C146.526 44 147 43.5261 147 42.9417H145ZM138.5 29C142.09 29 145 31.9102 145 35.5H147C147 30.8056 143.194 27 138.5 27V29ZM2.08189 42.8807C1.99923 42.3681 1.55691 42 1.04758 42V44C0.585146 44 0.182601 43.6654 0.107404 43.1991L2.08189 42.8807ZM132.661 27C131.751 27 130.843 26.8182 129.973 26.4835L129.255 28.3501C130.333 28.7648 131.484 29 132.661 29V27Z" fill="#0F252A"/>
<ellipse cx="73.5099" cy="25.8243" rx="72.49" ry="22.8243" fill="#486268" stroke="#0F252A" stroke-width="2"/>
<ellipse cx="73.5098" cy="24.7003" rx="59.3432" ry="14.7902" fill="#486268" stroke="#0F252A" stroke-width="2"/>
<path fill-rule="evenodd" clip-rule="evenodd" d="M314.621 275.044C315.575 275.392 316.575 275.59 317.589 275.59H321.547C324.638 275.59 327.144 278.096 327.144 281.187V286.707C327.144 286.75 327.11 286.784 327.067 286.784C327.031 286.784 327 286.809 326.992 286.844C325.043 295.251 302.763 301.881 275.565 301.881C248.36 301.881 226.076 295.248 224.137 286.838C224.13 286.806 224.102 286.784 224.069 286.784C224.031 286.784 224 286.753 224 286.715V285.646V283.59C224 279.172 227.582 275.59 232 275.59H233.541C234.555 275.59 235.556 275.392 236.509 275.044C245.965 271.594 259.955 269.41 275.565 269.41C291.175 269.41 305.165 271.594 314.621 275.044Z" fill="#C2F0C9"/>
<path d="M236.509 275.044L236.166 274.105L236.509 275.044ZM326.992 286.844L327.966 287.07L326.992 286.844ZM314.621 275.044L314.964 274.105L314.621 275.044ZM317.589 276.59H321.547V274.59H317.589V276.59ZM326.144 281.187V286.707H328.144V281.187H326.144ZM326.018 286.618C325.617 288.346 324.119 290.152 321.416 291.901C318.738 293.634 315.019 295.217 310.465 296.556C301.364 299.232 289.093 300.881 275.565 300.881V302.881C289.235 302.881 301.704 301.216 311.029 298.475C315.688 297.105 319.605 295.455 322.502 293.58C325.374 291.722 327.392 289.546 327.966 287.07L326.018 286.618ZM275.565 300.881C262.034 300.881 249.76 299.231 240.658 296.554C236.104 295.215 232.386 293.631 229.708 291.897C227.006 290.147 225.51 288.341 225.111 286.613L223.163 287.063C223.734 289.54 225.75 291.717 228.621 293.576C231.518 295.451 235.434 297.103 240.094 298.473C249.42 301.216 261.891 302.881 275.565 302.881V300.881ZM225 286.715V285.646H223V286.715H225ZM225 285.646V283.59H223V285.646H225ZM232 276.59H233.541V274.59H232V276.59ZM236.851 275.984C246.164 272.586 260.03 270.41 275.565 270.41V268.41C259.88 268.41 245.765 270.602 236.166 274.105L236.851 275.984ZM275.565 270.41C291.1 270.41 304.966 272.586 314.279 275.984L314.964 274.105C305.365 270.602 291.25 268.41 275.565 268.41V270.41ZM233.541 276.59C234.686 276.59 235.802 276.367 236.851 275.984L236.166 274.105C235.309 274.418 234.425 274.59 233.541 274.59V276.59ZM225 283.59C225 279.725 228.134 276.59 232 276.59V274.59C227.029 274.59 223 278.62 223 283.59H225ZM224.069 285.784C224.583 285.784 225 286.201 225 286.715H223C223 287.306 223.479 287.784 224.069 287.784V285.784ZM327.067 285.784C326.57 285.784 326.132 286.126 326.018 286.618L327.966 287.07C327.868 287.492 327.492 287.784 327.067 287.784V285.784ZM326.144 286.707C326.144 286.198 326.557 285.784 327.067 285.784V287.784C327.662 287.784 328.144 287.302 328.144 286.707H326.144ZM321.547 276.59C324.086 276.59 326.144 278.649 326.144 281.187H328.144C328.144 277.544 325.191 274.59 321.547 274.59V276.59ZM225.111 286.613C224.998 286.123 224.563 285.784 224.069 285.784V287.784C223.641 287.784 223.261 287.49 223.163 287.063L225.111 286.613ZM317.589 274.59C316.705 274.59 315.821 274.418 314.964 274.105L314.279 275.984C315.328 276.367 316.444 276.59 317.589 276.59V274.59Z" fill="#35B24B"/>
<ellipse cx="275.579" cy="274.236" rx="51.565" ry="16.2358" fill="#C2F0C9" stroke="#35B24B" stroke-width="2"/>
<ellipse cx="275.579" cy="273.436" rx="42.2132" ry="10.5208" fill="#C2F0C9" stroke="#35B24B" stroke-width="2"/>
<path fill-rule="evenodd" clip-rule="evenodd" d="M518.621 327.044C519.575 327.392 520.575 327.59 521.589 327.59H525.547C528.638 327.59 531.144 330.096 531.144 333.187V338.707C531.144 338.75 531.11 338.784 531.067 338.784C531.031 338.784 531 338.809 530.992 338.844C529.043 347.251 506.763 353.881 479.565 353.881C452.36 353.881 430.076 347.248 428.137 338.838C428.13 338.806 428.102 338.784 428.069 338.784C428.031 338.784 428 338.753 428 338.715V337.646V335.59C428 331.172 431.582 327.59 436 327.59H437.541C438.555 327.59 439.556 327.392 440.509 327.044C449.965 323.594 463.955 321.41 479.565 321.41C495.175 321.41 509.165 323.594 518.621 327.044Z" fill="#486268"/>
<path d="M440.509 327.044L440.166 326.105L440.509 327.044ZM530.992 338.844L531.966 339.07L530.992 338.844ZM518.621 327.044L518.964 326.105L518.621 327.044ZM521.589 328.59H525.547V326.59H521.589V328.59ZM530.144 333.187V338.707H532.144V333.187H530.144ZM530.018 338.618C529.617 340.346 528.119 342.152 525.416 343.901C522.738 345.634 519.019 347.217 514.465 348.556C505.364 351.232 493.093 352.881 479.565 352.881V354.881C493.235 354.881 505.704 353.216 515.029 350.475C519.688 349.105 523.605 347.455 526.502 345.58C529.374 343.722 531.392 341.546 531.966 339.07L530.018 338.618ZM479.565 352.881C466.034 352.881 453.76 351.231 444.658 348.554C440.104 347.215 436.386 345.631 433.708 343.897C431.006 342.147 429.51 340.341 429.111 338.613L427.163 339.063C427.734 341.54 429.75 343.717 432.621 345.576C435.518 347.451 439.434 349.103 444.094 350.473C453.42 353.216 465.891 354.881 479.565 354.881V352.881ZM429 338.715V337.646H427V338.715H429ZM429 337.646V335.59H427V337.646H429ZM436 328.59H437.541V326.59H436V328.59ZM440.851 327.984C450.164 324.586 464.03 322.41 479.565 322.41V320.41C463.88 320.41 449.765 322.602 440.166 326.105L440.851 327.984ZM479.565 322.41C495.1 322.41 508.966 324.586 518.279 327.984L518.964 326.105C509.365 322.602 495.25 320.41 479.565 320.41V322.41ZM437.541 328.59C438.686 328.59 439.802 328.367 440.851 327.984L440.166 326.105C439.309 326.418 438.425 326.59 437.541 326.59V328.59ZM429 335.59C429 331.725 432.134 328.59 436 328.59V326.59C431.029 326.59 427 330.62 427 335.59H429ZM428.069 337.784C428.583 337.784 429 338.201 429 338.715H427C427 339.306 427.479 339.784 428.069 339.784V337.784ZM531.067 337.784C530.57 337.784 530.132 338.126 530.018 338.618L531.966 339.07C531.868 339.492 531.492 339.784 531.067 339.784V337.784ZM530.144 338.707C530.144 338.198 530.557 337.784 531.067 337.784V339.784C531.662 339.784 532.144 339.302 532.144 338.707H530.144ZM525.547 328.59C528.086 328.59 530.144 330.649 530.144 333.187H532.144C532.144 329.544 529.191 326.59 525.547 326.59V328.59ZM429.111 338.613C428.998 338.123 428.563 337.784 428.069 337.784V339.784C427.641 339.784 427.261 339.49 427.163 339.063L429.111 338.613ZM521.589 326.59C520.705 326.59 519.821 326.418 518.964 326.105L518.279 327.984C519.328 328.367 520.444 328.59 521.589 328.59V326.59Z" fill="#0F252A"/>
<ellipse cx="479.579" cy="326.236" rx="51.565" ry="16.2358" fill="#486268" stroke="#0F252A" stroke-width="2"/>
<ellipse cx="479.579" cy="325.436" rx="42.2132" ry="10.5208" fill="#486268" stroke="#0F252A" stroke-width="2"/>
<path fill-rule="evenodd" clip-rule="evenodd" d="M799.621 139.044C800.575 139.392 801.575 139.59 802.589 139.59H806.547C809.638 139.59 812.144 142.096 812.144 145.187V150.707C812.144 150.75 812.11 150.784 812.067 150.784C812.031 150.784 812 150.809 811.992 150.844C810.043 159.251 787.763 165.881 760.565 165.881C733.36 165.881 711.076 159.248 709.137 150.838C709.13 150.806 709.102 150.784 709.069 150.784C709.031 150.784 709 150.753 709 150.715V149.646V147.59C709 143.172 712.582 139.59 717 139.59H718.541C719.555 139.59 720.556 139.392 721.509 139.044C730.965 135.594 744.955 133.41 760.565 133.41C776.175 133.41 790.165 135.594 799.621 139.044Z" fill="#486268"/>
<path d="M721.509 139.044L721.166 138.105L721.509 139.044ZM811.992 150.844L812.966 151.07L811.992 150.844ZM799.621 139.044L799.964 138.105L799.621 139.044ZM802.589 140.59H806.547V138.59H802.589V140.59ZM811.144 145.187V150.707H813.144V145.187H811.144ZM811.018 150.618C810.617 152.346 809.119 154.152 806.416 155.901C803.738 157.634 800.019 159.217 795.465 160.556C786.364 163.232 774.093 164.881 760.565 164.881V166.881C774.235 166.881 786.704 165.216 796.029 162.475C800.688 161.105 804.605 159.455 807.502 157.58C810.374 155.722 812.392 153.546 812.966 151.07L811.018 150.618ZM760.565 164.881C747.034 164.881 734.76 163.231 725.658 160.554C721.104 159.215 717.386 157.631 714.708 155.897C712.006 154.147 710.51 152.341 710.111 150.613L708.163 151.063C708.734 153.54 710.75 155.717 713.621 157.576C716.518 159.451 720.434 161.103 725.094 162.473C734.42 165.216 746.891 166.881 760.565 166.881V164.881ZM710 150.715V149.646H708V150.715H710ZM710 149.646V147.59H708V149.646H710ZM717 140.59H718.541V138.59H717V140.59ZM721.851 139.984C731.164 136.586 745.03 134.41 760.565 134.41V132.41C744.88 132.41 730.765 134.602 721.166 138.105L721.851 139.984ZM760.565 134.41C776.1 134.41 789.966 136.586 799.279 139.984L799.964 138.105C790.365 134.602 776.25 132.41 760.565 132.41V134.41ZM718.541 140.59C719.686 140.59 720.802 140.367 721.851 139.984L721.166 138.105C720.309 138.418 719.425 138.59 718.541 138.59V140.59ZM710 147.59C710 143.725 713.134 140.59 717 140.59V138.59C712.029 138.59 708 142.62 708 147.59H710ZM709.069 149.784C709.583 149.784 710 150.201 710 150.715H708C708 151.306 708.479 151.784 709.069 151.784V149.784ZM812.067 149.784C811.57 149.784 811.132 150.126 811.018 150.618L812.966 151.07C812.868 151.492 812.492 151.784 812.067 151.784V149.784ZM811.144 150.707C811.144 150.198 811.557 149.784 812.067 149.784V151.784C812.662 151.784 813.144 151.302 813.144 150.707H811.144ZM806.547 140.59C809.086 140.59 811.144 142.649 811.144 145.187H813.144C813.144 141.544 810.191 138.59 806.547 138.59V140.59ZM710.111 150.613C709.998 150.123 709.563 149.784 709.069 149.784V151.784C708.641 151.784 708.261 151.49 708.163 151.063L710.111 150.613ZM802.589 138.59C801.705 138.59 800.821 138.418 799.964 138.105L799.279 139.984C800.328 140.367 801.444 140.59 802.589 140.59V138.59Z" fill="#0F252A"/>
<ellipse cx="760.579" cy="138.236" rx="51.565" ry="16.2358" fill="#486268" stroke="#0F252A" stroke-width="2"/>
<ellipse cx="760.579" cy="137.436" rx="42.2132" ry="10.5208" fill="#486268" stroke="#0F252A" stroke-width="2"/>
<path fill-rule="evenodd" clip-rule="evenodd" d="M656.699 125.45C657.65 125.803 658.65 126 659.665 126H665C668.866 126 672 129.134 672 133V139.904C672 139.957 671.957 140 671.904 140C671.858 140 671.819 140.031 671.809 140.075C669.372 150.589 641.507 158.881 607.491 158.881C573.467 158.881 545.596 150.585 543.171 140.067C543.162 140.028 543.127 140 543.087 140C543.039 140 543 139.961 543 139.913V138.576V134C543 129.582 546.582 126 551 126H555.317C556.332 126 557.333 125.803 558.284 125.45C570.113 121.058 587.768 118.27 607.491 118.27C627.214 118.27 644.869 121.058 656.699 125.45Z" fill="#486268"/>
<path d="M671.809 140.075L670.835 139.849L671.809 140.075ZM543.171 140.067L542.197 140.292L543.171 140.067ZM656.699 125.45L656.35 126.387L656.699 125.45ZM659.665 127H665V125H659.665V127ZM671 133V139.904H673V133H671ZM670.835 139.849C670.312 142.104 668.374 144.408 664.972 146.61C661.595 148.795 656.919 150.783 651.21 152.462C639.8 155.816 624.428 157.881 607.491 157.881V159.881C624.57 159.881 640.139 157.801 651.774 154.38C657.589 152.671 662.462 150.616 666.058 148.289C669.629 145.978 672.087 143.303 672.783 140.301L670.835 139.849ZM607.491 157.881C590.55 157.881 575.175 155.815 563.764 152.459C558.054 150.78 553.379 148.791 550.003 146.605C546.602 144.403 544.666 142.097 544.146 139.842L542.197 140.292C542.889 143.296 545.346 145.972 548.916 148.284C552.511 150.611 557.385 152.668 563.199 154.378C574.835 157.8 590.408 159.881 607.491 159.881V157.881ZM544 139.913V138.576H542V139.913H544ZM544 138.576V134H542V138.576H544ZM551 127H555.317V125H551V127ZM558.632 126.387C570.315 122.049 587.843 119.27 607.491 119.27V117.27C587.693 117.27 569.911 120.066 557.936 124.512L558.632 126.387ZM607.491 119.27C627.139 119.27 644.667 122.049 656.35 126.387L657.047 124.512C645.071 120.066 627.289 117.27 607.491 117.27V119.27ZM555.317 127C556.462 127 557.58 126.778 558.632 126.387L557.936 124.512C557.085 124.828 556.202 125 555.317 125V127ZM544 134C544 130.134 547.134 127 551 127V125C546.029 125 542 129.029 542 134H544ZM543.087 139C543.591 139 544 139.409 544 139.913H542C542 140.513 542.486 141 543.087 141V139ZM671.904 139C671.397 139 670.951 139.348 670.835 139.849L672.783 140.301C672.688 140.714 672.32 141 671.904 141V139ZM671 139.904C671 139.405 671.405 139 671.904 139V141C672.509 141 673 140.509 673 139.904H671ZM665 127C668.314 127 671 129.686 671 133H673C673 128.582 669.418 125 665 125V127ZM544.146 139.842C544.031 139.344 543.588 139 543.087 139V141C542.666 141 542.293 140.711 542.197 140.292L544.146 139.842ZM659.665 125C658.78 125 657.897 124.828 657.047 124.512L656.35 126.387C657.402 126.778 658.52 127 659.665 127V125Z" fill="#0F252A"/>
<ellipse cx="607.509" cy="124.306" rx="64.4911" ry="20.3058" fill="#486268" stroke="#0F252A" stroke-width="2"/>
<ellipse cx="607.509" cy="123.306" rx="52.795" ry="13.1581" fill="#486268" stroke="#0F252A" stroke-width="2"/>
<path fill-rule="evenodd" clip-rule="evenodd" d="M719.699 165.45C720.65 165.803 721.65 166 722.665 166H728C731.866 166 735 169.134 735 173V179.904C735 179.957 734.957 180 734.904 180C734.858 180 734.819 180.031 734.809 180.075C732.372 190.589 704.507 198.881 670.491 198.881C636.467 198.881 608.596 190.585 606.171 180.067C606.162 180.028 606.127 180 606.087 180C606.039 180 606 179.961 606 179.913V178.576V174C606 169.582 609.582 166 614 166H618.317C619.332 166 620.333 165.803 621.284 165.45C633.113 161.058 650.768 158.27 670.491 158.27C690.214 158.27 707.869 161.058 719.699 165.45Z" fill="#486268"/>
<path d="M734.809 180.075L733.835 179.849L734.809 180.075ZM606.171 180.067L605.197 180.292L606.171 180.067ZM719.699 165.45L719.35 166.387L719.699 165.45ZM722.665 167H728V165H722.665V167ZM734 173V179.904H736V173H734ZM733.835 179.849C733.312 182.104 731.374 184.408 727.972 186.61C724.595 188.795 719.919 190.783 714.21 192.462C702.8 195.816 687.428 197.881 670.491 197.881V199.881C687.57 199.881 703.139 197.801 714.774 194.38C720.589 192.671 725.462 190.616 729.058 188.289C732.629 185.978 735.087 183.303 735.783 180.301L733.835 179.849ZM670.491 197.881C653.55 197.881 638.175 195.815 626.764 192.459C621.054 190.78 616.379 188.791 613.003 186.605C609.602 184.403 607.666 182.097 607.146 179.842L605.197 180.292C605.889 183.296 608.346 185.972 611.916 188.284C615.511 190.611 620.385 192.668 626.199 194.378C637.835 197.8 653.408 199.881 670.491 199.881V197.881ZM607 179.913V178.576H605V179.913H607ZM607 178.576V174H605V178.576H607ZM614 167H618.317V165H614V167ZM621.632 166.387C633.315 162.049 650.843 159.27 670.491 159.27V157.27C650.693 157.27 632.911 160.066 620.936 164.512L621.632 166.387ZM670.491 159.27C690.139 159.27 707.667 162.049 719.35 166.387L720.047 164.512C708.071 160.066 690.289 157.27 670.491 157.27V159.27ZM618.317 167C619.462 167 620.58 166.778 621.632 166.387L620.936 164.512C620.085 164.828 619.202 165 618.317 165V167ZM607 174C607 170.134 610.134 167 614 167V165C609.029 165 605 169.029 605 174H607ZM606.087 179C606.591 179 607 179.409 607 179.913H605C605 180.513 605.486 181 606.087 181V179ZM734.904 179C734.397 179 733.951 179.348 733.835 179.849L735.783 180.301C735.688 180.714 735.32 181 734.904 181V179ZM734 179.904C734 179.405 734.405 179 734.904 179V181C735.509 181 736 180.509 736 179.904H734ZM728 167C731.314 167 734 169.686 734 173H736C736 168.582 732.418 165 728 165V167ZM607.146 179.842C607.031 179.344 606.588 179 606.087 179V181C605.666 181 605.293 180.711 605.197 180.292L607.146 179.842ZM722.665 165C721.78 165 720.897 164.828 720.047 164.512L719.35 166.387C720.402 166.778 721.52 167 722.665 167V165Z" fill="#0F252A"/>
<ellipse cx="670.509" cy="164.306" rx="64.4911" ry="20.3058" fill="#486268" stroke="#0F252A" stroke-width="2"/>
<ellipse cx="670.509" cy="163.306" rx="52.795" ry="13.1581" fill="#486268" stroke="#0F252A" stroke-width="2"/>
<path fill-rule="evenodd" clip-rule="evenodd" d="M740.015 123.542C740.962 123.904 741.961 124.111 742.976 124.121L748.31 124.172C752.176 124.209 755.28 127.373 755.243 131.239L755.176 138.142C755.176 138.195 755.132 138.238 755.079 138.238C755.034 138.237 754.995 138.267 754.984 138.311C752.446 148.802 724.503 156.826 690.488 156.499C656.465 156.172 628.676 147.608 626.352 137.067C626.343 137.027 626.309 137 626.268 136.999C626.22 136.999 626.182 136.96 626.182 136.912L626.195 135.574L626.239 130.999C626.282 126.581 629.898 123.033 634.316 123.076L638.633 123.117C639.647 123.127 640.65 122.94 641.604 122.596C653.476 118.317 671.157 115.7 690.879 115.889C710.6 116.079 728.228 119.036 740.015 123.542Z" fill="#C2F0C9"/>
<path d="M626.195 135.574L625.195 135.565L626.195 135.574ZM754.984 138.311L754.012 138.076L754.984 138.311ZM626.352 137.067L625.376 137.282L626.352 137.067ZM740.015 123.542L739.658 124.476L740.015 123.542ZM742.966 125.121L748.301 125.172L748.32 123.172L742.985 123.121L742.966 125.121ZM754.243 131.229L754.176 138.132L756.176 138.152L756.243 131.248L754.243 131.229ZM754.012 138.076C753.468 140.326 751.507 142.612 748.084 144.78C744.686 146.933 739.992 148.877 734.267 150.5C722.825 153.744 707.434 155.662 690.498 155.499L690.478 157.499C707.557 157.663 723.145 155.732 734.813 152.424C740.643 150.771 745.536 148.762 749.154 146.47C752.747 144.194 755.231 141.542 755.956 138.547L754.012 138.076ZM690.498 155.499C673.558 155.336 658.203 153.122 646.824 149.657C641.132 147.923 636.476 145.889 633.121 143.67C629.741 141.435 627.827 139.112 627.329 136.852L625.376 137.282C626.039 140.293 628.47 142.993 632.018 145.338C635.59 147.701 640.444 149.804 646.242 151.57C657.844 155.103 673.396 157.335 690.478 157.499L690.498 155.499ZM627.182 136.921L627.195 135.584L625.195 135.565L625.182 136.902L627.182 136.921ZM627.195 135.584L627.239 131.008L625.239 130.989L625.195 135.565L627.195 135.584ZM634.306 124.076L638.623 124.117L638.642 122.117L634.325 122.076L634.306 124.076ZM641.943 123.536C653.668 119.311 671.222 116.7 690.869 116.889L690.888 114.889C671.091 114.699 653.283 117.324 641.265 121.655L641.943 123.536ZM690.869 116.889C710.516 117.078 728.016 120.026 739.658 124.476L740.372 122.608C728.439 118.046 710.685 115.08 690.888 114.889L690.869 116.889ZM638.623 124.117C639.768 124.128 640.888 123.917 641.943 123.536L641.265 121.655C640.411 121.963 639.527 122.126 638.642 122.117L638.623 124.117ZM627.239 131.008C627.276 127.142 630.44 124.039 634.306 124.076L634.325 122.076C629.355 122.028 625.287 126.019 625.239 130.989L627.239 131.008ZM626.278 135.999C626.782 136.004 627.187 136.417 627.182 136.921L625.182 136.902C625.177 137.502 625.658 137.993 626.258 137.999L626.278 135.999ZM755.089 137.238C754.582 137.233 754.133 137.576 754.012 138.076L755.956 138.547C755.856 138.959 755.485 139.242 755.069 139.238L755.089 137.238ZM754.176 138.132C754.181 137.633 754.59 137.233 755.089 137.238L755.069 139.238C755.675 139.243 756.171 138.757 756.176 138.152L754.176 138.132ZM748.301 125.172C751.614 125.204 754.275 127.916 754.243 131.229L756.243 131.248C756.285 126.83 752.738 123.214 748.32 123.172L748.301 125.172ZM627.329 136.852C627.219 136.353 626.779 136.004 626.278 135.999L626.258 137.999C625.838 137.995 625.468 137.702 625.376 137.282L627.329 136.852ZM742.985 123.121C742.101 123.112 741.219 122.932 740.372 122.608L739.658 124.476C740.705 124.876 741.821 125.11 742.966 125.121L742.985 123.121Z" fill="#35B24B"/>
<ellipse cx="690.838" cy="121.925" rx="64.4911" ry="20.3058" transform="rotate(0.550822 690.838 121.925)" fill="#C2F0C9" stroke="#35B24B" stroke-width="2"/>
<ellipse cx="690.848" cy="120.925" rx="52.795" ry="13.1581" transform="rotate(0.550822 690.848 120.925)" fill="#C2F0C9" stroke="#35B24B" stroke-width="2"/>
<path fill-rule="evenodd" clip-rule="evenodd" d="M747.424 273.575C748.372 273.937 749.372 274.132 750.387 274.132H763C767.418 274.132 771 277.713 771 282.132V296.334C771 296.419 770.931 296.488 770.846 296.488C770.774 296.488 770.711 296.537 770.695 296.608C766.803 313.398 722.306 326.64 667.986 326.64C613.653 326.64 569.147 313.392 565.274 296.596C565.259 296.532 565.203 296.488 565.138 296.488C565.062 296.488 565 296.426 565 296.35V294.213V282.132C565 277.713 568.582 274.132 573 274.132H585.585C586.599 274.132 587.6 273.937 588.548 273.575C607.437 266.375 636.01 261.787 667.986 261.787C699.962 261.787 728.534 266.375 747.424 273.575Z" fill="#486268"/>
<path d="M770.695 296.608L771.669 296.834L770.695 296.608ZM565.274 296.596L564.299 296.82L565.274 296.596ZM747.424 273.575L747.068 274.51L747.424 273.575ZM750.387 275.132H763V273.132H750.387V275.132ZM770 282.132V296.334H772V282.132H770ZM769.721 296.382C768.835 300.206 765.584 303.996 760.1 307.544C754.642 311.076 747.116 314.272 737.969 316.961C719.68 322.337 695.074 325.64 667.986 325.64V327.64C695.217 327.64 720.02 324.322 738.533 318.879C747.786 316.159 755.51 312.897 761.187 309.223C766.839 305.566 770.61 301.405 771.669 296.834L769.721 296.382ZM667.986 325.64C640.891 325.64 616.28 322.335 597.99 316.957C588.841 314.266 581.316 311.069 575.86 307.536C570.378 303.987 567.13 300.195 566.248 296.371L564.299 296.82C565.354 301.394 569.122 305.557 574.773 309.215C580.448 312.89 588.172 316.154 597.425 318.875C615.94 324.32 640.748 327.64 667.986 327.64V325.64ZM566 296.35V294.213H564V296.35H566ZM566 294.213V282.132H564V294.213H566ZM573 275.132H585.585V273.132H573V275.132ZM588.904 274.51C607.643 267.367 636.085 262.787 667.986 262.787V260.787C635.934 260.787 607.231 265.384 588.192 272.641L588.904 274.51ZM667.986 262.787C699.887 262.787 728.329 267.367 747.068 274.51L747.78 272.641C728.74 265.384 700.037 260.787 667.986 260.787V262.787ZM585.585 275.132C586.728 275.132 587.849 274.912 588.904 274.51L588.192 272.641C587.351 272.962 586.471 273.132 585.585 273.132V275.132ZM566 282.132C566 278.266 569.134 275.132 573 275.132V273.132C568.029 273.132 564 277.161 564 282.132H566ZM565.138 295.488C565.614 295.488 566 295.874 566 296.35H564C564 296.979 564.51 297.488 565.138 297.488V295.488ZM770.846 295.488C770.312 295.488 769.843 295.854 769.721 296.382L771.669 296.834C771.58 297.22 771.235 297.488 770.846 297.488V295.488ZM770 296.334C770 295.867 770.379 295.488 770.846 295.488V297.488C771.483 297.488 772 296.972 772 296.334H770ZM763 275.132C766.866 275.132 770 278.266 770 282.132H772C772 277.161 767.971 273.132 763 273.132V275.132ZM566.248 296.371C566.128 295.849 565.664 295.488 565.138 295.488V297.488C564.742 297.488 564.39 297.215 564.299 296.82L566.248 296.371ZM750.387 273.132C749.501 273.132 748.621 272.962 747.78 272.641L747.068 274.51C748.123 274.912 749.243 275.132 750.387 275.132V273.132Z" fill="#0F252A"/>
<ellipse cx="668.014" cy="271.426" rx="102.986" ry="32.4263" fill="#486268" stroke="#0F252A" stroke-width="2"/>
<ellipse cx="668.014" cy="269.831" rx="84.3083" ry="21.0122" fill="#486268" stroke="#0F252A" stroke-width="2"/>
<path fill-rule="evenodd" clip-rule="evenodd" d="M451.183 303.837C452.179 304.027 453.199 304.062 454.2 303.899L458.106 303.262C461.157 302.765 464.033 304.836 464.531 307.887L465.418 313.335C465.425 313.377 465.396 313.416 465.354 313.423C465.319 313.429 465.292 313.458 465.29 313.494C464.718 322.105 443.794 332.232 416.95 336.605C390.099 340.979 367.038 338.016 363.772 330.027C363.76 329.997 363.729 329.98 363.697 329.985C363.659 329.991 363.623 329.965 363.617 329.928L363.445 328.872L363.115 326.843C362.404 322.483 365.364 318.372 369.724 317.661L371.245 317.413C372.246 317.25 373.202 316.894 374.087 316.397C382.865 311.471 396.322 307.066 411.729 304.556C427.136 302.046 441.295 301.952 451.183 303.837Z" fill="#486268"/>
<path d="M363.445 328.872L364.432 328.711L363.445 328.872ZM374.087 316.397L373.597 315.525L374.087 316.397ZM369.724 317.661L369.885 318.648L369.724 317.661ZM465.29 313.494L466.287 313.561L465.29 313.494ZM465.418 313.335L464.431 313.495L465.418 313.335ZM464.531 307.887L463.544 308.047L464.531 307.887ZM363.697 329.985L363.857 330.972L363.697 329.985ZM451.183 303.837L451.37 302.855L451.183 303.837ZM454.361 304.886L458.267 304.249L457.946 302.275L454.039 302.912L454.361 304.886ZM463.544 308.047L464.431 313.495L466.405 313.174L465.518 307.726L463.544 308.047ZM464.292 313.428C464.174 315.198 462.986 317.221 460.599 319.382C458.235 321.523 454.819 323.684 450.54 325.737C441.987 329.841 430.141 333.443 416.789 335.618L417.111 337.592C430.603 335.394 442.641 331.746 451.405 327.54C455.783 325.439 459.384 323.181 461.942 320.864C464.477 318.568 466.119 316.096 466.287 313.561L464.292 313.428ZM416.789 335.618C403.434 337.794 391.055 338.138 381.641 336.96C376.931 336.37 373.006 335.405 370.085 334.124C367.136 332.832 365.369 331.29 364.698 329.648L362.847 330.405C363.808 332.758 366.149 334.583 369.282 335.956C372.442 337.341 376.573 338.341 381.393 338.944C391.039 340.152 403.615 339.791 417.111 337.592L416.789 335.618ZM364.604 329.767L364.432 328.711L362.458 329.033L362.63 330.088L364.604 329.767ZM364.432 328.711L364.102 326.683L362.128 327.004L362.458 329.033L364.432 328.711ZM369.885 318.648L371.406 318.4L371.084 316.426L369.564 316.674L369.885 318.648ZM374.576 317.269C383.221 312.418 396.556 308.041 411.889 305.543L411.568 303.569C396.087 306.091 382.508 310.524 373.597 315.525L374.576 317.269ZM411.889 305.543C427.223 303.045 441.258 302.963 450.996 304.819L451.37 302.855C441.333 300.941 427.049 301.047 411.568 303.569L411.889 305.543ZM371.406 318.4C372.536 318.216 373.602 317.816 374.576 317.269L373.597 315.525C372.802 315.972 371.957 316.284 371.084 316.426L371.406 318.4ZM364.102 326.683C363.48 322.867 366.069 319.27 369.885 318.648L369.564 316.674C364.658 317.473 361.329 322.098 362.128 327.004L364.102 326.683ZM363.536 328.998C364.043 328.915 364.522 329.259 364.604 329.767L362.63 330.088C362.725 330.671 363.275 331.067 363.857 330.972L363.536 328.998ZM465.194 312.436C464.703 312.516 464.325 312.924 464.292 313.428L466.287 313.561C466.259 313.993 465.935 314.342 465.515 314.41L465.194 312.436ZM464.431 313.495C464.349 312.992 464.691 312.518 465.194 312.436L465.515 314.41C466.102 314.315 466.501 313.761 466.405 313.174L464.431 313.495ZM458.267 304.249C460.773 303.841 463.135 305.542 463.544 308.047L465.518 307.726C464.932 304.13 461.542 301.69 457.946 302.275L458.267 304.249ZM364.698 329.648C364.507 329.183 364.023 328.918 363.536 328.998L363.857 330.972C363.435 331.041 363.012 330.811 362.847 330.405L364.698 329.648ZM454.039 302.912C453.167 303.054 452.266 303.026 451.37 302.855L450.996 304.819C452.093 305.029 453.23 305.07 454.361 304.886L454.039 302.912Z" fill="#0F252A"/>
<ellipse cx="412.519" cy="309.317" rx="51.565" ry="16.2358" transform="rotate(-9.25304 412.519 309.317)" fill="#486268" stroke="#0F252A" stroke-width="2"/>
<ellipse cx="412.39" cy="308.528" rx="42.2132" ry="10.5208" transform="rotate(-9.25304 412.39 308.528)" fill="#486268" stroke="#0F252A" stroke-width="2"/>
<defs>
<clipPath id="clip0_836_48377">
<rect width="153" height="217" fill="white" transform="matrix(0.959997 -0.28001 0.977271 0.211994 93 239.842)"/>
</clipPath>
<clipPath id="clip1_836_48377">
<rect width="153" height="217" fill="white" transform="matrix(0.959997 -0.28001 0.977271 0.211994 453 78.8418)"/>
</clipPath>
<clipPath id="clip2_836_48377">
<rect width="153" height="217" fill="white" transform="matrix(0.959997 -0.28001 0.977271 0.211994 366 178.842)"/>
</clipPath>
<clipPath id="clip3_836_48377">
<rect width="153" height="217" fill="white" transform="matrix(0.959997 -0.28001 0.977271 0.211994 78 83.8418)"/>
</clipPath>
</defs>
</svg>
